<?xml version="1.0" encoding="utf-8" standalone="no"?>
<!DOCTYPE svg PUBLIC "-//W3C//DTD SVG 1.1//EN"
  "http://www.w3.org/Graphics/SVG/1.1/DTD/svg11.dtd">
<svg xmlns:xlink="http://www.w3.org/1999/xlink" width="460.8pt" height="345.6pt" viewBox="0 0 460.8 345.6" xmlns="http://www.w3.org/2000/svg" version="1.1">
 <metadata>
  <rdf:RDF xmlns:dc="http://purl.org/dc/elements/1.1/" xmlns:cc="http://creativecommons.org/ns#" xmlns:rdf="http://www.w3.org/1999/02/22-rdf-syntax-ns#">
   <cc:Work>
    <dc:type rdf:resource="http://purl.org/dc/dcmitype/StillImage"/>
    <dc:date>2026-07-05T23:59:33.765957</dc:date>
    <dc:format>image/svg+xml</dc:format>
    <dc:creator>
     <cc:Agent>
      <dc:title>Matplotlib v3.10.0, https://matplotlib.org/</dc:title>
     </cc:Agent>
    </dc:creator>
   </cc:Work>
  </rdf:RDF>
 </metadata>
 <defs>
  <style type="text/css">*{stroke-linejoin: round; stroke-linecap: butt}</style>
 </defs>
 <g id="figure_1">
  <g id="patch_1">
   <path d="M 0 345.6 
L 460.8 345.6 
L 460.8 0 
L 0 0 
z
" style="fill: #ffffff"/>
  </g>
  <g id="axes_1">
   <g id="patch_2">
    <path d="M 103.104 307.584 
L 369.216 307.584 
L 369.216 41.472 
L 103.104 41.472 
z
" style="fill: #ffffff"/>
   </g>
   <g id="matplotlib.axis_1">
    <g id="xtick_1">
     <g id="line2d_1">
      <defs>
       <path id="m0eda27a28e" d="M 0 0 
L 0 3.5 
" style="stroke: #000000; stroke-width: 0.8"/>
      </defs>
      <g>
       <use xlink:href="#m0eda27a28e" x="105.712941" y="307.584" style="stroke: #000000; stroke-width: 0.8"/>
      </g>
     </g>
     <g id="text_1">
      <!-- 0.0 -->
      <g transform="translate(96.171066 323.702125) scale(0.12 -0.12)">
       <defs>
        <path id="DejaVuSans-30" d="M 2034 4250 
Q 1547 4250 1301 3770 
Q 1056 3291 1056 2328 
Q 1056 1369 1301 889 
Q 1547 409 2034 409 
Q 2525 409 2770 889 
Q 3016 1369 3016 2328 
Q 3016 3291 2770 3770 
Q 2525 4250 2034 4250 
z
M 2034 4750 
Q 2819 4750 3233 4129 
Q 3647 3509 3647 2328 
Q 3647 1150 3233 529 
Q 2819 -91 2034 -91 
Q 1250 -91 836 529 
Q 422 1150 422 2328 
Q 422 3509 836 4129 
Q 1250 4750 2034 4750 
z
" transform="scale(0.015625)"/>
        <path id="DejaVuSans-2e" d="M 684 794 
L 1344 794 
L 1344 0 
L 684 0 
L 684 794 
z
" transform="scale(0.015625)"/>
       </defs>
       <use xlink:href="#DejaVuSans-30"/>
       <use xlink:href="#DejaVuSans-2e" transform="translate(63.623047 0)"/>
       <use xlink:href="#DejaVuSans-30" transform="translate(95.410156 0)"/>
      </g>
     </g>
    </g>
    <g id="xtick_2">
     <g id="line2d_2">
      <g>
       <use xlink:href="#m0eda27a28e" x="157.891765" y="307.584" style="stroke: #000000; stroke-width: 0.8"/>
      </g>
     </g>
     <g id="text_2">
      <!-- 0.2 -->
      <g transform="translate(148.34989 323.702125) scale(0.12 -0.12)">
       <defs>
        <path id="DejaVuSans-32" d="M 1228 531 
L 3431 531 
L 3431 0 
L 469 0 
L 469 531 
Q 828 903 1448 1529 
Q 2069 2156 2228 2338 
Q 2531 2678 2651 2914 
Q 2772 3150 2772 3378 
Q 2772 3750 2511 3984 
Q 2250 4219 1831 4219 
Q 1534 4219 1204 4116 
Q 875 4013 500 3803 
L 500 4441 
Q 881 4594 1212 4672 
Q 1544 4750 1819 4750 
Q 2544 4750 2975 4387 
Q 3406 4025 3406 3419 
Q 3406 3131 3298 2873 
Q 3191 2616 2906 2266 
Q 2828 2175 2409 1742 
Q 1991 1309 1228 531 
z
" transform="scale(0.015625)"/>
       </defs>
       <use xlink:href="#DejaVuSans-30"/>
       <use xlink:href="#DejaVuSans-2e" transform="translate(63.623047 0)"/>
       <use xlink:href="#DejaVuSans-32" transform="translate(95.410156 0)"/>
      </g>
     </g>
    </g>
    <g id="xtick_3">
     <g id="line2d_3">
      <g>
       <use xlink:href="#m0eda27a28e" x="210.070588" y="307.584" style="stroke: #000000; stroke-width: 0.8"/>
      </g>
     </g>
     <g id="text_3">
      <!-- 0.4 -->
      <g transform="translate(200.528713 323.702125) scale(0.12 -0.12)">
       <defs>
        <path id="DejaVuSans-34" d="M 2419 4116 
L 825 1625 
L 2419 1625 
L 2419 4116 
z
M 2253 4666 
L 3047 4666 
L 3047 1625 
L 3713 1625 
L 3713 1100 
L 3047 1100 
L 3047 0 
L 2419 0 
L 2419 1100 
L 313 1100 
L 313 1709 
L 2253 4666 
z
" transform="scale(0.015625)"/>
       </defs>
       <use xlink:href="#DejaVuSans-30"/>
       <use xlink:href="#DejaVuSans-2e" transform="translate(63.623047 0)"/>
       <use xlink:href="#DejaVuSans-34" transform="translate(95.410156 0)"/>
      </g>
     </g>
    </g>
    <g id="xtick_4">
     <g id="line2d_4">
      <g>
       <use xlink:href="#m0eda27a28e" x="262.249412" y="307.584" style="stroke: #000000; stroke-width: 0.8"/>
      </g>
     </g>
     <g id="text_4">
      <!-- 0.6 -->
      <g transform="translate(252.707537 323.702125) scale(0.12 -0.12)">
       <defs>
        <path id="DejaVuSans-36" d="M 2113 2584 
Q 1688 2584 1439 2293 
Q 1191 2003 1191 1497 
Q 1191 994 1439 701 
Q 1688 409 2113 409 
Q 2538 409 2786 701 
Q 3034 994 3034 1497 
Q 3034 2003 2786 2293 
Q 2538 2584 2113 2584 
z
M 3366 4563 
L 3366 3988 
Q 3128 4100 2886 4159 
Q 2644 4219 2406 4219 
Q 1781 4219 1451 3797 
Q 1122 3375 1075 2522 
Q 1259 2794 1537 2939 
Q 1816 3084 2150 3084 
Q 2853 3084 3261 2657 
Q 3669 2231 3669 1497 
Q 3669 778 3244 343 
Q 2819 -91 2113 -91 
Q 1303 -91 875 529 
Q 447 1150 447 2328 
Q 447 3434 972 4092 
Q 1497 4750 2381 4750 
Q 2619 4750 2861 4703 
Q 3103 4656 3366 4563 
z
" transform="scale(0.015625)"/>
       </defs>
       <use xlink:href="#DejaVuSans-30"/>
       <use xlink:href="#DejaVuSans-2e" transform="translate(63.623047 0)"/>
       <use xlink:href="#DejaVuSans-36" transform="translate(95.410156 0)"/>
      </g>
     </g>
    </g>
    <g id="xtick_5">
     <g id="line2d_5">
      <g>
       <use xlink:href="#m0eda27a28e" x="314.428235" y="307.584" style="stroke: #000000; stroke-width: 0.8"/>
      </g>
     </g>
     <g id="text_5">
      <!-- 0.8 -->
      <g transform="translate(304.88636 323.702125) scale(0.12 -0.12)">
       <defs>
        <path id="DejaVuSans-38" d="M 2034 2216 
Q 1584 2216 1326 1975 
Q 1069 1734 1069 1313 
Q 1069 891 1326 650 
Q 1584 409 2034 409 
Q 2484 409 2743 651 
Q 3003 894 3003 1313 
Q 3003 1734 2745 1975 
Q 2488 2216 2034 2216 
z
M 1403 2484 
Q 997 2584 770 2862 
Q 544 3141 544 3541 
Q 544 4100 942 4425 
Q 1341 4750 2034 4750 
Q 2731 4750 3128 4425 
Q 3525 4100 3525 3541 
Q 3525 3141 3298 2862 
Q 3072 2584 2669 2484 
Q 3125 2378 3379 2068 
Q 3634 1759 3634 1313 
Q 3634 634 3220 271 
Q 2806 -91 2034 -91 
Q 1263 -91 848 271 
Q 434 634 434 1313 
Q 434 1759 690 2068 
Q 947 2378 1403 2484 
z
M 1172 3481 
Q 1172 3119 1398 2916 
Q 1625 2713 2034 2713 
Q 2441 2713 2670 2916 
Q 2900 3119 2900 3481 
Q 2900 3844 2670 4047 
Q 2441 4250 2034 4250 
Q 1625 4250 1398 4047 
Q 1172 3844 1172 3481 
z
" transform="scale(0.015625)"/>
       </defs>
       <use xlink:href="#DejaVuSans-30"/>
       <use xlink:href="#DejaVuSans-2e" transform="translate(63.623047 0)"/>
       <use xlink:href="#DejaVuSans-38" transform="translate(95.410156 0)"/>
      </g>
     </g>
    </g>
    <g id="xtick_6">
     <g id="line2d_6">
      <g>
       <use xlink:href="#m0eda27a28e" x="366.607059" y="307.584" style="stroke: #000000; stroke-width: 0.8"/>
      </g>
     </g>
     <g id="text_6">
      <!-- 1.0 -->
      <g transform="translate(357.065184 323.702125) scale(0.12 -0.12)">
       <defs>
        <path id="DejaVuSans-31" d="M 794 531 
L 1825 531 
L 1825 4091 
L 703 3866 
L 703 4441 
L 1819 4666 
L 2450 4666 
L 2450 531 
L 3481 531 
L 3481 0 
L 794 0 
L 794 531 
z
" transform="scale(0.015625)"/>
       </defs>
       <use xlink:href="#DejaVuSans-31"/>
       <use xlink:href="#DejaVuSans-2e" transform="translate(63.623047 0)"/>
       <use xlink:href="#DejaVuSans-30" transform="translate(95.410156 0)"/>
      </g>
     </g>
    </g>
    <g id="text_7">
     <!-- Recall (Positive label: 1) -->
     <g transform="translate(128.490469 343.874937) scale(0.18 -0.18)">
      <defs>
       <path id="DejaVuSans-52" d="M 2841 2188 
Q 3044 2119 3236 1894 
Q 3428 1669 3622 1275 
L 4263 0 
L 3584 0 
L 2988 1197 
Q 2756 1666 2539 1819 
Q 2322 1972 1947 1972 
L 1259 1972 
L 1259 0 
L 628 0 
L 628 4666 
L 2053 4666 
Q 2853 4666 3247 4331 
Q 3641 3997 3641 3322 
Q 3641 2881 3436 2590 
Q 3231 2300 2841 2188 
z
M 1259 4147 
L 1259 2491 
L 2053 2491 
Q 2509 2491 2742 2702 
Q 2975 2913 2975 3322 
Q 2975 3731 2742 3939 
Q 2509 4147 2053 4147 
L 1259 4147 
z
" transform="scale(0.015625)"/>
       <path id="DejaVuSans-65" d="M 3597 1894 
L 3597 1613 
L 953 1613 
Q 991 1019 1311 708 
Q 1631 397 2203 397 
Q 2534 397 2845 478 
Q 3156 559 3463 722 
L 3463 178 
Q 3153 47 2828 -22 
Q 2503 -91 2169 -91 
Q 1331 -91 842 396 
Q 353 884 353 1716 
Q 353 2575 817 3079 
Q 1281 3584 2069 3584 
Q 2775 3584 3186 3129 
Q 3597 2675 3597 1894 
z
M 3022 2063 
Q 3016 2534 2758 2815 
Q 2500 3097 2075 3097 
Q 1594 3097 1305 2825 
Q 1016 2553 972 2059 
L 3022 2063 
z
" transform="scale(0.015625)"/>
       <path id="DejaVuSans-63" d="M 3122 3366 
L 3122 2828 
Q 2878 2963 2633 3030 
Q 2388 3097 2138 3097 
Q 1578 3097 1268 2742 
Q 959 2388 959 1747 
Q 959 1106 1268 751 
Q 1578 397 2138 397 
Q 2388 397 2633 464 
Q 2878 531 3122 666 
L 3122 134 
Q 2881 22 2623 -34 
Q 2366 -91 2075 -91 
Q 1284 -91 818 406 
Q 353 903 353 1747 
Q 353 2603 823 3093 
Q 1294 3584 2113 3584 
Q 2378 3584 2631 3529 
Q 2884 3475 3122 3366 
z
" transform="scale(0.015625)"/>
       <path id="DejaVuSans-61" d="M 2194 1759 
Q 1497 1759 1228 1600 
Q 959 1441 959 1056 
Q 959 750 1161 570 
Q 1363 391 1709 391 
Q 2188 391 2477 730 
Q 2766 1069 2766 1631 
L 2766 1759 
L 2194 1759 
z
M 3341 1997 
L 3341 0 
L 2766 0 
L 2766 531 
Q 2569 213 2275 61 
Q 1981 -91 1556 -91 
Q 1019 -91 701 211 
Q 384 513 384 1019 
Q 384 1609 779 1909 
Q 1175 2209 1959 2209 
L 2766 2209 
L 2766 2266 
Q 2766 2663 2505 2880 
Q 2244 3097 1772 3097 
Q 1472 3097 1187 3025 
Q 903 2953 641 2809 
L 641 3341 
Q 956 3463 1253 3523 
Q 1550 3584 1831 3584 
Q 2591 3584 2966 3190 
Q 3341 2797 3341 1997 
z
" transform="scale(0.015625)"/>
       <path id="DejaVuSans-6c" d="M 603 4863 
L 1178 4863 
L 1178 0 
L 603 0 
L 603 4863 
z
" transform="scale(0.015625)"/>
       <path id="DejaVuSans-20" transform="scale(0.015625)"/>
       <path id="DejaVuSans-28" d="M 1984 4856 
Q 1566 4138 1362 3434 
Q 1159 2731 1159 2009 
Q 1159 1288 1364 580 
Q 1569 -128 1984 -844 
L 1484 -844 
Q 1016 -109 783 600 
Q 550 1309 550 2009 
Q 550 2706 781 3412 
Q 1013 4119 1484 4856 
L 1984 4856 
z
" transform="scale(0.015625)"/>
       <path id="DejaVuSans-50" d="M 1259 4147 
L 1259 2394 
L 2053 2394 
Q 2494 2394 2734 2622 
Q 2975 2850 2975 3272 
Q 2975 3691 2734 3919 
Q 2494 4147 2053 4147 
L 1259 4147 
z
M 628 4666 
L 2053 4666 
Q 2838 4666 3239 4311 
Q 3641 3956 3641 3272 
Q 3641 2581 3239 2228 
Q 2838 1875 2053 1875 
L 1259 1875 
L 1259 0 
L 628 0 
L 628 4666 
z
" transform="scale(0.015625)"/>
       <path id="DejaVuSans-6f" d="M 1959 3097 
Q 1497 3097 1228 2736 
Q 959 2375 959 1747 
Q 959 1119 1226 758 
Q 1494 397 1959 397 
Q 2419 397 2687 759 
Q 2956 1122 2956 1747 
Q 2956 2369 2687 2733 
Q 2419 3097 1959 3097 
z
M 1959 3584 
Q 2709 3584 3137 3096 
Q 3566 2609 3566 1747 
Q 3566 888 3137 398 
Q 2709 -91 1959 -91 
Q 1206 -91 779 398 
Q 353 888 353 1747 
Q 353 2609 779 3096 
Q 1206 3584 1959 3584 
z
" transform="scale(0.015625)"/>
       <path id="DejaVuSans-73" d="M 2834 3397 
L 2834 2853 
Q 2591 2978 2328 3040 
Q 2066 3103 1784 3103 
Q 1356 3103 1142 2972 
Q 928 2841 928 2578 
Q 928 2378 1081 2264 
Q 1234 2150 1697 2047 
L 1894 2003 
Q 2506 1872 2764 1633 
Q 3022 1394 3022 966 
Q 3022 478 2636 193 
Q 2250 -91 1575 -91 
Q 1294 -91 989 -36 
Q 684 19 347 128 
L 347 722 
Q 666 556 975 473 
Q 1284 391 1588 391 
Q 1994 391 2212 530 
Q 2431 669 2431 922 
Q 2431 1156 2273 1281 
Q 2116 1406 1581 1522 
L 1381 1569 
Q 847 1681 609 1914 
Q 372 2147 372 2553 
Q 372 3047 722 3315 
Q 1072 3584 1716 3584 
Q 2034 3584 2315 3537 
Q 2597 3491 2834 3397 
z
" transform="scale(0.015625)"/>
       <path id="DejaVuSans-69" d="M 603 3500 
L 1178 3500 
L 1178 0 
L 603 0 
L 603 3500 
z
M 603 4863 
L 1178 4863 
L 1178 4134 
L 603 4134 
L 603 4863 
z
" transform="scale(0.015625)"/>
       <path id="DejaVuSans-74" d="M 1172 4494 
L 1172 3500 
L 2356 3500 
L 2356 3053 
L 1172 3053 
L 1172 1153 
Q 1172 725 1289 603 
Q 1406 481 1766 481 
L 2356 481 
L 2356 0 
L 1766 0 
Q 1100 0 847 248 
Q 594 497 594 1153 
L 594 3053 
L 172 3053 
L 172 3500 
L 594 3500 
L 594 4494 
L 1172 4494 
z
" transform="scale(0.015625)"/>
       <path id="DejaVuSans-76" d="M 191 3500 
L 800 3500 
L 1894 563 
L 2988 3500 
L 3597 3500 
L 2284 0 
L 1503 0 
L 191 3500 
z
" transform="scale(0.015625)"/>
       <path id="DejaVuSans-62" d="M 3116 1747 
Q 3116 2381 2855 2742 
Q 2594 3103 2138 3103 
Q 1681 3103 1420 2742 
Q 1159 2381 1159 1747 
Q 1159 1113 1420 752 
Q 1681 391 2138 391 
Q 2594 391 2855 752 
Q 3116 1113 3116 1747 
z
M 1159 2969 
Q 1341 3281 1617 3432 
Q 1894 3584 2278 3584 
Q 2916 3584 3314 3078 
Q 3713 2572 3713 1747 
Q 3713 922 3314 415 
Q 2916 -91 2278 -91 
Q 1894 -91 1617 61 
Q 1341 213 1159 525 
L 1159 0 
L 581 0 
L 581 4863 
L 1159 4863 
L 1159 2969 
z
" transform="scale(0.015625)"/>
       <path id="DejaVuSans-3a" d="M 750 794 
L 1409 794 
L 1409 0 
L 750 0 
L 750 794 
z
M 750 3309 
L 1409 3309 
L 1409 2516 
L 750 2516 
L 750 3309 
z
" transform="scale(0.015625)"/>
       <path id="DejaVuSans-29" d="M 513 4856 
L 1013 4856 
Q 1481 4119 1714 3412 
Q 1947 2706 1947 2009 
Q 1947 1309 1714 600 
Q 1481 -109 1013 -844 
L 513 -844 
Q 928 -128 1133 580 
Q 1338 1288 1338 2009 
Q 1338 2731 1133 3434 
Q 928 4138 513 4856 
z
" transform="scale(0.015625)"/>
      </defs>
      <use xlink:href="#DejaVuSans-52"/>
      <use xlink:href="#DejaVuSans-65" transform="translate(64.982422 0)"/>
      <use xlink:href="#DejaVuSans-63" transform="translate(126.505859 0)"/>
      <use xlink:href="#DejaVuSans-61" transform="translate(181.486328 0)"/>
      <use xlink:href="#DejaVuSans-6c" transform="translate(242.765625 0)"/>
      <use xlink:href="#DejaVuSans-6c" transform="translate(270.548828 0)"/>
      <use xlink:href="#DejaVuSans-20" transform="translate(298.332031 0)"/>
      <use xlink:href="#DejaVuSans-28" transform="translate(330.119141 0)"/>
      <use xlink:href="#DejaVuSans-50" transform="translate(369.132812 0)"/>
      <use xlink:href="#DejaVuSans-6f" transform="translate(425.810547 0)"/>
      <use xlink:href="#DejaVuSans-73" transform="translate(486.992188 0)"/>
      <use xlink:href="#DejaVuSans-69" transform="translate(539.091797 0)"/>
      <use xlink:href="#DejaVuSans-74" transform="translate(566.875 0)"/>
      <use xlink:href="#DejaVuSans-69" transform="translate(606.083984 0)"/>
      <use xlink:href="#DejaVuSans-76" transform="translate(633.867188 0)"/>
      <use xlink:href="#DejaVuSans-65" transform="translate(693.046875 0)"/>
      <use xlink:href="#DejaVuSans-20" transform="translate(754.570312 0)"/>
      <use xlink:href="#DejaVuSans-6c" transform="translate(786.357422 0)"/>
      <use xlink:href="#DejaVuSans-61" transform="translate(814.140625 0)"/>
      <use xlink:href="#DejaVuSans-62" transform="translate(875.419922 0)"/>
      <use xlink:href="#DejaVuSans-65" transform="translate(938.896484 0)"/>
      <use xlink:href="#DejaVuSans-6c" transform="translate(1000.419922 0)"/>
      <use xlink:href="#DejaVuSans-3a" transform="translate(1028.203125 0)"/>
      <use xlink:href="#DejaVuSans-20" transform="translate(1061.894531 0)"/>
      <use xlink:href="#DejaVuSans-31" transform="translate(1093.681641 0)"/>
      <use xlink:href="#DejaVuSans-29" transform="translate(1157.304688 0)"/>
     </g>
    </g>
   </g>
   <g id="matplotlib.axis_2">
    <g id="ytick_1">
     <g id="line2d_7">
      <defs>
       <path id="m55772777a3" d="M 0 0 
L -3.5 0 
" style="stroke: #000000; stroke-width: 0.8"/>
      </defs>
      <g>
       <use xlink:href="#m55772777a3" x="103.104" y="304.975059" style="stroke: #000000; stroke-width: 0.8"/>
      </g>
     </g>
     <g id="text_8">
      <!-- 0.0 -->
      <g transform="translate(77.02025 309.534121) scale(0.12 -0.12)">
       <use xlink:href="#DejaVuSans-30"/>
       <use xlink:href="#DejaVuSans-2e" transform="translate(63.623047 0)"/>
       <use xlink:href="#DejaVuSans-30" transform="translate(95.410156 0)"/>
      </g>
     </g>
    </g>
    <g id="ytick_2">
     <g id="line2d_8">
      <g>
       <use xlink:href="#m55772777a3" x="103.104" y="252.796235" style="stroke: #000000; stroke-width: 0.8"/>
      </g>
     </g>
     <g id="text_9">
      <!-- 0.2 -->
      <g transform="translate(77.02025 257.355298) scale(0.12 -0.12)">
       <use xlink:href="#DejaVuSans-30"/>
       <use xlink:href="#DejaVuSans-2e" transform="translate(63.623047 0)"/>
       <use xlink:href="#DejaVuSans-32" transform="translate(95.410156 0)"/>
      </g>
     </g>
    </g>
    <g id="ytick_3">
     <g id="line2d_9">
      <g>
       <use xlink:href="#m55772777a3" x="103.104" y="200.617412" style="stroke: #000000; stroke-width: 0.8"/>
      </g>
     </g>
     <g id="text_10">
      <!-- 0.4 -->
      <g transform="translate(77.02025 205.176474) scale(0.12 -0.12)">
       <use xlink:href="#DejaVuSans-30"/>
       <use xlink:href="#DejaVuSans-2e" transform="translate(63.623047 0)"/>
       <use xlink:href="#DejaVuSans-34" transform="translate(95.410156 0)"/>
      </g>
     </g>
    </g>
    <g id="ytick_4">
     <g id="line2d_10">
      <g>
       <use xlink:href="#m55772777a3" x="103.104" y="148.438588" style="stroke: #000000; stroke-width: 0.8"/>
      </g>
     </g>
     <g id="text_11">
      <!-- 0.6 -->
      <g transform="translate(77.02025 152.997651) scale(0.12 -0.12)">
       <use xlink:href="#DejaVuSans-30"/>
       <use xlink:href="#DejaVuSans-2e" transform="translate(63.623047 0)"/>
       <use xlink:href="#DejaVuSans-36" transform="translate(95.410156 0)"/>
      </g>
     </g>
    </g>
    <g id="ytick_5">
     <g id="line2d_11">
      <g>
       <use xlink:href="#m55772777a3" x="103.104" y="96.259765" style="stroke: #000000; stroke-width: 0.8"/>
      </g>
     </g>
     <g id="text_12">
      <!-- 0.8 -->
      <g transform="translate(77.02025 100.818827) scale(0.12 -0.12)">
       <use xlink:href="#DejaVuSans-30"/>
       <use xlink:href="#DejaVuSans-2e" transform="translate(63.623047 0)"/>
       <use xlink:href="#DejaVuSans-38" transform="translate(95.410156 0)"/>
      </g>
     </g>
    </g>
    <g id="ytick_6">
     <g id="line2d_12">
      <g>
       <use xlink:href="#m55772777a3" x="103.104" y="44.080941" style="stroke: #000000; stroke-width: 0.8"/>
      </g>
     </g>
     <g id="text_13">
      <!-- 1.0 -->
      <g transform="translate(77.02025 48.640004) scale(0.12 -0.12)">
       <use xlink:href="#DejaVuSans-31"/>
       <use xlink:href="#DejaVuSans-2e" transform="translate(63.623047 0)"/>
       <use xlink:href="#DejaVuSans-30" transform="translate(95.410156 0)"/>
      </g>
     </g>
    </g>
    <g id="text_14">
     <!-- Precision (Positive label: 1) -->
     <g transform="translate(69.276813 295.49925) rotate(-90) scale(0.18 -0.18)">
      <defs>
       <path id="DejaVuSans-72" d="M 2631 2963 
Q 2534 3019 2420 3045 
Q 2306 3072 2169 3072 
Q 1681 3072 1420 2755 
Q 1159 2438 1159 1844 
L 1159 0 
L 581 0 
L 581 3500 
L 1159 3500 
L 1159 2956 
Q 1341 3275 1631 3429 
Q 1922 3584 2338 3584 
Q 2397 3584 2469 3576 
Q 2541 3569 2628 3553 
L 2631 2963 
z
" transform="scale(0.015625)"/>
       <path id="DejaVuSans-6e" d="M 3513 2113 
L 3513 0 
L 2938 0 
L 2938 2094 
Q 2938 2591 2744 2837 
Q 2550 3084 2163 3084 
Q 1697 3084 1428 2787 
Q 1159 2491 1159 1978 
L 1159 0 
L 581 0 
L 581 3500 
L 1159 3500 
L 1159 2956 
Q 1366 3272 1645 3428 
Q 1925 3584 2291 3584 
Q 2894 3584 3203 3211 
Q 3513 2838 3513 2113 
z
" transform="scale(0.015625)"/>
      </defs>
      <use xlink:href="#DejaVuSans-50"/>
      <use xlink:href="#DejaVuSans-72" transform="translate(58.552734 0)"/>
      <use xlink:href="#DejaVuSans-65" transform="translate(97.416016 0)"/>
      <use xlink:href="#DejaVuSans-63" transform="translate(158.939453 0)"/>
      <use xlink:href="#DejaVuSans-69" transform="translate(213.919922 0)"/>
      <use xlink:href="#DejaVuSans-73" transform="translate(241.703125 0)"/>
      <use xlink:href="#DejaVuSans-69" transform="translate(293.802734 0)"/>
      <use xlink:href="#DejaVuSans-6f" transform="translate(321.585938 0)"/>
      <use xlink:href="#DejaVuSans-6e" transform="translate(382.767578 0)"/>
      <use xlink:href="#DejaVuSans-20" transform="translate(446.146484 0)"/>
      <use xlink:href="#DejaVuSans-28" transform="translate(477.933594 0)"/>
      <use xlink:href="#DejaVuSans-50" transform="translate(516.947266 0)"/>
      <use xlink:href="#DejaVuSans-6f" transform="translate(573.625 0)"/>
      <use xlink:href="#DejaVuSans-73" transform="translate(634.806641 0)"/>
      <use xlink:href="#DejaVuSans-69" transform="translate(686.90625 0)"/>
      <use xlink:href="#DejaVuSans-74" transform="translate(714.689453 0)"/>
      <use xlink:href="#DejaVuSans-69" transform="translate(753.898438 0)"/>
      <use xlink:href="#DejaVuSans-76" transform="translate(781.681641 0)"/>
      <use xlink:href="#DejaVuSans-65" transform="translate(840.861328 0)"/>
      <use xlink:href="#DejaVuSans-20" transform="translate(902.384766 0)"/>
      <use xlink:href="#DejaVuSans-6c" transform="translate(934.171875 0)"/>
      <use xlink:href="#DejaVuSans-61" transform="translate(961.955078 0)"/>
      <use xlink:href="#DejaVuSans-62" transform="translate(1023.234375 0)"/>
      <use xlink:href="#DejaVuSans-65" transform="translate(1086.710938 0)"/>
      <use xlink:href="#DejaVuSans-6c" transform="translate(1148.234375 0)"/>
      <use xlink:href="#DejaVuSans-3a" transform="translate(1176.017578 0)"/>
      <use xlink:href="#DejaVuSans-20" transform="translate(1209.708984 0)"/>
      <use xlink:href="#DejaVuSans-31" transform="translate(1241.496094 0)"/>
      <use xlink:href="#DejaVuSans-29" transform="translate(1305.119141 0)"/>
     </g>
    </g>
   </g>
   <g id="line2d_13">
    <path d="M 366.607059 225.154214 
L 366.497151 187.375739 
L 366.493361 187.375739 
L 366.493361 187.264869 
L 366.383454 184.502297 
L 366.379664 184.502297 
L 366.379664 184.391519 
L 366.269756 178.995465 
L 366.243227 178.892222 
L 366.243227 178.885192 
L 366.133319 177.467317 
L 366.118159 177.369417 
L 366.118159 177.35674 
L 366.008252 176.305887 
L 365.993092 176.241252 
L 365.993092 176.195013 
L 365.883185 174.822818 
L 365.875605 174.730064 
L 365.875605 174.712068 
L 365.765697 173.845762 
L 365.754327 173.73711 
L 365.754327 173.735174 
L 365.64821 172.996272 
L 365.64442 172.997223 
L 365.62926 172.912408 
L 365.62926 172.887035 
L 365.519353 171.435545 
L 365.504193 171.329626 
L 365.504193 171.324584 
L 365.394285 170.527074 
L 365.375336 170.42867 
L 365.375336 170.416454 
L 365.265428 169.46659 
L 365.250268 169.365564 
L 365.250268 169.356221 
L 365.140361 168.372587 
L 365.110041 168.265255 
L 365.110041 168.262019 
L 365.000134 167.3983 
L 364.973604 167.3085 
L 364.973604 167.288209 
L 364.863697 166.456405 
L 364.840957 166.357826 
L 364.840957 166.34585 
L 364.73105 165.811982 
L 364.70452 165.71551 
L 364.70452 165.70123 
L 364.594613 165.134387 
L 364.564293 165.031218 
L 364.564293 165.023375 
L 364.454386 164.155971 
L 364.431646 164.084971 
L 364.431646 164.045785 
L 364.321739 163.319895 
L 364.295209 163.21391 
L 364.295209 163.209214 
L 364.185302 162.478472 
L 364.173932 162.378729 
L 364.173932 162.368248 
L 364.064024 161.637318 
L 364.052655 161.54789 
L 364.052655 161.526856 
L 363.942747 160.954759 
L 363.912428 160.855127 
L 363.912428 160.844387 
L 363.80252 160.3157 
L 363.78736 160.227788 
L 363.78736 160.205143 
L 363.677453 159.581987 
L 363.643343 159.479952 
L 363.643343 159.471359 
L 363.533436 158.740044 
L 363.491747 158.636142 
L 363.491747 158.629845 
L 363.381839 158.031787 
L 363.35531 157.930248 
L 363.35531 157.921439 
L 363.245402 157.34153 
L 363.226453 157.237033 
L 363.226453 157.230588 
L 363.116545 156.548942 
L 363.101385 156.492066 
L 363.101385 156.438239 
L 362.995268 155.898353 
L 362.991478 155.899294 
L 362.980108 155.80198 
L 362.980108 155.789099 
L 362.8702 155.073721 
L 362.847461 154.985701 
L 362.847461 154.96376 
L 362.737553 154.366718 
L 362.711024 154.273571 
L 362.711024 154.256535 
L 362.601116 153.611764 
L 362.589746 153.547536 
L 362.589746 153.501777 
L 362.479839 152.834169 
L 362.44194 152.748247 
L 362.44194 152.724266 
L 362.335822 152.183022 
L 362.332032 152.183957 
L 362.286553 152.088446 
L 362.286553 152.073498 
L 362.176645 151.255381 
L 362.153906 151.144854 
L 362.153906 151.144447 
L 362.043998 150.373762 
L 362.009889 150.279553 
L 362.009889 150.26285 
L 361.899982 149.724743 
L 361.877242 149.689748 
L 361.877242 149.614064 
L 361.767334 148.952183 
L 361.729435 148.84444 
L 361.729435 148.841219 
L 361.619528 148.211068 
L 361.611948 148.198043 
L 361.611948 148.10124 
L 361.50583 147.74484 
L 361.50204 147.745766 
L 361.475511 147.669847 
L 361.475511 147.635629 
L 361.365603 147.088066 
L 361.339074 147.00574 
L 361.339074 146.978297 
L 361.229166 146.329749 
L 361.202637 146.225027 
L 361.202637 146.218784 
L 361.092729 145.479407 
L 361.0662 145.390813 
L 361.0662 145.368549 
L 360.956292 144.814841 
L 360.929763 144.706396 
L 360.929763 144.704389 
L 360.819855 144.24262 
L 360.797116 144.147103 
L 360.797116 144.131815 
L 360.687208 143.660313 
L 360.664468 143.555102 
L 360.664468 143.550078 
L 360.554561 142.569557 
L 360.516662 142.479976 
L 360.516662 142.45981 
L 360.406754 141.933218 
L 360.376435 141.822757 
L 360.376435 141.822148 
L 360.266527 141.365723 
L 360.239998 141.256522 
L 360.239998 141.2559 
L 360.13009 140.566162 
L 360.103561 140.468124 
L 360.103561 140.45512 
L 359.993653 139.746961 
L 359.974704 139.65538 
L 359.974704 139.635981 
L 359.864796 138.948378 
L 359.838267 138.84815 
L 359.838267 138.838006 
L 359.728359 138.408405 
L 359.705619 138.320819 
L 359.705619 138.297887 
L 359.595712 137.584929 
L 359.576762 137.489051 
L 359.576762 137.473894 
L 359.466855 136.890713 
L 359.436535 136.788528 
L 359.436535 136.779703 
L 359.326628 136.293778 
L 359.296308 136.184218 
L 359.296308 136.183477 
L 359.186401 135.7067 
L 359.156081 135.612695 
L 359.156081 135.597142 
L 359.046174 135.184324 
L 359.019644 135.100329 
L 359.019644 135.074733 
L 358.909737 134.563993 
L 358.883207 134.462601 
L 358.883207 134.453475 
L 358.77709 133.949309 
L 358.7733 133.950191 
L 358.75814 133.850354 
L 358.75814 133.839467 
L 358.648232 133.164351 
L 358.625493 133.112781 
L 358.625493 133.054262 
L 358.515585 132.647397 
L 358.477686 132.546004 
L 358.477686 132.536628 
L 358.367779 132.099351 
L 358.337459 131.990267 
L 358.337459 131.989421 
L 358.227552 131.351402 
L 358.185863 131.240372 
L 358.185863 131.241243 
L 358.178283 131.241249 
L 358.075955 130.782305 
L 358.022896 130.671251 
L 358.022896 130.67212 
L 357.912989 130.035275 
L 357.878879 129.950489 
L 357.878879 129.92488 
L 357.768972 129.473778 
L 357.734862 129.379444 
L 357.734862 129.364311 
L 357.624955 129.068755 
L 357.590846 128.970309 
L 357.590846 128.958664 
L 357.480938 128.568073 
L 357.458198 128.45738 
L 357.458198 128.45824 
L 357.348291 127.867839 
L 357.329341 127.793366 
L 357.329341 127.757967 
L 357.219434 127.242565 
L 357.181534 127.171756 
L 357.181534 127.132423 
L 357.071627 126.704669 
L 357.048887 126.613365 
L 357.048887 126.593988 
L 356.93898 126.17981 
L 356.893501 126.078163 
L 356.893501 126.069757 
L 356.783593 125.767927 
L 356.734324 125.660945 
L 356.734324 125.65807 
L 356.624417 125.173103 
L 356.571358 125.062327 
L 356.571358 125.063171 
L 356.46145 124.764621 
L 356.412181 124.65423 
L 356.412181 124.655072 
L 356.302274 124.345337 
L 356.260585 124.234499 
L 356.260585 124.235339 
L 356.150677 123.982709 
L 356.108988 123.892231 
L 356.108988 123.872142 
L 355.99908 123.448124 
L 355.953601 123.33866 
L 355.953601 123.337581 
L 355.843694 122.989445 
L 355.794425 122.887819 
L 355.794425 122.879023 
L 355.684517 122.553843 
L 355.604929 122.446618 
L 355.604929 122.443576 
L 355.495021 122.161112 
L 355.449542 122.051596 
L 355.449542 122.050479 
L 355.339635 121.633525 
L 355.294156 121.523218 
L 355.294156 121.524045 
L 355.184248 121.251721 
L 355.134979 121.149519 
L 355.134979 121.142471 
L 355.025072 120.904211 
L 354.960643 120.800833 
L 354.960643 120.793748 
L 354.850735 120.587967 
L 354.805256 120.477988 
L 354.805256 120.47881 
L 354.695349 120.13262 
L 354.64987 120.053885 
L 354.64987 120.022772 
L 354.543752 119.737753 
L 354.539962 119.738571 
L 354.475534 119.643418 
L 354.475534 119.628188 
L 354.365626 119.408807 
L 354.274668 119.30075 
L 354.274668 119.299551 
L 354.16476 119.129567 
L 354.126861 119.025766 
L 354.126861 119.018493 
L 354.020743 118.615616 
L 354.016954 118.616429 
L 353.960105 118.524118 
L 353.960105 118.506621 
L 353.850197 118.248919 
L 353.804718 118.147541 
L 353.804718 118.138132 
L 353.694811 117.799077 
L 353.634172 117.692081 
L 353.634172 117.688778 
L 353.524264 117.368288 
L 353.478785 117.265668 
L 353.478785 117.258209 
L 353.368878 116.998048 
L 353.28171 116.905809 
L 353.28171 116.887932 
L 353.171802 116.707552 
L 353.111163 116.607157 
L 353.111163 116.597541 
L 353.001256 116.374568 
L 352.963357 116.279329 
L 352.963357 116.265485 
L 352.853449 116.026753 
L 352.80797 115.922149 
L 352.80797 115.916644 
L 352.698062 115.640886 
L 352.641214 115.550777 
L 352.641214 115.530462 
L 352.531306 115.19176 
L 352.497197 115.08569 
L 352.497197 115.082239 
L 352.391079 114.776961 
L 352.387289 114.777753 
L 352.33423 114.668664 
L 352.33423 114.667322 
L 352.224323 114.148909 
L 352.194003 114.044917 
L 352.194003 114.039259 
L 352.084096 113.67664 
L 352.053776 113.567701 
L 352.053776 113.566325 
L 351.943869 113.199316 
L 351.89839 113.090671 
L 351.89839 113.08928 
L 351.788482 112.741807 
L 351.735423 112.638422 
L 351.735423 112.632648 
L 351.629306 112.330545 
L 351.625516 112.331322 
L 351.564877 112.224506 
L 351.564877 112.220891 
L 351.454969 111.931096 
L 351.41328 111.830828 
L 351.41328 111.820574 
L 351.310953 111.633856 
L 351.303373 111.635401 
L 351.246524 111.531164 
L 351.246524 111.525294 
L 351.136616 111.261588 
L 351.102507 111.17219 
L 351.102507 111.150723 
L 351.091137 111.150808 
L 350.9926 110.986015 
L 350.96607 110.892509 
L 350.96607 110.875426 
L 350.856162 110.725687 
L 350.810683 110.620015 
L 350.810683 110.616304 
L 350.708356 110.381382 
L 350.700776 110.382912 
L 350.670457 110.273685 
L 350.670457 110.272201 
L 350.560549 109.870713 
L 350.51507 109.761572 
L 350.51507 109.760072 
L 350.405162 109.521678 
L 350.336944 109.434736 
L 350.336944 109.412786 
L 350.227036 109.102578 
L 350.139868 108.99148 
L 350.139868 108.992236 
L 350.029961 108.730639 
L 349.980692 108.632 
L 349.980692 108.62129 
L 349.874574 108.35991 
L 349.870784 108.360662 
L 349.817725 108.262268 
L 349.817725 108.251505 
L 349.707818 108.008031 
L 349.650969 107.912209 
L 349.650969 107.899081 
L 349.541061 107.754102 
L 349.495582 107.648708 
L 349.495582 107.644815 
L 349.389464 107.491533 
L 349.385675 107.492279 
L 349.306086 107.393206 
L 349.306086 107.382311 
L 349.196179 107.257123 
L 349.105221 107.159897 
L 349.105221 107.146628 
L 348.995313 107.01859 
L 348.866456 106.914338 
L 348.866456 106.908051 
L 348.756548 106.73485 
L 348.6997 106.627717 
L 348.6997 106.623755 
L 348.589792 106.525213 
L 348.495044 106.415703 
L 348.495044 106.416444 
L 348.385136 106.324605 
L 348.279019 106.221656 
L 348.279019 106.215299 
L 348.172901 106.013322 
L 348.169111 106.01406 
L 348.062993 105.90819 
L 348.062993 105.904177 
L 347.956876 105.80835 
L 347.953086 105.809087 
L 347.77875 105.699401 
L 347.77875 105.700138 
L 347.668842 105.628509 
L 347.467976 105.51874 
L 347.467976 105.519477 
L 347.377018 105.446257 
L 347.358069 105.447544 
L 347.107934 105.337259 
L 347.107934 105.337995 
L 346.998027 105.270543 
L 346.808531 105.167195 
L 346.808531 105.160714 
L 346.702413 105.104283 
L 346.698623 105.105018 
L 346.505337 104.99474 
L 346.505337 104.995475 
L 346.40301 104.940487 
L 346.39543 104.941956 
L 346.217304 104.833131 
L 346.217304 104.831446 
L 346.114976 104.768966 
L 346.107396 104.770434 
L 345.92548 104.6619 
L 345.92548 104.660208 
L 345.823152 104.544016 
L 345.815572 104.545482 
L 345.550278 104.437918 
L 345.550278 104.436215 
L 345.44795 104.390212 
L 345.440371 104.391678 
L 345.311513 104.291427 
L 345.311513 104.282392 
L 345.201606 104.210781 
L 345.061379 104.109901 
L 345.061379 104.100838 
L 344.951471 103.962717 
L 344.894623 103.852645 
L 344.894623 103.853375 
L 344.784715 103.685164 
L 344.674807 103.574983 
L 344.674807 103.575711 
L 344.5649 103.386981 
L 344.443622 103.283369 
L 344.443622 103.27667 
L 344.333715 103.099462 
L 344.227597 102.999866 
L 344.227597 102.990653 
L 344.121479 102.821886 
L 344.11769 102.822609 
L 344.026731 102.717145 
L 344.026731 102.712881 
L 343.916824 102.526609 
L 343.810706 102.423522 
L 343.810706 102.416733 
L 343.700799 102.249679 
L 343.568152 102.141081 
L 343.568152 102.139287 
L 343.458244 102.014273 
L 343.340756 101.904833 
L 343.340756 101.90555 
L 343.234639 101.781827 
L 343.230849 101.782544 
L 343.098202 101.675504 
L 343.098202 101.673691 
L 342.995874 101.558872 
L 342.988294 101.560303 
L 342.832908 101.452014 
L 342.832908 101.450192 
L 342.723 101.277849 
L 342.590353 101.167222 
L 342.590353 101.167935 
L 342.484235 101.098703 
L 342.480445 101.099417 
L 342.325059 100.990106 
L 342.325059 100.990819 
L 342.215151 100.929694 
L 342.044605 100.822817 
L 342.044605 100.820967 
L 341.934697 100.73907 
L 341.760361 100.632442 
L 341.760361 100.628014 
L 341.650453 100.481425 
L 341.453378 100.370732 
L 341.453378 100.371442 
L 341.35105 100.277015 
L 341.34347 100.278434 
L 341.207033 100.168809 
L 341.207033 100.169518 
L 341.097125 100.068361 
L 340.915209 99.961576 
L 340.915209 99.959688 
L 340.820461 99.89166 
L 340.805302 99.894489 
L 340.615806 99.786068 
L 340.615806 99.784171 
L 340.513478 99.709462 
L 340.505898 99.710875 
L 340.312613 99.600069 
L 340.312613 99.600775 
L 340.206495 99.489848 
L 340.202705 99.490553 
L 340.043528 99.383325 
L 340.043528 99.38141 
L 339.94878 99.262657 
L 339.933621 99.262848 
L 339.717596 99.157773 
L 339.717596 99.153218 
L 339.607688 99.121008 
L 339.475041 99.010588 
L 339.475041 99.011291 
L 339.368923 98.94657 
L 339.365133 98.947273 
L 339.137738 98.838149 
L 339.137738 98.836207 
L 339.03541 98.738728 
L 339.027831 98.740131 
L 338.864864 98.634426 
L 338.864864 98.629822 
L 338.754957 98.546625 
L 338.57683 98.440605 
L 338.57683 98.435983 
L 338.466923 98.357764 
L 338.315326 98.265062 
L 338.315326 98.24708 
L 338.212998 98.20989 
L 338.296377 98.247908 
L 338.205419 98.211288 
L 337.981813 98.102101 
L 337.981813 98.1028 
L 337.883276 98.06742 
L 337.871906 98.069517 
L 337.66725 97.961763 
L 337.66725 97.959777 
L 337.564922 97.879266 
L 337.557343 97.880662 
L 337.299628 97.771398 
L 337.299628 97.772096 
L 337.193511 97.708102 
L 337.284469 97.772194 
L 337.189721 97.708799 
L 336.947166 97.598903 
L 336.947166 97.599601 
L 336.848628 97.52311 
L 336.837258 97.525201 
L 336.594704 97.414751 
L 336.594704 97.415448 
L 336.530275 97.367632 
L 336.484796 97.370562 
L 336.261191 97.267012 
L 336.261191 97.259553 
L 336.151283 97.203575 
L 335.802611 97.095229 
L 335.802611 97.093196 
L 335.704073 97.03485 
L 335.692703 97.036937 
L 335.37435 96.933337 
L 335.37435 96.928557 
L 335.264443 96.874765 
L 335.006728 96.764959 
L 335.006728 96.765654 
L 334.961249 96.765754 
L 334.896821 96.733604 
L 334.593627 96.623387 
L 334.593627 96.624082 
L 334.48372 96.550495 
L 334.237375 96.443055 
L 334.237375 96.440984 
L 334.146417 96.427229 
L 334.127467 96.427934 
L 333.953131 96.317971 
L 333.953131 96.318665 
L 333.847014 96.271553 
L 333.934182 96.319363 
L 333.843224 96.272247 
L 333.399803 96.166618 
L 333.399803 96.161748 
L 333.305055 96.123433 
L 333.289896 96.126208 
L 332.842686 96.017793 
L 332.842686 96.015694 
L 332.732778 95.991125 
L 332.133971 95.881784 
L 332.133971 95.882479 
L 332.024063 95.840894 
L 331.675391 95.729834 
L 331.675391 95.730529 
L 331.565483 95.683091 
L 331.069004 95.578715 
L 331.069004 95.573757 
L 330.966676 95.544455 
L 331.034895 95.57436 
L 330.959097 95.545846 
L 330.458828 95.43577 
L 330.458828 95.436465 
L 330.34892 95.391332 
L 329.992668 95.282506 
L 329.992668 95.280353 
L 329.90171 95.237207 
L 329.88276 95.240683 
L 329.488609 95.132473 
L 329.488609 95.13031 
L 329.390071 95.091195 
L 329.378701 95.093281 
L 328.832953 94.983544 
L 328.832953 94.98424 
L 328.726835 94.943408 
L 328.723045 94.944104 
L 328.461541 94.833196 
L 328.461541 94.833891 
L 328.351634 94.793557 
L 327.824835 94.684568 
L 327.824835 94.685264 
L 327.714927 94.633104 
L 327.423104 94.52366 
L 327.423104 94.524356 
L 327.358675 94.486831 
L 327.313196 94.489368 
L 327.021373 94.38521 
L 327.021373 94.380084 
L 326.926625 94.347958 
L 326.911465 94.350739 
L 326.69923 94.243157 
L 326.69923 94.240933 
L 326.596902 94.201283 
L 326.65754 94.245657 
L 326.589322 94.202673 
L 326.373297 94.098263 
L 326.373297 94.093102 
L 326.274759 94.073084 
L 326.263389 94.075167 
L 326.062523 93.976383 
L 326.062523 93.965337 
L 325.960196 93.942965 
L 326.035994 93.967259 
L 325.952616 93.944353 
L 325.74038 93.835498 
L 325.74038 93.833249 
L 325.641843 93.718718 
L 325.630473 93.720796 
L 325.520565 93.613324 
L 325.520565 93.611064 
L 325.422027 93.537467 
L 325.410658 93.539542 
L 325.228742 93.435932 
L 325.228742 93.4307 
L 325.118834 93.35887 
L 324.952078 93.249068 
L 324.952078 93.249758 
L 324.84975 93.191112 
L 324.84217 93.192491 
L 324.664044 93.084319 
L 324.664044 93.082029 
L 324.561716 92.987345 
L 324.554136 92.988722 
L 324.3798 92.882338 
L 324.3798 92.880037 
L 324.269893 92.798297 
L 324.099346 92.690748 
L 324.099346 92.688436 
L 323.993229 92.623669 
L 323.989439 92.624355 
L 323.780993 92.517198 
L 323.780993 92.514877 
L 323.678665 92.464189 
L 323.671086 92.465559 
L 323.515699 92.360411 
L 323.515699 92.355066 
L 323.409581 92.286739 
L 323.405791 92.287423 
L 323.132917 92.187919 
L 323.132917 92.176501 
L 323.02301 92.108535 
L 322.882783 92.014907 
L 322.882783 92.000421 
L 322.772875 91.929137 
L 322.681917 91.82627 
L 322.681917 91.820867 
L 322.57201 91.7158 
L 322.401463 91.608511 
L 322.401463 91.606139 
L 322.291556 91.525064 
L 322.026262 91.418955 
L 322.026262 91.416571 
L 321.920144 91.352834 
L 321.916354 91.353513 
L 321.768547 91.247329 
L 321.768547 91.244935 
L 321.666219 91.152582 
L 321.65864 91.153936 
L 321.442614 91.047144 
L 321.442614 91.044739 
L 321.332707 90.965672 
L 321.109102 90.856603 
L 321.109102 90.857279 
L 321.006774 90.767217 
L 320.999194 90.768567 
L 320.73011 90.663915 
L 320.73011 90.658383 
L 320.620202 90.572355 
L 320.407967 90.475665 
L 320.407967 90.463885 
L 320.298059 90.408642 
L 320.135093 90.309002 
L 320.135093 90.300308 
L 320.047925 90.237671 
L 320.025185 90.241702 
L 319.877378 90.132709 
L 319.877378 90.13338 
L 319.850849 90.134947 
L 319.767471 90.096462 
L 319.562815 89.997148 
L 319.562815 89.9884 
L 319.464277 89.911579 
L 319.452908 89.913589 
L 319.248252 89.804338 
L 319.248252 89.805007 
L 319.142134 89.760724 
L 319.138345 89.761393 
L 319.001908 89.652284 
L 319.001908 89.652952 
L 318.89958 89.614132 
L 318.892 89.615468 
L 318.641865 89.513356 
L 318.641865 89.504522 
L 318.535748 89.434473 
L 318.619126 89.505361 
L 318.531958 89.43514 
L 318.368991 89.329849 
L 318.368991 89.324162 
L 318.285613 89.294334 
L 318.259084 89.298999 
L 318.005159 89.199765 
L 318.005159 89.190873 
L 317.895252 89.149622 
L 317.717126 89.039791 
L 317.717126 89.040456 
L 317.614798 88.981694 
L 317.607218 88.983024 
L 317.474571 88.883988 
L 317.474571 88.875042 
L 317.376033 88.834617 
L 317.364663 88.836609 
L 317.141058 88.733883 
L 317.141058 88.728121 
L 317.031151 88.666986 
L 316.807545 88.560536 
L 316.807545 88.557976 
L 316.705218 88.524269 
L 316.697638 88.525594 
L 316.439923 88.424646 
L 316.439923 88.415609 
L 316.330016 88.376583 
L 316.14431 88.265818 
L 316.14431 88.266479 
L 316.034402 88.194813 
L 315.829747 88.093352 
L 315.829747 88.084256 
L 315.731209 88.039588 
L 315.719839 88.041567 
L 315.412856 87.931362 
L 315.412856 87.932021 
L 315.306738 87.917841 
L 315.367377 87.936671 
L 315.302948 87.9185 
L 315.060394 87.80966 
L 315.060394 87.810319 
L 314.958066 87.779004 
L 315.037654 87.811001 
L 314.950486 87.780322 
L 314.662452 87.672338 
L 314.662452 87.669714 
L 314.552545 87.616545 
L 314.154603 87.510575 
L 314.154603 87.507938 
L 314.112914 87.508586 
L 314.044696 87.464372 
L 313.669494 87.357066 
L 313.669494 87.354416 
L 313.631595 87.324594 
L 313.559586 87.32716 
L 313.286712 87.218065 
L 313.286712 87.218722 
L 313.195754 87.188023 
L 313.176805 87.19131 
L 312.903931 87.081699 
L 312.903931 87.082356 
L 312.794023 87.028133 
L 312.657586 86.921039 
L 312.657586 86.918357 
L 312.555258 86.895995 
L 312.547678 86.897306 
L 312.305124 86.788134 
L 312.305124 86.788789 
L 312.202796 86.722743 
L 312.195216 86.724052 
L 311.910972 86.618156 
L 311.910972 86.615452 
L 311.801065 86.590743 
L 311.588829 86.482017 
L 311.588829 86.482671 
L 311.490291 86.439005 
L 311.478922 86.440965 
L 311.11509 86.330854 
L 311.11509 86.331507 
L 311.008972 86.295681 
L 311.005182 86.296334 
L 310.63756 86.18622 
L 310.63756 86.186873 
L 310.539022 86.159723 
L 310.527652 86.161682 
L 310.296467 86.05127 
L 310.296467 86.051922 
L 310.19414 86.001439 
L 310.18656 86.002743 
L 309.856837 85.891678 
L 309.856837 85.89233 
L 309.746929 85.842886 
L 309.481635 85.740656 
L 309.481635 85.734454 
L 309.379307 85.70061 
L 309.371728 85.701912 
L 309.148122 85.595462 
L 309.148122 85.592675 
L 309.049585 85.551131 
L 309.038215 85.553081 
L 308.681963 85.451651 
L 308.681963 85.445403 
L 308.572055 85.388322 
L 308.314341 85.283185 
L 308.314341 85.280373 
L 308.204433 85.240333 
L 307.969458 85.130787 
L 307.969458 85.131435 
L 307.863341 85.087069 
L 307.859551 85.087717 
L 307.586677 84.980647 
L 307.586677 84.977812 
L 307.514668 84.941336 
L 307.476769 84.947809 
L 307.021979 84.839819 
L 307.021979 84.83697 
L 306.912071 84.803267 
L 306.49897 84.697917 
L 306.49897 84.695054 
L 306.400432 84.666227 
L 306.389063 84.668169 
L 306.104819 84.561277 
L 306.104819 84.558402 
L 305.994911 84.474946 
L 305.646239 84.364217 
L 305.646239 84.364863 
L 305.547701 84.335663 
L 305.536331 84.3376 
L 305.289987 84.226559 
L 305.289987 84.227204 
L 305.183869 84.170736 
L 305.180079 84.171381 
L 304.975424 84.063362 
L 304.975424 84.060448 
L 304.873096 84.006635 
L 304.865516 84.007922 
L 304.482734 83.901068 
L 304.482734 83.898139 
L 304.410726 83.899647 
L 304.372827 83.888214 
L 303.986255 83.781393 
L 303.986255 83.778451 
L 303.914247 83.765576 
L 303.955936 83.780014 
L 303.876348 83.768424 
L 303.702011 83.660932 
L 303.702011 83.657981 
L 303.599684 83.628594 
L 303.592104 83.62988 
L 303.31923 83.520646 
L 303.31923 83.521289 
L 303.209322 83.456934 
L 302.769692 83.349962 
L 302.769692 83.346983 
L 302.667364 83.277343 
L 302.659784 83.278625 
L 302.38312 83.175951 
L 302.38312 83.169324 
L 302.277002 83.143631 
L 302.273213 83.144272 
L 301.837372 83.035148 
L 301.837372 83.035788 
L 301.738834 82.997686 
L 301.727464 82.999607 
L 301.359842 82.889183 
L 301.359842 82.889823 
L 301.287834 82.850691 
L 301.249935 82.853423 
L 300.920212 82.746942 
L 300.920212 82.743907 
L 300.810304 82.674183 
L 300.514691 82.568622 
L 300.514691 82.565571 
L 300.427523 82.539661 
L 300.404783 82.539799 
L 300.048531 82.429087 
L 300.048531 82.429725 
L 299.953783 82.371587 
L 299.938623 82.374137 
L 299.760497 82.266191 
L 299.760497 82.263114 
L 299.661959 82.238806 
L 299.711228 82.267678 
L 299.65059 82.240716 
L 299.032833 82.131641 
L 299.032833 82.132278 
L 298.930505 82.059863 
L 298.922926 82.061136 
L 298.585623 81.952527 
L 298.585623 81.953163 
L 298.483295 81.917868 
L 298.475715 81.91914 
L 298.225581 81.81407 
L 298.225581 81.810947 
L 298.115673 81.76169 
L 297.751841 81.656252 
L 297.751841 81.653114 
L 297.649513 81.613635 
L 297.641934 81.614904 
L 297.213673 81.504423 
L 297.213673 81.505057 
L 297.134085 81.491856 
L 297.103765 81.493142 
L 296.686874 81.383857 
L 296.686874 81.384491 
L 296.584547 81.340745 
L 296.576967 81.342014 
L 296.201765 81.232613 
L 296.201765 81.233246 
L 296.091857 81.198158 
L 295.739395 81.09958 
L 295.739395 81.088719 
L 295.644647 81.050883 
L 295.629487 81.053416 
L 295.405882 80.944225 
L 295.405882 80.944857 
L 295.299765 80.901037 
L 295.379353 80.945441 
L 295.295975 80.901669 
L 294.951092 80.792887 
L 294.951092 80.793519 
L 294.841185 80.75008 
L 294.568311 80.640241 
L 294.568311 80.640872 
L 294.465983 80.584311 
L 294.458403 80.585572 
L 294.227218 80.475955 
L 294.227218 80.476585 
L 294.11731 80.405454 
L 293.643571 80.304279 
L 293.643571 80.297104 
L 293.545033 80.223649 
L 293.533663 80.225534 
L 293.21531 80.117271 
L 293.21531 80.117898 
L 293.109192 80.100211 
L 293.105403 80.100839 
L 292.74536 80.010692 
L 292.74536 79.991665 
L 292.665772 79.945842 
L 292.635453 79.95086 
L 292.358789 79.842342 
L 292.358789 79.842969 
L 292.248881 79.778244 
L 291.892629 79.670337 
L 291.892629 79.670962 
L 291.797881 79.611304 
L 291.782721 79.613805 
L 291.517427 79.525937 
L 291.517427 79.502717 
L 291.411309 79.460549 
L 291.40752 79.461173 
L 291.096746 79.352361 
L 291.096746 79.352985 
L 290.990629 79.310579 
L 290.986839 79.311202 
L 290.615427 79.203706 
L 290.615427 79.200324 
L 290.505519 79.166303 
L 290.285704 79.057323 
L 290.285704 79.057945 
L 290.187166 79.021869 
L 290.175796 79.023734 
L 289.793015 78.912745 
L 289.793015 78.913366 
L 289.702057 78.896007 
L 289.758906 78.914926 
L 289.683107 78.899114 
L 289.266216 78.788989 
L 289.266216 78.78961 
L 289.186628 78.762154 
L 289.156309 78.767124 
L 288.826586 78.658229 
L 288.826586 78.65885 
L 288.724258 78.606495 
L 288.716678 78.607736 
L 288.383166 78.502839 
L 288.383166 78.49938 
L 288.318737 78.465033 
L 288.273258 78.468387 
L 287.928375 78.360617 
L 287.928375 78.361237 
L 287.818468 78.33824 
L 287.507695 78.228371 
L 287.507695 78.22899 
L 287.431896 78.196154 
L 287.397787 78.201721 
L 287.223451 78.114316 
L 287.223451 78.094337 
L 287.196921 78.094541 
L 287.113543 78.079281 
L 286.742131 77.969898 
L 286.742131 77.970515 
L 286.632224 77.876675 
L 286.162274 77.765787 
L 286.162274 77.766403 
L 286.094056 77.719284 
L 286.052366 77.721898 
L 285.737803 77.618248 
L 285.737803 77.614693 
L 285.669585 77.584039 
L 285.627896 77.58663 
L 285.161736 77.477656 
L 285.161736 77.478271 
L 285.101097 77.442008 
L 285.051828 77.445808 
L 284.687996 77.340422 
L 284.687996 77.336831 
L 284.585668 77.281875 
L 284.578089 77.283103 
L 284.301425 77.175516 
L 284.301425 77.17613 
L 284.191517 77.147461 
L 283.911063 77.039917 
L 283.911063 77.040529 
L 283.827685 76.9862 
L 283.801156 76.986243 
L 283.475223 76.876891 
L 283.475223 76.877503 
L 283.369105 76.839318 
L 283.365315 76.839929 
L 282.895365 76.736033 
L 282.895365 76.732373 
L 282.785458 76.694538 
L 282.323088 76.584272 
L 282.323088 76.584882 
L 282.23592 76.556004 
L 282.21318 76.559667 
L 281.788709 76.455382 
L 281.788709 76.451684 
L 281.709121 76.412774 
L 281.678802 76.417654 
L 281.413508 76.308603 
L 281.413508 76.309212 
L 281.30739 76.287349 
L 281.3036 76.287959 
L 280.882919 76.177279 
L 280.882919 76.177887 
L 280.776802 76.164543 
L 280.84881 76.179028 
L 280.773012 76.165152 
L 280.227264 76.056379 
L 280.227264 76.056988 
L 280.121146 76.008578 
L 280.117356 76.009187 
L 279.93923 75.901672 
L 279.93923 75.90228 
L 279.836902 75.853022 
L 279.829322 75.854237 
L 279.446541 75.743868 
L 279.446541 75.744475 
L 279.348003 75.707503 
L 279.336633 75.709323 
L 279.207776 75.606085 
L 279.207776 75.602286 
L 279.097868 75.544903 
L 278.665818 75.436521 
L 278.665818 75.437126 
L 278.5597 75.396491 
L 278.55591 75.397095 
L 278.256507 75.293392 
L 278.256507 75.289554 
L 278.146599 75.26262 
L 277.722128 75.15592 
L 277.722128 75.152062 
L 277.64254 75.133492 
L 277.612221 75.138317 
L 277.415145 75.043943 
L 277.415145 75.031126 
L 277.327977 75.004697 
L 277.305237 75.00831 
L 276.884556 74.899619 
L 276.884556 74.900221 
L 276.778439 74.863133 
L 276.774649 74.863735 
L 276.327439 74.753911 
L 276.327439 74.754513 
L 276.25922 74.724705 
L 276.217531 74.726801 
L 275.80822 74.623716 
L 275.80822 74.619786 
L 275.698312 74.596405 
L 275.311741 74.488973 
L 275.311741 74.489574 
L 275.266262 74.492228 
L 275.201833 74.475121 
L 274.940329 74.365461 
L 274.940329 74.366061 
L 274.830421 74.310356 
L 274.159606 74.200484 
L 274.159606 74.201083 
L 274.049698 74.14953 
L 273.606278 74.039351 
L 273.606278 74.03995 
L 273.50016 73.918139 
L 273.49637 73.918736 
L 273.215916 73.809544 
L 273.215916 73.81014 
L 273.109799 73.757268 
L 273.106009 73.757863 
L 272.545101 73.650132 
L 272.545101 73.650728 
L 272.438983 73.588138 
L 272.435194 73.588733 
L 272.075151 73.48578 
L 272.075151 73.481695 
L 271.965244 73.438061 
L 271.605202 73.329659 
L 271.605202 73.330252 
L 271.499084 73.309259 
L 271.495294 73.309853 
L 270.987445 73.204994 
L 270.987445 73.200866 
L 270.881327 73.151331 
L 270.877538 73.151924 
L 270.676672 73.050232 
L 270.676672 73.04135 
L 270.608453 72.990383 
L 270.566764 72.996884 
L 270.218092 72.88917 
L 270.218092 72.88976 
L 270.119554 72.852762 
L 270.108184 72.854532 
L 269.816361 72.746794 
L 269.816361 72.747383 
L 269.706453 72.692814 
L 269.266823 72.583337 
L 269.266823 72.583925 
L 269.156915 72.53859 
L 268.793083 72.430891 
L 268.793083 72.431479 
L 268.694545 72.3648 
L 268.683175 72.366559 
L 268.198066 72.262239 
L 268.198066 72.257984 
L 268.129847 72.210404 
L 268.088158 72.216848 
L 267.940352 72.1081 
L 267.940352 72.108685 
L 267.830444 72.09163 
L 267.360494 71.983354 
L 267.360494 71.983939 
L 267.261956 71.960085 
L 267.250587 71.961837 
L 266.992872 71.854283 
L 266.992872 71.854866 
L 266.886755 71.787918 
L 266.882965 71.788501 
L 266.602511 71.67884 
L 266.602511 71.679422 
L 266.492603 71.597913 
L 266.280368 71.48692 
L 266.280368 71.487499 
L 266.17804 71.443909 
L 266.17046 71.445066 
L 265.507225 71.337874 
L 265.507225 71.338453 
L 265.401107 71.290111 
L 265.397317 71.290689 
L 265.090334 71.182708 
L 265.090334 71.183286 
L 264.999376 71.157273 
L 264.980426 71.16016 
L 264.593855 71.053633 
L 264.593855 71.049207 
L 264.491527 70.964631 
L 264.483947 70.965782 
L 264.317191 70.87015 
L 264.317191 70.855665 
L 264.237602 70.842613 
L 264.207283 70.847207 
L 263.847241 70.740138 
L 263.847241 70.740711 
L 263.741123 70.671024 
L 263.737333 70.671597 
L 263.506148 70.564453 
L 263.506148 70.565024 
L 263.456879 70.542093 
L 263.396241 70.546174 
L 262.945241 70.436052 
L 262.945241 70.436623 
L 262.858072 70.393823 
L 262.835333 70.397247 
L 262.50182 70.288913 
L 262.50182 70.289483 
L 262.418442 70.250963 
L 262.391913 70.25495 
L 262.084929 70.147019 
L 262.084929 70.147587 
L 261.993971 70.109979 
L 261.975022 70.112821 
L 261.766576 70.004869 
L 261.766576 70.005436 
L 261.702148 69.963657 
L 261.656669 69.970456 
L 261.281467 69.86106 
L 261.281467 69.861626 
L 261.171559 69.81089 
L 260.67129 69.7037 
L 260.67129 69.704265 
L 260.610652 69.67697 
L 260.561383 69.679121 
L 260.383256 69.575105 
L 260.383256 69.570464 
L 260.326408 69.552886 
L 260.273349 69.555568 
L 259.909517 69.452561 
L 259.909517 69.447898 
L 259.799609 69.401467 
L 259.397878 69.298013 
L 259.397878 69.293325 
L 259.30313 69.228554 
L 259.28797 69.230797 
L 258.8635 69.124489 
L 258.8635 69.119773 
L 258.761172 69.066256 
L 258.753592 69.067375 
L 258.484508 68.95839 
L 258.484508 68.958948 
L 258.435239 68.96091 
L 258.3746 68.948648 
L 258.048667 68.847437 
L 258.048667 68.842677 
L 257.969079 68.817151 
L 258.010768 68.842936 
L 257.93876 68.82161 
L 257.582508 68.713506 
L 257.582508 68.714063 
L 257.47639 68.66019 
L 257.4726 68.660746 
L 257.02539 68.554383 
L 257.02539 68.554939 
L 256.923062 68.494756 
L 256.915482 68.495865 
L 256.707037 68.385929 
L 256.707037 68.386482 
L 256.597129 68.332468 
L 256.237087 68.22235 
L 256.237087 68.222901 
L 256.130969 68.184219 
L 256.199188 68.223008 
L 256.127179 68.18477 
L 255.933894 68.082196 
L 255.933894 68.077319 
L 255.827776 68.04384 
L 255.823986 68.04439 
L 255.467734 67.937648 
L 255.467734 67.938197 
L 255.361616 67.893564 
L 255.357826 67.894112 
L 255.111482 67.792572 
L 255.111482 67.787648 
L 255.009154 67.725769 
L 255.001574 67.726861 
L 254.429296 67.616576 
L 254.429296 67.617122 
L 254.326969 67.57128 
L 254.319389 67.57237 
L 254.065464 67.464879 
L 254.065464 67.465423 
L 253.978296 67.433718 
L 253.955557 67.43698 
L 253.500767 67.335448 
L 253.500767 67.33044 
L 253.390859 67.218377 
L 253.038397 67.117747 
L 253.038397 67.112708 
L 252.928489 67.072549 
L 252.492649 66.966174 
L 252.492649 66.966714 
L 252.386531 66.886414 
L 252.382741 66.886952 
L 251.867312 66.779471 
L 251.867312 66.780008 
L 251.806674 66.732185 
L 251.757405 66.733517 
L 251.264715 66.627346 
L 251.264715 66.627883 
L 251.169968 66.550499 
L 251.154808 66.552639 
L 250.862984 66.445429 
L 250.862984 66.445963 
L 250.760656 66.380596 
L 250.753077 66.381662 
L 250.427144 66.272725 
L 250.427144 66.273257 
L 250.385455 66.273387 
L 250.317236 66.24862 
L 249.926875 66.14221 
L 249.926875 66.142741 
L 249.820757 66.100106 
L 249.816967 66.100636 
L 249.396286 65.99756 
L 249.396286 65.992315 
L 249.301538 65.970889 
L 249.286379 65.973007 
L 248.839168 65.872767 
L 248.839168 65.867493 
L 248.736841 65.783032 
L 248.729261 65.784086 
L 248.460177 65.681292 
L 248.460177 65.675991 
L 248.407118 65.636712 
L 248.350269 65.63876 
L 248.073605 65.530493 
L 248.073605 65.531017 
L 247.963697 65.470098 
L 247.622605 65.369932 
L 247.622605 65.364577 
L 247.524067 65.354634 
L 247.512697 65.356201 
L 247.175395 65.248925 
L 247.175395 65.249446 
L 247.099596 65.189004 
L 247.065487 65.193686 
L 246.731974 65.090947 
L 246.731974 65.085538 
L 246.622067 65.053137 
L 246.292344 64.949106 
L 246.292344 64.94367 
L 246.186226 64.89858 
L 246.182436 64.899097 
L 245.924722 64.82031 
L 245.924722 64.790946 
L 245.818604 64.739581 
L 245.814814 64.740095 
L 245.583629 64.645115 
L 245.583629 64.63363 
L 245.473722 64.594478 
L 245.223587 64.483403 
L 245.223587 64.483914 
L 245.121259 64.461557 
L 245.11368 64.462579 
L 244.893864 64.364917 
L 244.893864 64.353341 
L 244.783957 64.265272 
L 244.469394 64.155285 
L 244.469394 64.155791 
L 244.359486 64.127943 
L 243.874377 64.021598 
L 243.874377 64.022103 
L 243.772049 63.986877 
L 243.764469 63.987887 
L 243.294519 63.884588 
L 243.294519 63.878955 
L 243.230091 63.838397 
L 243.184612 63.844438 
L 242.851099 63.734334 
L 242.851099 63.734836 
L 242.748771 63.686704 
L 242.741191 63.687707 
L 242.36599 63.58842 
L 242.36599 63.582726 
L 242.256082 63.504235 
L 241.922569 63.398465 
L 241.922569 63.398963 
L 241.816452 63.350612 
L 241.812662 63.351109 
L 241.44883 63.242198 
L 241.44883 63.242694 
L 241.346502 63.199755 
L 241.338922 63.200745 
L 240.910661 63.093029 
L 240.910661 63.093523 
L 240.819703 63.036179 
L 240.800754 63.038645 
L 240.353544 62.938623 
L 240.353544 62.932795 
L 240.255006 62.901322 
L 240.292905 62.934351 
L 240.243636 62.902798 
L 239.948022 62.794865 
L 239.948022 62.795356 
L 239.849485 62.776357 
L 239.838115 62.777828 
L 239.212778 62.667102 
L 239.212778 62.667592 
L 239.12182 62.621815 
L 239.102871 62.624261 
L 238.803467 62.515029 
L 238.803467 62.515516 
L 238.704929 62.470411 
L 238.69356 62.471872 
L 238.20845 62.366291 
L 238.20845 62.366777 
L 238.132652 62.331307 
L 238.098543 62.33568 
L 237.821879 62.228281 
L 237.821879 62.228765 
L 237.730921 62.195007 
L 237.711971 62.197426 
L 237.416358 62.091714 
L 237.416358 62.092197 
L 237.30645 62.021523 
L 237.014626 61.914459 
L 237.014626 61.914938 
L 236.916089 61.875081 
L 236.904719 61.876518 
L 236.597735 61.770588 
L 236.597735 61.771065 
L 236.533307 61.739775 
L 236.487828 61.7455 
L 236.184634 61.638336 
L 236.184634 61.638811 
L 236.120206 61.607322 
L 236.074727 61.613026 
L 235.862491 61.506967 
L 235.862491 61.50744 
L 235.756374 61.461108 
L 235.752584 61.461581 
L 235.445601 61.353372 
L 235.445601 61.353843 
L 235.350853 61.305766 
L 235.335693 61.307647 
L 234.695197 61.19979 
L 234.695197 61.20026 
L 234.642138 61.153269 
L 234.585289 61.160307 
L 234.327575 61.057494 
L 234.327575 61.051242 
L 234.217667 60.990812 
L 233.861415 60.885808 
L 233.861415 60.886273 
L 233.759087 60.831234 
L 233.751508 60.832162 
L 233.421785 60.722962 
L 233.421785 60.723424 
L 233.319457 60.695166 
L 233.311877 60.69609 
L 232.830558 60.590829 
L 232.830558 60.59129 
L 232.762339 60.558618 
L 232.72065 60.563685 
L 232.148373 60.45462 
L 232.148373 60.45508 
L 232.049835 60.432673 
L 232.038465 60.434052 
L 231.390389 60.32596 
L 231.390389 60.326419 
L 231.390389 60.319501 
L 231.284271 60.332369 
L 231.280481 60.325905 
L 230.840851 60.219104 
L 230.840851 60.219562 
L 230.734733 60.190646 
L 230.730943 60.191105 
L 230.120767 60.082825 
L 230.120767 60.083283 
L 230.010859 60.033474 
L 229.609128 59.926777 
L 229.609128 59.927232 
L 229.5068 59.876107 
L 229.49922 59.877016 
L 228.980002 59.769116 
L 228.980002 59.769569 
L 228.870094 59.725985 
L 228.218228 59.618305 
L 228.218228 59.618757 
L 228.12348 59.56576 
L 228.108321 59.567564 
L 227.68385 59.459963 
L 227.68385 59.460413 
L 227.573942 59.430349 
L 227.335178 59.321389 
L 227.335178 59.321836 
L 227.22527 59.269877 
L 226.455917 59.171694 
L 226.455917 59.164871 
L 226.391488 59.121537 
L 226.346009 59.126881 
L 226.054185 59.02215 
L 226.054185 59.022594 
L 226.054185 59.015292 
L 225.944278 59.028162 
L 225.481908 58.920661 
L 225.481908 58.921104 
L 225.440219 58.90394 
L 225.372 58.904559 
L 224.644336 58.797321 
L 224.644336 58.797764 
L 224.534429 58.758739 
L 223.640008 58.654218 
L 223.640008 58.654661 
L 223.57179 58.640189 
L 223.530101 58.645053 
L 223.166269 58.537068 
L 223.166269 58.537508 
L 223.063941 58.489263 
L 223.056361 58.490143 
L 222.548512 58.382645 
L 222.548512 58.383084 
L 222.506823 58.357654 
L 222.438604 58.365541 
L 221.991394 58.257435 
L 221.991394 58.257872 
L 221.881487 58.194423 
L 221.445646 58.091338 
L 221.445646 58.084121 
L 221.335738 58.050763 
L 220.831679 57.946608 
L 220.831679 57.947041 
L 220.725562 57.897485 
L 220.721772 57.897916 
L 220.160864 57.791101 
L 220.160864 57.791532 
L 220.050956 57.757437 
L 219.717444 57.646909 
L 219.717444 57.647337 
L 219.615116 57.61988 
L 219.607536 57.620734 
L 219.296763 57.514536 
L 219.296763 57.514961 
L 219.202015 57.486404 
L 219.186855 57.488103 
L 218.913981 57.384676 
L 218.913981 57.377232 
L 218.804074 57.31861 
L 218.637317 57.210461 
L 218.637317 57.210879 
L 218.565309 57.195129 
L 218.52741 57.199313 
L 218.262116 57.093512 
L 218.262116 57.093928 
L 218.167368 57.001125 
L 218.152208 57.002781 
L 217.811115 56.896263 
L 217.811115 56.896675 
L 217.735317 56.872996 
L 217.701208 56.876701 
L 217.413174 56.77154 
L 217.413174 56.771949 
L 217.307056 56.671119 
L 217.303266 56.671526 
L 217.056922 56.568889 
L 217.056922 56.561243 
L 216.947014 56.468183 
L 216.738569 56.360608 
L 216.738569 56.361007 
L 216.636241 56.298936 
L 216.628661 56.299732 
L 216.416426 56.191784 
L 216.416426 56.192179 
L 216.340627 56.143192 
L 216.306518 56.14674 
L 215.984375 56.049425 
L 215.984375 56.041654 
L 215.897207 56.001657 
L 215.874468 56.004005 
L 215.559904 55.905002 
L 215.559904 55.897187 
L 215.465157 55.833006 
L 215.449997 55.834556 
L 215.199862 55.728 
L 215.199862 55.728385 
L 215.093745 55.623629 
L 215.089955 55.624011 
L 214.85498 55.514928 
L 214.85498 55.515307 
L 214.748862 55.409832 
L 214.745072 55.410209 
L 214.551786 55.304344 
L 214.551786 55.304718 
L 214.453249 55.25615 
L 214.441879 55.257268 
L 214.256173 55.149969 
L 214.256173 55.15034 
L 214.169005 55.108695 
L 214.146265 55.110909 
L 213.824122 55.007755 
L 213.824122 55.008122 
L 213.733164 54.874018 
L 213.714215 54.875834 
L 213.520929 54.767555 
L 213.520929 54.767916 
L 213.426181 54.675581 
L 213.411021 54.677012 
L 213.187416 54.570744 
L 213.187416 54.571099 
L 213.119198 54.543569 
L 213.077509 54.547469 
L 212.823584 54.451821 
L 212.823584 54.443662 
L 212.728836 54.409867 
L 212.713677 54.411273 
L 212.520391 54.300747 
L 212.520391 54.301095 
L 212.437013 54.257441 
L 212.410483 54.259873 
L 212.232357 54.164409 
L 212.232357 54.156175 
L 212.122449 54.088867 
L 211.781357 53.981502 
L 211.781357 53.981842 
L 211.679029 53.904654 
L 211.671449 53.905331 
L 211.478164 53.80102 
L 211.478164 53.801355 
L 211.383416 53.705636 
L 211.368256 53.706966 
L 211.17497 53.619239 
L 211.17497 53.602163 
L 211.072642 53.558792 
L 211.065063 53.559449 
L 210.818718 53.449441 
L 210.818718 53.449766 
L 210.70881 53.39794 
L 210.477625 53.294539 
L 210.477625 53.29486 
L 210.394247 53.266776 
L 210.367718 53.269023 
L 210.170642 53.162033 
L 210.170642 53.162351 
L 210.079684 53.125856 
L 210.060734 53.127442 
L 209.689323 53.043093 
L 209.689323 53.016803 
L 209.624894 52.977774 
L 209.579415 52.981537 
L 209.33307 52.885899 
L 209.33307 52.877301 
L 209.242112 52.858014 
L 209.223163 52.859567 
L 208.90102 52.751474 
L 208.90102 52.751782 
L 208.806272 52.71466 
L 208.791112 52.715888 
L 208.506868 52.612731 
L 208.506868 52.613035 
L 208.400751 52.567499 
L 208.396961 52.567802 
L 208.093767 52.465221 
L 208.093767 52.465522 
L 207.999019 52.409639 
L 207.98386 52.410834 
L 207.741305 52.302513 
L 207.741305 52.302809 
L 207.646557 52.273813 
L 207.631397 52.274994 
L 207.422952 52.172361 
L 207.422952 52.172653 
L 207.358523 52.131948 
L 207.313044 52.135441 
L 207.05154 52.026955 
L 207.05154 52.027243 
L 206.953002 51.915343 
L 206.941633 51.916197 
L 206.539901 51.82622 
L 206.539901 51.808036 
L 206.429994 51.742246 
L 206.111641 51.654176 
L 206.111641 51.635882 
L 206.016893 51.596331 
L 206.001733 51.597434 
L 205.6758 51.490303 
L 205.6758 51.490576 
L 205.592422 51.449853 
L 205.565893 51.451756 
L 205.372607 51.343539 
L 205.372607 51.343807 
L 205.274069 51.266298 
L 205.262699 51.267096 
L 204.993615 51.172719 
L 204.993615 51.163557 
L 204.883707 51.114566 
L 204.648733 51.016976 
L 204.648733 51.007764 
L 204.588094 50.983469 
L 204.538825 50.986819 
L 204.065085 50.885512 
L 204.065085 50.876232 
L 203.955178 50.80724 
L 203.667144 50.70167 
L 203.667144 50.70192 
L 203.602715 50.648588 
L 203.557236 50.651564 
L 203.212354 50.548655 
L 203.212354 50.5489 
L 203.140345 50.476327 
L 203.102446 50.478755 
L 202.681765 50.369704 
L 202.681765 50.369944 
L 202.609757 50.345348 
L 202.571858 50.34774 
L 202.295194 50.238206 
L 202.295194 50.238442 
L 202.200446 50.205263 
L 202.185286 50.206203 
L 201.53721 50.098783 
L 201.53721 50.099016 
L 201.453832 50.054845 
L 201.427303 50.056463 
L 200.923244 49.948293 
L 200.923244 49.948521 
L 200.923244 49.938597 
L 200.813336 49.945215 
L 200.460874 49.836634 
L 200.460874 49.836859 
L 200.350966 49.783433 
L 200.248639 49.679132 
L 200.248639 49.679352 
L 200.138731 49.625556 
L 199.824168 49.542807 
L 199.824168 49.522879 
L 199.74079 49.457016 
L 199.71426 49.458502 
L 199.403487 49.364375 
L 199.403487 49.354454 
L 199.403487 49.344322 
L 199.293579 49.350379 
L 198.78952 49.245512 
L 198.78952 49.245718 
L 198.709932 49.198965 
L 198.679613 49.200601 
L 198.205873 49.09249 
L 198.205873 49.092692 
L 198.111125 49.025657 
L 198.095966 49.026453 
L 197.724554 48.921688 
L 197.724554 48.921884 
L 197.652545 48.863437 
L 197.614646 48.865373 
L 196.890772 48.756119 
L 196.890772 48.75631 
L 196.811184 48.718443 
L 196.780864 48.719959 
L 196.280595 48.61851 
L 196.280595 48.618697 
L 196.182057 48.570782 
L 196.170688 48.571337 
L 195.492292 48.466171 
L 195.492292 48.466353 
L 195.431654 48.437304 
L 195.382385 48.439658 
L 195.060242 48.347901 
L 195.060242 48.337371 
L 194.980653 48.298226 
L 194.950334 48.299636 
L 194.567552 48.198823 
L 194.567552 48.198996 
L 194.563763 48.177608 
L 194.457645 48.182429 
L 194.23783 48.073208 
L 194.23783 48.073377 
L 194.165821 48.033215 
L 194.127922 48.034884 
L 193.544275 47.929526 
L 193.544275 47.92969 
L 193.544275 47.918761 
L 193.434367 47.923499 
L 193.006107 47.831922 
L 193.006107 47.821079 
L 193.006107 47.810074 
L 192.896199 47.814707 
L 192.248123 47.708852 
L 192.248123 47.709009 
L 192.160955 47.668122 
L 192.138215 47.669053 
L 191.45982 47.56226 
L 191.45982 47.562412 
L 191.353703 47.521704 
L 191.349913 47.521854 
L 190.641198 47.41395 
L 190.641198 47.414097 
L 190.53887 47.395344 
L 190.531291 47.395636 
L 189.682349 47.290801 
L 189.682349 47.290944 
L 189.63308 47.269815 
L 189.572441 47.272093 
L 188.829618 47.17241 
L 188.829618 47.172549 
L 188.806878 47.150145 
L 188.71971 47.153331 
L 187.969306 47.051724 
L 187.969306 47.051859 
L 187.938987 47.029435 
L 187.859399 47.032259 
L 186.90055 46.923686 
L 186.90055 46.923817 
L 186.87023 46.901027 
L 186.790642 46.903766 
L 186.41165 46.79682 
L 186.41165 46.796946 
L 186.309323 46.752295 
L 186.301743 46.752544 
L 185.657457 46.652533 
L 185.657457 46.652654 
L 185.551339 46.631753 
L 185.547549 46.631873 
L 185.130658 46.522892 
L 185.130658 46.523008 
L 185.032121 46.440353 
L 185.020751 46.440688 
L 183.762498 46.341396 
L 183.762498 46.341504 
L 183.758708 46.329054 
L 183.652591 46.332197 
L 183.171271 46.233011 
L 183.171271 46.233115 
L 183.171271 46.220559 
L 183.061364 46.223574 
L 182.075985 46.123492 
L 182.075985 46.123593 
L 182.049456 46.086039 
L 181.966077 46.088215 
L 180.264405 45.98989 
L 180.264405 45.989987 
L 180.207556 45.952189 
L 180.154497 45.953513 
L 178.721908 45.843012 
L 178.721908 45.843103 
L 178.65369 45.804615 
L 178.612001 45.805594 
L 177.622832 45.706918 
L 177.622832 45.707003 
L 177.619042 45.693423 
L 177.512925 45.695876 
L 176.675353 45.590841 
L 176.675353 45.590921 
L 176.580605 45.551549 
L 176.565445 45.551862 
L 175.545958 45.4471 
L 175.545958 45.447174 
L 175.545958 45.433162 
L 175.43605 45.435283 
L 173.529722 45.328752 
L 173.529722 45.328822 
L 173.423604 45.287371 
L 173.419814 45.287438 
L 169.061409 45.184383 
L 169.061409 45.184449 
L 169.061409 45.168971 
L 168.951501 45.170855 
L 166.73061 45.06563 
L 166.73061 45.065691 
L 166.658601 45.018537 
L 166.620702 45.019118 
L 165.570895 44.920623 
L 165.570895 44.920676 
L 165.570895 44.904263 
L 165.460988 44.905772 
L 164.115567 44.806866 
L 164.115567 44.806913 
L 164.115567 44.790076 
L 164.005659 44.791409 
L 159.150775 44.690076 
L 159.150775 44.690119 
L 159.048447 44.654375 
L 159.040868 44.654457 
L 155.091774 44.560599 
L 155.091774 44.560636 
L 155.091774 44.540684 
L 154.981866 44.541708 
L 153.879 44.449899 
L 153.879 44.449928 
L 153.825941 44.388841 
L 153.769093 44.389205 
L 147.375502 44.294342 
L 147.375502 44.294361 
L 147.356553 44.24704 
L 147.265595 44.247404 
L 130.06316 44.162115 
L 130.06316 44.162128 
L 130.06316 44.121541 
L 129.953252 44.121725 
L 105.712941 44.080941 
L 105.712941 44.080941 
" clip-path="url(#pf224d7d2a6)" style="fill: none; stroke: #1f77b4; stroke-width: 3; stroke-linecap: square"/>
   </g>
   <g id="patch_3">
    <path d="M 103.104 307.584 
L 103.104 41.472 
" style="fill: none; stroke: #000000; stroke-width: 3; stroke-linejoin: miter; stroke-linecap: square"/>
   </g>
   <g id="patch_4">
    <path d="M 369.216 307.584 
L 369.216 41.472 
" style="fill: none; stroke: #000000; stroke-width: 3; stroke-linejoin: miter; stroke-linecap: square"/>
   </g>
   <g id="patch_5">
    <path d="M 103.104 307.584 
L 369.216 307.584 
" style="fill: none; stroke: #000000; stroke-width: 3; stroke-linejoin: miter; stroke-linecap: square"/>
   </g>
   <g id="patch_6">
    <path d="M 103.104 41.472 
L 369.216 41.472 
" style="fill: none; stroke: #000000; stroke-width: 3; stroke-linejoin: miter; stroke-linecap: square"/>
   </g>
   <g id="text_15">
    <!-- Precision-Recall Curve for X_train -->
    <g transform="translate(86.788125 35.472) scale(0.18 -0.18)">
     <defs>
      <path id="DejaVuSans-2d" d="M 313 2009 
L 1997 2009 
L 1997 1497 
L 313 1497 
L 313 2009 
z
" transform="scale(0.015625)"/>
      <path id="DejaVuSans-43" d="M 4122 4306 
L 4122 3641 
Q 3803 3938 3442 4084 
Q 3081 4231 2675 4231 
Q 1875 4231 1450 3742 
Q 1025 3253 1025 2328 
Q 1025 1406 1450 917 
Q 1875 428 2675 428 
Q 3081 428 3442 575 
Q 3803 722 4122 1019 
L 4122 359 
Q 3791 134 3420 21 
Q 3050 -91 2638 -91 
Q 1578 -91 968 557 
Q 359 1206 359 2328 
Q 359 3453 968 4101 
Q 1578 4750 2638 4750 
Q 3056 4750 3426 4639 
Q 3797 4528 4122 4306 
z
" transform="scale(0.015625)"/>
      <path id="DejaVuSans-75" d="M 544 1381 
L 544 3500 
L 1119 3500 
L 1119 1403 
Q 1119 906 1312 657 
Q 1506 409 1894 409 
Q 2359 409 2629 706 
Q 2900 1003 2900 1516 
L 2900 3500 
L 3475 3500 
L 3475 0 
L 2900 0 
L 2900 538 
Q 2691 219 2414 64 
Q 2138 -91 1772 -91 
Q 1169 -91 856 284 
Q 544 659 544 1381 
z
M 1991 3584 
L 1991 3584 
z
" transform="scale(0.015625)"/>
      <path id="DejaVuSans-66" d="M 2375 4863 
L 2375 4384 
L 1825 4384 
Q 1516 4384 1395 4259 
Q 1275 4134 1275 3809 
L 1275 3500 
L 2222 3500 
L 2222 3053 
L 1275 3053 
L 1275 0 
L 697 0 
L 697 3053 
L 147 3053 
L 147 3500 
L 697 3500 
L 697 3744 
Q 697 4328 969 4595 
Q 1241 4863 1831 4863 
L 2375 4863 
z
" transform="scale(0.015625)"/>
      <path id="DejaVuSans-58" d="M 403 4666 
L 1081 4666 
L 2241 2931 
L 3406 4666 
L 4084 4666 
L 2584 2425 
L 4184 0 
L 3506 0 
L 2194 1984 
L 872 0 
L 191 0 
L 1856 2491 
L 403 4666 
z
" transform="scale(0.015625)"/>
      <path id="DejaVuSans-5f" d="M 3263 -1063 
L 3263 -1509 
L -63 -1509 
L -63 -1063 
L 3263 -1063 
z
" transform="scale(0.015625)"/>
     </defs>
     <use xlink:href="#DejaVuSans-50"/>
     <use xlink:href="#DejaVuSans-72" transform="translate(58.552734 0)"/>
     <use xlink:href="#DejaVuSans-65" transform="translate(97.416016 0)"/>
     <use xlink:href="#DejaVuSans-63" transform="translate(158.939453 0)"/>
     <use xlink:href="#DejaVuSans-69" transform="translate(213.919922 0)"/>
     <use xlink:href="#DejaVuSans-73" transform="translate(241.703125 0)"/>
     <use xlink:href="#DejaVuSans-69" transform="translate(293.802734 0)"/>
     <use xlink:href="#DejaVuSans-6f" transform="translate(321.585938 0)"/>
     <use xlink:href="#DejaVuSans-6e" transform="translate(382.767578 0)"/>
     <use xlink:href="#DejaVuSans-2d" transform="translate(446.146484 0)"/>
     <use xlink:href="#DejaVuSans-52" transform="translate(482.230469 0)"/>
     <use xlink:href="#DejaVuSans-65" transform="translate(547.212891 0)"/>
     <use xlink:href="#DejaVuSans-63" transform="translate(608.736328 0)"/>
     <use xlink:href="#DejaVuSans-61" transform="translate(663.716797 0)"/>
     <use xlink:href="#DejaVuSans-6c" transform="translate(724.996094 0)"/>
     <use xlink:href="#DejaVuSans-6c" transform="translate(752.779297 0)"/>
     <use xlink:href="#DejaVuSans-20" transform="translate(780.5625 0)"/>
     <use xlink:href="#DejaVuSans-43" transform="translate(812.349609 0)"/>
     <use xlink:href="#DejaVuSans-75" transform="translate(882.173828 0)"/>
     <use xlink:href="#DejaVuSans-72" transform="translate(945.552734 0)"/>
     <use xlink:href="#DejaVuSans-76" transform="translate(986.666016 0)"/>
     <use xlink:href="#DejaVuSans-65" transform="translate(1045.845703 0)"/>
     <use xlink:href="#DejaVuSans-20" transform="translate(1107.369141 0)"/>
     <use xlink:href="#DejaVuSans-66" transform="translate(1139.15625 0)"/>
     <use xlink:href="#DejaVuSans-6f" transform="translate(1174.361328 0)"/>
     <use xlink:href="#DejaVuSans-72" transform="translate(1235.542969 0)"/>
     <use xlink:href="#DejaVuSans-20" transform="translate(1276.65625 0)"/>
     <use xlink:href="#DejaVuSans-58" transform="translate(1308.443359 0)"/>
     <use xlink:href="#DejaVuSans-5f" transform="translate(1376.949219 0)"/>
     <use xlink:href="#DejaVuSans-74" transform="translate(1426.949219 0)"/>
     <use xlink:href="#DejaVuSans-72" transform="translate(1466.158203 0)"/>
     <use xlink:href="#DejaVuSans-61" transform="translate(1507.271484 0)"/>
     <use xlink:href="#DejaVuSans-69" transform="translate(1568.550781 0)"/>
     <use xlink:href="#DejaVuSans-6e" transform="translate(1596.333984 0)"/>
    </g>
   </g>
   <g id="legend_1">
    <g id="patch_7">
     <path d="M 110.104 302.584 
L 304.477125 302.584 
Q 306.477125 302.584 306.477125 300.584 
L 306.477125 284.97025 
Q 306.477125 282.97025 304.477125 282.97025 
L 110.104 282.97025 
Q 108.104 282.97025 108.104 284.97025 
L 108.104 300.584 
Q 108.104 302.584 110.104 302.584 
z
" style="fill: #ffffff; opacity: 0.8; stroke: #cccccc; stroke-width: 3; stroke-linejoin: miter"/>
    </g>
    <g id="line2d_14">
     <path d="M 112.104 292.588375 
L 122.104 292.588375 
L 122.104 292.588375 
L 132.104 292.588375 
L 132.104 292.588375 
" style="fill: none; stroke: #1f77b4; stroke-width: 1.5; stroke-linecap: square"/>
    </g>
    <g id="text_16">
     <!-- LGBMClassifier (AP = 0.91) -->
     <g transform="translate(140.104 296.088375) scale(0.12 -0.12)">
      <defs>
       <path id="DejaVuSans-4c" d="M 628 4666 
L 1259 4666 
L 1259 531 
L 3531 531 
L 3531 0 
L 628 0 
L 628 4666 
z
" transform="scale(0.015625)"/>
       <path id="DejaVuSans-47" d="M 3809 666 
L 3809 1919 
L 2778 1919 
L 2778 2438 
L 4434 2438 
L 4434 434 
Q 4069 175 3628 42 
Q 3188 -91 2688 -91 
Q 1594 -91 976 548 
Q 359 1188 359 2328 
Q 359 3472 976 4111 
Q 1594 4750 2688 4750 
Q 3144 4750 3555 4637 
Q 3966 4525 4313 4306 
L 4313 3634 
Q 3963 3931 3569 4081 
Q 3175 4231 2741 4231 
Q 1884 4231 1454 3753 
Q 1025 3275 1025 2328 
Q 1025 1384 1454 906 
Q 1884 428 2741 428 
Q 3075 428 3337 486 
Q 3600 544 3809 666 
z
" transform="scale(0.015625)"/>
       <path id="DejaVuSans-42" d="M 1259 2228 
L 1259 519 
L 2272 519 
Q 2781 519 3026 730 
Q 3272 941 3272 1375 
Q 3272 1813 3026 2020 
Q 2781 2228 2272 2228 
L 1259 2228 
z
M 1259 4147 
L 1259 2741 
L 2194 2741 
Q 2656 2741 2882 2914 
Q 3109 3088 3109 3444 
Q 3109 3797 2882 3972 
Q 2656 4147 2194 4147 
L 1259 4147 
z
M 628 4666 
L 2241 4666 
Q 2963 4666 3353 4366 
Q 3744 4066 3744 3513 
Q 3744 3084 3544 2831 
Q 3344 2578 2956 2516 
Q 3422 2416 3680 2098 
Q 3938 1781 3938 1306 
Q 3938 681 3513 340 
Q 3088 0 2303 0 
L 628 0 
L 628 4666 
z
" transform="scale(0.015625)"/>
       <path id="DejaVuSans-4d" d="M 628 4666 
L 1569 4666 
L 2759 1491 
L 3956 4666 
L 4897 4666 
L 4897 0 
L 4281 0 
L 4281 4097 
L 3078 897 
L 2444 897 
L 1241 4097 
L 1241 0 
L 628 0 
L 628 4666 
z
" transform="scale(0.015625)"/>
       <path id="DejaVuSans-41" d="M 2188 4044 
L 1331 1722 
L 3047 1722 
L 2188 4044 
z
M 1831 4666 
L 2547 4666 
L 4325 0 
L 3669 0 
L 3244 1197 
L 1141 1197 
L 716 0 
L 50 0 
L 1831 4666 
z
" transform="scale(0.015625)"/>
       <path id="DejaVuSans-3d" d="M 678 2906 
L 4684 2906 
L 4684 2381 
L 678 2381 
L 678 2906 
z
M 678 1631 
L 4684 1631 
L 4684 1100 
L 678 1100 
L 678 1631 
z
" transform="scale(0.015625)"/>
       <path id="DejaVuSans-39" d="M 703 97 
L 703 672 
Q 941 559 1184 500 
Q 1428 441 1663 441 
Q 2288 441 2617 861 
Q 2947 1281 2994 2138 
Q 2813 1869 2534 1725 
Q 2256 1581 1919 1581 
Q 1219 1581 811 2004 
Q 403 2428 403 3163 
Q 403 3881 828 4315 
Q 1253 4750 1959 4750 
Q 2769 4750 3195 4129 
Q 3622 3509 3622 2328 
Q 3622 1225 3098 567 
Q 2575 -91 1691 -91 
Q 1453 -91 1209 -44 
Q 966 3 703 97 
z
M 1959 2075 
Q 2384 2075 2632 2365 
Q 2881 2656 2881 3163 
Q 2881 3666 2632 3958 
Q 2384 4250 1959 4250 
Q 1534 4250 1286 3958 
Q 1038 3666 1038 3163 
Q 1038 2656 1286 2365 
Q 1534 2075 1959 2075 
z
" transform="scale(0.015625)"/>
      </defs>
      <use xlink:href="#DejaVuSans-4c"/>
      <use xlink:href="#DejaVuSans-47" transform="translate(55.712891 0)"/>
      <use xlink:href="#DejaVuSans-42" transform="translate(133.203125 0)"/>
      <use xlink:href="#DejaVuSans-4d" transform="translate(201.806641 0)"/>
      <use xlink:href="#DejaVuSans-43" transform="translate(288.085938 0)"/>
      <use xlink:href="#DejaVuSans-6c" transform="translate(357.910156 0)"/>
      <use xlink:href="#DejaVuSans-61" transform="translate(385.693359 0)"/>
      <use xlink:href="#DejaVuSans-73" transform="translate(446.972656 0)"/>
      <use xlink:href="#DejaVuSans-73" transform="translate(499.072266 0)"/>
      <use xlink:href="#DejaVuSans-69" transform="translate(551.171875 0)"/>
      <use xlink:href="#DejaVuSans-66" transform="translate(578.955078 0)"/>
      <use xlink:href="#DejaVuSans-69" transform="translate(614.160156 0)"/>
      <use xlink:href="#DejaVuSans-65" transform="translate(641.943359 0)"/>
      <use xlink:href="#DejaVuSans-72" transform="translate(703.466797 0)"/>
      <use xlink:href="#DejaVuSans-20" transform="translate(744.580078 0)"/>
      <use xlink:href="#DejaVuSans-28" transform="translate(776.367188 0)"/>
      <use xlink:href="#DejaVuSans-41" transform="translate(815.380859 0)"/>
      <use xlink:href="#DejaVuSans-50" transform="translate(883.789062 0)"/>
      <use xlink:href="#DejaVuSans-20" transform="translate(944.091797 0)"/>
      <use xlink:href="#DejaVuSans-3d" transform="translate(975.878906 0)"/>
      <use xlink:href="#DejaVuSans-20" transform="translate(1059.667969 0)"/>
      <use xlink:href="#DejaVuSans-30" transform="translate(1091.455078 0)"/>
      <use xlink:href="#DejaVuSans-2e" transform="translate(1155.078125 0)"/>
      <use xlink:href="#DejaVuSans-39" transform="translate(1186.865234 0)"/>
      <use xlink:href="#DejaVuSans-31" transform="translate(1250.488281 0)"/>
      <use xlink:href="#DejaVuSans-29" transform="translate(1314.111328 0)"/>
     </g>
    </g>
   </g>
  </g>
 </g>
 <defs>
  <clipPath id="pf224d7d2a6">
   <rect x="103.104" y="41.472" width="266.112" height="266.112"/>
  </clipPath>
 </defs>
</svg>
