<?xml version="1.0" encoding="utf-8" standalone="no"?>
<!DOCTYPE svg PUBLIC "-//W3C//DTD SVG 1.1//EN"
  "http://www.w3.org/Graphics/SVG/1.1/DTD/svg11.dtd">
<svg xmlns:xlink="http://www.w3.org/1999/xlink" width="864pt" height="648pt" viewBox="0 0 864 648" xmlns="http://www.w3.org/2000/svg" version="1.1">
 <metadata>
  <rdf:RDF xmlns:dc="http://purl.org/dc/elements/1.1/" xmlns:cc="http://creativecommons.org/ns#" xmlns:rdf="http://www.w3.org/1999/02/22-rdf-syntax-ns#">
   <cc:Work>
    <dc:type rdf:resource="http://purl.org/dc/dcmitype/StillImage"/>
    <dc:date>2026-07-05T23:59:32.349172</dc:date>
    <dc:format>image/svg+xml</dc:format>
    <dc:creator>
     <cc:Agent>
      <dc:title>Matplotlib v3.10.0, https://matplotlib.org/</dc:title>
     </cc:Agent>
    </dc:creator>
   </cc:Work>
  </rdf:RDF>
 </metadata>
 <defs>
  <style type="text/css">*{stroke-linejoin: round; stroke-linecap: butt}</style>
 </defs>
 <g id="figure_1">
  <g id="patch_1">
   <path d="M 0 648 
L 864 648 
L 864 0 
L 0 0 
z
" style="fill: #ffffff"/>
  </g>
  <g id="axes_1">
   <g id="patch_2">
    <path d="M 108 576.72 
L 777.6 576.72 
L 777.6 77.76 
L 108 77.76 
z
" style="fill: #ffffff"/>
   </g>
   <g id="patch_3">
    <path d="M 138.436364 576.72 
L 144.523636 576.72 
L 144.523636 101.52 
L 138.436364 101.52 
z
" clip-path="url(#pd5415decad)" style="fill: #1f77b4"/>
   </g>
   <g id="patch_4">
    <path d="M 144.523636 576.72 
L 150.610909 576.72 
L 150.610909 559.028119 
L 144.523636 559.028119 
z
" clip-path="url(#pd5415decad)" style="fill: #1f77b4"/>
   </g>
   <g id="patch_5">
    <path d="M 150.610909 576.72 
L 156.698182 576.72 
L 156.698182 574.924698 
L 150.610909 574.924698 
z
" clip-path="url(#pd5415decad)" style="fill: #1f77b4"/>
   </g>
   <g id="patch_6">
    <path d="M 156.698182 576.72 
L 162.785455 576.72 
L 162.785455 576.282599 
L 156.698182 576.282599 
z
" clip-path="url(#pd5415decad)" style="fill: #1f77b4"/>
   </g>
   <g id="patch_7">
    <path d="M 162.785455 576.72 
L 168.872727 576.72 
L 168.872727 576.165089 
L 162.785455 576.165089 
z
" clip-path="url(#pd5415decad)" style="fill: #1f77b4"/>
   </g>
   <g id="patch_8">
    <path d="M 168.872727 576.72 
L 174.96 576.72 
L 174.96 575.577535 
L 168.872727 575.577535 
z
" clip-path="url(#pd5415decad)" style="fill: #1f77b4"/>
   </g>
   <g id="patch_9">
    <path d="M 174.96 576.72 
L 181.047273 576.72 
L 181.047273 574.976925 
L 174.96 574.976925 
z
" clip-path="url(#pd5415decad)" style="fill: #1f77b4"/>
   </g>
   <g id="patch_10">
    <path d="M 181.047273 576.72 
L 187.134545 576.72 
L 187.134545 573.573326 
L 181.047273 573.573326 
z
" clip-path="url(#pd5415decad)" style="fill: #1f77b4"/>
   </g>
   <g id="patch_11">
    <path d="M 187.134545 576.72 
L 193.221818 576.72 
L 193.221818 571.059904 
L 187.134545 571.059904 
z
" clip-path="url(#pd5415decad)" style="fill: #1f77b4"/>
   </g>
   <g id="patch_12">
    <path d="M 193.221818 576.72 
L 199.309091 576.72 
L 199.309091 566.163627 
L 193.221818 566.163627 
z
" clip-path="url(#pd5415decad)" style="fill: #1f77b4"/>
   </g>
   <g id="patch_13">
    <path d="M 199.309091 576.72 
L 205.396364 576.72 
L 205.396364 553.988218 
L 199.309091 553.988218 
z
" clip-path="url(#pd5415decad)" style="fill: #1f77b4"/>
   </g>
   <g id="patch_14">
    <path d="M 205.396364 576.72 
L 211.483636 576.72 
L 211.483636 532.816717 
L 205.396364 532.816717 
z
" clip-path="url(#pd5415decad)" style="fill: #1f77b4"/>
   </g>
   <g id="patch_15">
    <path d="M 211.483636 576.72 
L 217.570909 576.72 
L 217.570909 508.629108 
L 211.483636 508.629108 
z
" clip-path="url(#pd5415decad)" style="fill: #1f77b4"/>
   </g>
   <g id="patch_16">
    <path d="M 217.570909 576.72 
L 223.658182 576.72 
L 223.658182 499.53509 
L 217.570909 499.53509 
z
" clip-path="url(#pd5415decad)" style="fill: #1f77b4"/>
   </g>
   <g id="patch_17">
    <path d="M 223.658182 576.72 
L 229.745455 576.72 
L 229.745455 514.171694 
L 223.658182 514.171694 
z
" clip-path="url(#pd5415decad)" style="fill: #1f77b4"/>
   </g>
   <g id="patch_18">
    <path d="M 229.745455 576.72 
L 235.832727 576.72 
L 235.832727 538.058997 
L 229.745455 538.058997 
z
" clip-path="url(#pd5415decad)" style="fill: #1f77b4"/>
   </g>
   <g id="patch_19">
    <path d="M 235.832727 576.72 
L 241.92 576.72 
L 241.92 554.654112 
L 235.832727 554.654112 
z
" clip-path="url(#pd5415decad)" style="fill: #1f77b4"/>
   </g>
   <g id="patch_20">
    <path d="M 241.92 576.72 
L 248.007273 576.72 
L 248.007273 564.675159 
L 241.92 564.675159 
z
" clip-path="url(#pd5415decad)" style="fill: #1f77b4"/>
   </g>
   <g id="patch_21">
    <path d="M 248.007273 576.72 
L 254.094545 576.72 
L 254.094545 569.741173 
L 248.007273 569.741173 
z
" clip-path="url(#pd5415decad)" style="fill: #1f77b4"/>
   </g>
   <g id="patch_22">
    <path d="M 254.094545 576.72 
L 260.181818 576.72 
L 260.181818 572.208897 
L 254.094545 572.208897 
z
" clip-path="url(#pd5415decad)" style="fill: #1f77b4"/>
   </g>
   <g id="patch_23">
    <path d="M 260.181818 576.72 
L 266.269091 576.72 
L 266.269091 573.521099 
L 260.181818 573.521099 
z
" clip-path="url(#pd5415decad)" style="fill: #1f77b4"/>
   </g>
   <g id="patch_24">
    <path d="M 266.269091 576.72 
L 272.356364 576.72 
L 272.356364 574.343674 
L 266.269091 574.343674 
z
" clip-path="url(#pd5415decad)" style="fill: #1f77b4"/>
   </g>
   <g id="patch_25">
    <path d="M 272.356364 576.72 
L 278.443636 576.72 
L 278.443636 574.800659 
L 272.356364 574.800659 
z
" clip-path="url(#pd5415decad)" style="fill: #1f77b4"/>
   </g>
   <g id="patch_26">
    <path d="M 278.443636 576.72 
L 284.530909 576.72 
L 284.530909 575.19889 
L 278.443636 575.19889 
z
" clip-path="url(#pd5415decad)" style="fill: #1f77b4"/>
   </g>
   <g id="patch_27">
    <path d="M 284.530909 576.72 
L 290.618182 576.72 
L 290.618182 574.970397 
L 284.530909 574.970397 
z
" clip-path="url(#pd5415decad)" style="fill: #1f77b4"/>
   </g>
   <g id="patch_28">
    <path d="M 290.618182 576.72 
L 296.705455 576.72 
L 296.705455 575.12055 
L 290.618182 575.12055 
z
" clip-path="url(#pd5415decad)" style="fill: #1f77b4"/>
   </g>
   <g id="patch_29">
    <path d="M 296.705455 576.72 
L 302.792727 576.72 
L 302.792727 575.322929 
L 296.705455 575.322929 
z
" clip-path="url(#pd5415decad)" style="fill: #1f77b4"/>
   </g>
   <g id="patch_30">
    <path d="M 302.792727 576.72 
L 308.88 576.72 
L 308.88 575.433911 
L 302.792727 575.433911 
z
" clip-path="url(#pd5415decad)" style="fill: #1f77b4"/>
   </g>
   <g id="patch_31">
    <path d="M 308.88 576.72 
L 314.967273 576.72 
L 314.967273 575.571007 
L 308.88 575.571007 
z
" clip-path="url(#pd5415decad)" style="fill: #1f77b4"/>
   </g>
   <g id="patch_32">
    <path d="M 314.967273 576.72 
L 321.054545 576.72 
L 321.054545 575.388213 
L 314.967273 575.388213 
z
" clip-path="url(#pd5415decad)" style="fill: #1f77b4"/>
   </g>
   <g id="patch_33">
    <path d="M 321.054545 576.72 
L 327.141818 576.72 
L 327.141818 575.629762 
L 321.054545 575.629762 
z
" clip-path="url(#pd5415decad)" style="fill: #1f77b4"/>
   </g>
   <g id="patch_34">
    <path d="M 327.141818 576.72 
L 333.229091 576.72 
L 333.229091 575.47961 
L 327.141818 575.47961 
z
" clip-path="url(#pd5415decad)" style="fill: #1f77b4"/>
   </g>
   <g id="patch_35">
    <path d="M 333.229091 576.72 
L 339.316364 576.72 
L 339.316364 575.642819 
L 333.229091 575.642819 
z
" clip-path="url(#pd5415decad)" style="fill: #1f77b4"/>
   </g>
   <g id="patch_36">
    <path d="M 339.316364 576.72 
L 345.403636 576.72 
L 345.403636 575.668933 
L 339.316364 575.668933 
z
" clip-path="url(#pd5415decad)" style="fill: #1f77b4"/>
   </g>
   <g id="patch_37">
    <path d="M 345.403636 576.72 
L 351.490909 576.72 
L 351.490909 575.871312 
L 345.403636 575.871312 
z
" clip-path="url(#pd5415decad)" style="fill: #1f77b4"/>
   </g>
   <g id="patch_38">
    <path d="M 351.490909 576.72 
L 357.578182 576.72 
L 357.578182 575.871312 
L 351.490909 575.871312 
z
" clip-path="url(#pd5415decad)" style="fill: #1f77b4"/>
   </g>
   <g id="patch_39">
    <path d="M 357.578182 576.72 
L 363.665455 576.72 
L 363.665455 575.943124 
L 357.578182 575.943124 
z
" clip-path="url(#pd5415decad)" style="fill: #1f77b4"/>
   </g>
   <g id="patch_40">
    <path d="M 363.665455 576.72 
L 369.752727 576.72 
L 369.752727 575.871312 
L 363.665455 575.871312 
z
" clip-path="url(#pd5415decad)" style="fill: #1f77b4"/>
   </g>
   <g id="patch_41">
    <path d="M 369.752727 576.72 
L 375.84 576.72 
L 375.84 575.662404 
L 369.752727 575.662404 
z
" clip-path="url(#pd5415decad)" style="fill: #1f77b4"/>
   </g>
   <g id="patch_42">
    <path d="M 375.84 576.72 
L 381.927273 576.72 
L 381.927273 575.642819 
L 375.84 575.642819 
z
" clip-path="url(#pd5415decad)" style="fill: #1f77b4"/>
   </g>
   <g id="patch_43">
    <path d="M 381.927273 576.72 
L 388.014545 576.72 
L 388.014545 575.629762 
L 381.927273 575.629762 
z
" clip-path="url(#pd5415decad)" style="fill: #1f77b4"/>
   </g>
   <g id="patch_44">
    <path d="M 388.014545 576.72 
L 394.101818 576.72 
L 394.101818 575.544894 
L 388.014545 575.544894 
z
" clip-path="url(#pd5415decad)" style="fill: #1f77b4"/>
   </g>
   <g id="patch_45">
    <path d="M 394.101818 576.72 
L 400.189091 576.72 
L 400.189091 575.584064 
L 394.101818 575.584064 
z
" clip-path="url(#pd5415decad)" style="fill: #1f77b4"/>
   </g>
   <g id="patch_46">
    <path d="M 400.189091 576.72 
L 406.276364 576.72 
L 406.276364 575.368628 
L 400.189091 575.368628 
z
" clip-path="url(#pd5415decad)" style="fill: #1f77b4"/>
   </g>
   <g id="patch_47">
    <path d="M 406.276364 576.72 
L 412.363636 576.72 
L 412.363636 575.140135 
L 406.276364 575.140135 
z
" clip-path="url(#pd5415decad)" style="fill: #1f77b4"/>
   </g>
   <g id="patch_48">
    <path d="M 412.363636 576.72 
L 418.450909 576.72 
L 418.450909 575.107493 
L 412.363636 575.107493 
z
" clip-path="url(#pd5415decad)" style="fill: #1f77b4"/>
   </g>
   <g id="patch_49">
    <path d="M 418.450909 576.72 
L 424.538182 576.72 
L 424.538182 574.865943 
L 418.450909 574.865943 
z
" clip-path="url(#pd5415decad)" style="fill: #1f77b4"/>
   </g>
   <g id="patch_50">
    <path d="M 424.538182 576.72 
L 430.625455 576.72 
L 430.625455 575.003039 
L 424.538182 575.003039 
z
" clip-path="url(#pd5415decad)" style="fill: #1f77b4"/>
   </g>
   <g id="patch_51">
    <path d="M 430.625455 576.72 
L 436.712727 576.72 
L 436.712727 574.905113 
L 430.625455 574.905113 
z
" clip-path="url(#pd5415decad)" style="fill: #1f77b4"/>
   </g>
   <g id="patch_52">
    <path d="M 436.712727 576.72 
L 442.8 576.72 
L 442.8 575.100964 
L 436.712727 575.100964 
z
" clip-path="url(#pd5415decad)" style="fill: #1f77b4"/>
   </g>
   <g id="patch_53">
    <path d="M 442.8 576.72 
L 448.887273 576.72 
L 448.887273 575.035681 
L 442.8 575.035681 
z
" clip-path="url(#pd5415decad)" style="fill: #1f77b4"/>
   </g>
   <g id="patch_54">
    <path d="M 448.887273 576.72 
L 454.974545 576.72 
L 454.974545 574.741904 
L 448.887273 574.741904 
z
" clip-path="url(#pd5415decad)" style="fill: #1f77b4"/>
   </g>
   <g id="patch_55">
    <path d="M 454.974545 576.72 
L 461.061818 576.72 
L 461.061818 575.185833 
L 454.974545 575.185833 
z
" clip-path="url(#pd5415decad)" style="fill: #1f77b4"/>
   </g>
   <g id="patch_56">
    <path d="M 461.061818 576.72 
L 467.149091 576.72 
L 467.149091 575.381684 
L 461.061818 575.381684 
z
" clip-path="url(#pd5415decad)" style="fill: #1f77b4"/>
   </g>
   <g id="patch_57">
    <path d="M 467.149091 576.72 
L 473.236364 576.72 
L 473.236364 575.349042 
L 467.149091 575.349042 
z
" clip-path="url(#pd5415decad)" style="fill: #1f77b4"/>
   </g>
   <g id="patch_58">
    <path d="M 473.236364 576.72 
L 479.323636 576.72 
L 479.323636 575.551422 
L 473.236364 575.551422 
z
" clip-path="url(#pd5415decad)" style="fill: #1f77b4"/>
   </g>
   <g id="patch_59">
    <path d="M 479.323636 576.72 
L 485.410909 576.72 
L 485.410909 575.584064 
L 479.323636 575.584064 
z
" clip-path="url(#pd5415decad)" style="fill: #1f77b4"/>
   </g>
   <g id="patch_60">
    <path d="M 485.410909 576.72 
L 491.498182 576.72 
L 491.498182 575.727688 
L 485.410909 575.727688 
z
" clip-path="url(#pd5415decad)" style="fill: #1f77b4"/>
   </g>
   <g id="patch_61">
    <path d="M 491.498182 576.72 
L 497.585455 576.72 
L 497.585455 575.642819 
L 491.498182 575.642819 
z
" clip-path="url(#pd5415decad)" style="fill: #1f77b4"/>
   </g>
   <g id="patch_62">
    <path d="M 497.585455 576.72 
L 503.672727 576.72 
L 503.672727 575.649347 
L 497.585455 575.649347 
z
" clip-path="url(#pd5415decad)" style="fill: #1f77b4"/>
   </g>
   <g id="patch_63">
    <path d="M 503.672727 576.72 
L 509.76 576.72 
L 509.76 575.492667 
L 503.672727 575.492667 
z
" clip-path="url(#pd5415decad)" style="fill: #1f77b4"/>
   </g>
   <g id="patch_64">
    <path d="M 509.76 576.72 
L 515.847273 576.72 
L 515.847273 575.309872 
L 509.76 575.309872 
z
" clip-path="url(#pd5415decad)" style="fill: #1f77b4"/>
   </g>
   <g id="patch_65">
    <path d="M 515.847273 576.72 
L 521.934545 576.72 
L 521.934545 575.185833 
L 515.847273 575.185833 
z
" clip-path="url(#pd5415decad)" style="fill: #1f77b4"/>
   </g>
   <g id="patch_66">
    <path d="M 521.934545 576.72 
L 528.021818 576.72 
L 528.021818 574.702734 
L 521.934545 574.702734 
z
" clip-path="url(#pd5415decad)" style="fill: #1f77b4"/>
   </g>
   <g id="patch_67">
    <path d="M 528.021818 576.72 
L 534.109091 576.72 
L 534.109091 574.265333 
L 528.021818 574.265333 
z
" clip-path="url(#pd5415decad)" style="fill: #1f77b4"/>
   </g>
   <g id="patch_68">
    <path d="M 534.109091 576.72 
L 540.196364 576.72 
L 540.196364 573.031471 
L 534.109091 573.031471 
z
" clip-path="url(#pd5415decad)" style="fill: #1f77b4"/>
   </g>
   <g id="patch_69">
    <path d="M 540.196364 576.72 
L 546.283636 576.72 
L 546.283636 572.23501 
L 540.196364 572.23501 
z
" clip-path="url(#pd5415decad)" style="fill: #1f77b4"/>
   </g>
   <g id="patch_70">
    <path d="M 546.283636 576.72 
L 552.370909 576.72 
L 552.370909 571.210056 
L 546.283636 571.210056 
z
" clip-path="url(#pd5415decad)" style="fill: #1f77b4"/>
   </g>
   <g id="patch_71">
    <path d="M 552.370909 576.72 
L 558.458182 576.72 
L 558.458182 570.413595 
L 552.370909 570.413595 
z
" clip-path="url(#pd5415decad)" style="fill: #1f77b4"/>
   </g>
   <g id="patch_72">
    <path d="M 558.458182 576.72 
L 564.545455 576.72 
L 564.545455 569.604077 
L 558.458182 569.604077 
z
" clip-path="url(#pd5415decad)" style="fill: #1f77b4"/>
   </g>
   <g id="patch_73">
    <path d="M 564.545455 576.72 
L 570.632727 576.72 
L 570.632727 569.773815 
L 564.545455 569.773815 
z
" clip-path="url(#pd5415decad)" style="fill: #1f77b4"/>
   </g>
   <g id="patch_74">
    <path d="M 570.632727 576.72 
L 576.72 576.72 
L 576.72 570.185102 
L 570.632727 570.185102 
z
" clip-path="url(#pd5415decad)" style="fill: #1f77b4"/>
   </g>
   <g id="patch_75">
    <path d="M 576.72 576.72 
L 582.807273 576.72 
L 582.807273 571.151301 
L 576.72 571.151301 
z
" clip-path="url(#pd5415decad)" style="fill: #1f77b4"/>
   </g>
   <g id="patch_76">
    <path d="M 582.807273 576.72 
L 588.894545 576.72 
L 588.894545 572.084858 
L 582.807273 572.084858 
z
" clip-path="url(#pd5415decad)" style="fill: #1f77b4"/>
   </g>
   <g id="patch_77">
    <path d="M 588.894545 576.72 
L 594.981818 576.72 
L 594.981818 573.449287 
L 588.894545 573.449287 
z
" clip-path="url(#pd5415decad)" style="fill: #1f77b4"/>
   </g>
   <g id="patch_78">
    <path d="M 594.981818 576.72 
L 601.069091 576.72 
L 601.069091 573.886688 
L 594.981818 573.886688 
z
" clip-path="url(#pd5415decad)" style="fill: #1f77b4"/>
   </g>
   <g id="patch_79">
    <path d="M 601.069091 576.72 
L 607.156364 576.72 
L 607.156364 573.867103 
L 601.069091 573.867103 
z
" clip-path="url(#pd5415decad)" style="fill: #1f77b4"/>
   </g>
   <g id="patch_80">
    <path d="M 607.156364 576.72 
L 613.243636 576.72 
L 613.243636 573.43623 
L 607.156364 573.43623 
z
" clip-path="url(#pd5415decad)" style="fill: #1f77b4"/>
   </g>
   <g id="patch_81">
    <path d="M 613.243636 576.72 
L 619.330909 576.72 
L 619.330909 571.810666 
L 613.243636 571.810666 
z
" clip-path="url(#pd5415decad)" style="fill: #1f77b4"/>
   </g>
   <g id="patch_82">
    <path d="M 619.330909 576.72 
L 625.418182 576.72 
L 625.418182 568.977354 
L 619.330909 568.977354 
z
" clip-path="url(#pd5415decad)" style="fill: #1f77b4"/>
   </g>
   <g id="patch_83">
    <path d="M 625.418182 576.72 
L 631.505455 576.72 
L 631.505455 563.611034 
L 625.418182 563.611034 
z
" clip-path="url(#pd5415decad)" style="fill: #1f77b4"/>
   </g>
   <g id="patch_84">
    <path d="M 631.505455 576.72 
L 637.592727 576.72 
L 637.592727 554.37992 
L 631.505455 554.37992 
z
" clip-path="url(#pd5415decad)" style="fill: #1f77b4"/>
   </g>
   <g id="patch_85">
    <path d="M 637.592727 576.72 
L 643.68 576.72 
L 643.68 539.710675 
L 637.592727 539.710675 
z
" clip-path="url(#pd5415decad)" style="fill: #1f77b4"/>
   </g>
   <g id="patch_86">
    <path d="M 643.68 576.72 
L 649.767273 576.72 
L 649.767273 524.303723 
L 643.68 524.303723 
z
" clip-path="url(#pd5415decad)" style="fill: #1f77b4"/>
   </g>
   <g id="patch_87">
    <path d="M 649.767273 576.72 
L 655.854545 576.72 
L 655.854545 522.625932 
L 649.767273 522.625932 
z
" clip-path="url(#pd5415decad)" style="fill: #1f77b4"/>
   </g>
   <g id="patch_88">
    <path d="M 655.854545 576.72 
L 661.941818 576.72 
L 661.941818 540.990235 
L 655.854545 540.990235 
z
" clip-path="url(#pd5415decad)" style="fill: #1f77b4"/>
   </g>
   <g id="patch_89">
    <path d="M 661.941818 576.72 
L 668.029091 576.72 
L 668.029091 558.669059 
L 661.941818 558.669059 
z
" clip-path="url(#pd5415decad)" style="fill: #1f77b4"/>
   </g>
   <g id="patch_90">
    <path d="M 668.029091 576.72 
L 674.116364 576.72 
L 674.116364 568.024212 
L 668.029091 568.024212 
z
" clip-path="url(#pd5415decad)" style="fill: #1f77b4"/>
   </g>
   <g id="patch_91">
    <path d="M 674.116364 576.72 
L 680.203636 576.72 
L 680.203636 571.23617 
L 674.116364 571.23617 
z
" clip-path="url(#pd5415decad)" style="fill: #1f77b4"/>
   </g>
   <g id="patch_92">
    <path d="M 680.203636 576.72 
L 686.290909 576.72 
L 686.290909 571.59523 
L 680.203636 571.59523 
z
" clip-path="url(#pd5415decad)" style="fill: #1f77b4"/>
   </g>
   <g id="patch_93">
    <path d="M 686.290909 576.72 
L 692.378182 576.72 
L 692.378182 568.004627 
L 686.290909 568.004627 
z
" clip-path="url(#pd5415decad)" style="fill: #1f77b4"/>
   </g>
   <g id="patch_94">
    <path d="M 692.378182 576.72 
L 698.465455 576.72 
L 698.465455 562.246605 
L 692.378182 562.246605 
z
" clip-path="url(#pd5415decad)" style="fill: #1f77b4"/>
   </g>
   <g id="patch_95">
    <path d="M 698.465455 576.72 
L 704.552727 576.72 
L 704.552727 558.54502 
L 698.465455 558.54502 
z
" clip-path="url(#pd5415decad)" style="fill: #1f77b4"/>
   </g>
   <g id="patch_96">
    <path d="M 704.552727 576.72 
L 710.64 576.72 
L 710.64 565.066861 
L 704.552727 565.066861 
z
" clip-path="url(#pd5415decad)" style="fill: #1f77b4"/>
   </g>
   <g id="patch_97">
    <path d="M 710.64 576.72 
L 716.727273 576.72 
L 716.727273 572.176255 
L 710.64 572.176255 
z
" clip-path="url(#pd5415decad)" style="fill: #1f77b4"/>
   </g>
   <g id="patch_98">
    <path d="M 716.727273 576.72 
L 722.814545 576.72 
L 722.814545 575.081379 
L 716.727273 575.081379 
z
" clip-path="url(#pd5415decad)" style="fill: #1f77b4"/>
   </g>
   <g id="patch_99">
    <path d="M 722.814545 576.72 
L 728.901818 576.72 
L 728.901818 575.544894 
L 722.814545 575.544894 
z
" clip-path="url(#pd5415decad)" style="fill: #1f77b4"/>
   </g>
   <g id="patch_100">
    <path d="M 728.901818 576.72 
L 734.989091 576.72 
L 734.989091 573.488457 
L 728.901818 573.488457 
z
" clip-path="url(#pd5415decad)" style="fill: #1f77b4"/>
   </g>
   <g id="patch_101">
    <path d="M 734.989091 576.72 
L 741.076364 576.72 
L 741.076364 542.380778 
L 734.989091 542.380778 
z
" clip-path="url(#pd5415decad)" style="fill: #1f77b4"/>
   </g>
   <g id="patch_102">
    <path d="M 741.076364 576.72 
L 747.163636 576.72 
L 747.163636 474.557549 
L 741.076364 474.557549 
z
" clip-path="url(#pd5415decad)" style="fill: #1f77b4"/>
   </g>
   <g id="matplotlib.axis_1">
    <g id="xtick_1">
     <g id="line2d_1">
      <path d="M 138.407722 576.72 
L 138.407722 77.76 
" clip-path="url(#pd5415decad)" style="fill: none; stroke: #b0b0b0; stroke-width: 0.8; stroke-linecap: square"/>
     </g>
     <g id="line2d_2">
      <defs>
       <path id="m5e0381df94" d="M 0 0 
L 0 3.5 
" style="stroke: #000000; stroke-width: 0.8"/>
      </defs>
      <g>
       <use xlink:href="#m5e0381df94" x="138.407722" y="576.72" style="stroke: #000000; stroke-width: 0.8"/>
      </g>
     </g>
     <g id="text_1">
      <!-- 0.0 -->
      <g transform="translate(119.323972 601.95625) scale(0.24 -0.24)">
       <defs>
        <path id="DejaVuSans-30" d="M 2034 4250 
Q 1547 4250 1301 3770 
Q 1056 3291 1056 2328 
Q 1056 1369 1301 889 
Q 1547 409 2034 409 
Q 2525 409 2770 889 
Q 3016 1369 3016 2328 
Q 3016 3291 2770 3770 
Q 2525 4250 2034 4250 
z
M 2034 4750 
Q 2819 4750 3233 4129 
Q 3647 3509 3647 2328 
Q 3647 1150 3233 529 
Q 2819 -91 2034 -91 
Q 1250 -91 836 529 
Q 422 1150 422 2328 
Q 422 3509 836 4129 
Q 1250 4750 2034 4750 
z
" transform="scale(0.015625)"/>
        <path id="DejaVuSans-2e" d="M 684 794 
L 1344 794 
L 1344 0 
L 684 0 
L 684 794 
z
" transform="scale(0.015625)"/>
       </defs>
       <use xlink:href="#DejaVuSans-30"/>
       <use xlink:href="#DejaVuSans-2e" transform="translate(63.623047 0)"/>
       <use xlink:href="#DejaVuSans-30" transform="translate(95.410156 0)"/>
      </g>
     </g>
    </g>
    <g id="xtick_2">
     <g id="line2d_3">
      <path d="M 260.194081 576.72 
L 260.194081 77.76 
" clip-path="url(#pd5415decad)" style="fill: none; stroke: #b0b0b0; stroke-width: 0.8; stroke-linecap: square"/>
     </g>
     <g id="line2d_4">
      <g>
       <use xlink:href="#m5e0381df94" x="260.194081" y="576.72" style="stroke: #000000; stroke-width: 0.8"/>
      </g>
     </g>
     <g id="text_2">
      <!-- 0.2 -->
      <g transform="translate(241.110331 601.95625) scale(0.24 -0.24)">
       <defs>
        <path id="DejaVuSans-32" d="M 1228 531 
L 3431 531 
L 3431 0 
L 469 0 
L 469 531 
Q 828 903 1448 1529 
Q 2069 2156 2228 2338 
Q 2531 2678 2651 2914 
Q 2772 3150 2772 3378 
Q 2772 3750 2511 3984 
Q 2250 4219 1831 4219 
Q 1534 4219 1204 4116 
Q 875 4013 500 3803 
L 500 4441 
Q 881 4594 1212 4672 
Q 1544 4750 1819 4750 
Q 2544 4750 2975 4387 
Q 3406 4025 3406 3419 
Q 3406 3131 3298 2873 
Q 3191 2616 2906 2266 
Q 2828 2175 2409 1742 
Q 1991 1309 1228 531 
z
" transform="scale(0.015625)"/>
       </defs>
       <use xlink:href="#DejaVuSans-30"/>
       <use xlink:href="#DejaVuSans-2e" transform="translate(63.623047 0)"/>
       <use xlink:href="#DejaVuSans-32" transform="translate(95.410156 0)"/>
      </g>
     </g>
    </g>
    <g id="xtick_3">
     <g id="line2d_5">
      <path d="M 381.98044 576.72 
L 381.98044 77.76 
" clip-path="url(#pd5415decad)" style="fill: none; stroke: #b0b0b0; stroke-width: 0.8; stroke-linecap: square"/>
     </g>
     <g id="line2d_6">
      <g>
       <use xlink:href="#m5e0381df94" x="381.98044" y="576.72" style="stroke: #000000; stroke-width: 0.8"/>
      </g>
     </g>
     <g id="text_3">
      <!-- 0.4 -->
      <g transform="translate(362.89669 601.95625) scale(0.24 -0.24)">
       <defs>
        <path id="DejaVuSans-34" d="M 2419 4116 
L 825 1625 
L 2419 1625 
L 2419 4116 
z
M 2253 4666 
L 3047 4666 
L 3047 1625 
L 3713 1625 
L 3713 1100 
L 3047 1100 
L 3047 0 
L 2419 0 
L 2419 1100 
L 313 1100 
L 313 1709 
L 2253 4666 
z
" transform="scale(0.015625)"/>
       </defs>
       <use xlink:href="#DejaVuSans-30"/>
       <use xlink:href="#DejaVuSans-2e" transform="translate(63.623047 0)"/>
       <use xlink:href="#DejaVuSans-34" transform="translate(95.410156 0)"/>
      </g>
     </g>
    </g>
    <g id="xtick_4">
     <g id="line2d_7">
      <path d="M 503.766799 576.72 
L 503.766799 77.76 
" clip-path="url(#pd5415decad)" style="fill: none; stroke: #b0b0b0; stroke-width: 0.8; stroke-linecap: square"/>
     </g>
     <g id="line2d_8">
      <g>
       <use xlink:href="#m5e0381df94" x="503.766799" y="576.72" style="stroke: #000000; stroke-width: 0.8"/>
      </g>
     </g>
     <g id="text_4">
      <!-- 0.6 -->
      <g transform="translate(484.683049 601.95625) scale(0.24 -0.24)">
       <defs>
        <path id="DejaVuSans-36" d="M 2113 2584 
Q 1688 2584 1439 2293 
Q 1191 2003 1191 1497 
Q 1191 994 1439 701 
Q 1688 409 2113 409 
Q 2538 409 2786 701 
Q 3034 994 3034 1497 
Q 3034 2003 2786 2293 
Q 2538 2584 2113 2584 
z
M 3366 4563 
L 3366 3988 
Q 3128 4100 2886 4159 
Q 2644 4219 2406 4219 
Q 1781 4219 1451 3797 
Q 1122 3375 1075 2522 
Q 1259 2794 1537 2939 
Q 1816 3084 2150 3084 
Q 2853 3084 3261 2657 
Q 3669 2231 3669 1497 
Q 3669 778 3244 343 
Q 2819 -91 2113 -91 
Q 1303 -91 875 529 
Q 447 1150 447 2328 
Q 447 3434 972 4092 
Q 1497 4750 2381 4750 
Q 2619 4750 2861 4703 
Q 3103 4656 3366 4563 
z
" transform="scale(0.015625)"/>
       </defs>
       <use xlink:href="#DejaVuSans-30"/>
       <use xlink:href="#DejaVuSans-2e" transform="translate(63.623047 0)"/>
       <use xlink:href="#DejaVuSans-36" transform="translate(95.410156 0)"/>
      </g>
     </g>
    </g>
    <g id="xtick_5">
     <g id="line2d_9">
      <path d="M 625.553158 576.72 
L 625.553158 77.76 
" clip-path="url(#pd5415decad)" style="fill: none; stroke: #b0b0b0; stroke-width: 0.8; stroke-linecap: square"/>
     </g>
     <g id="line2d_10">
      <g>
       <use xlink:href="#m5e0381df94" x="625.553158" y="576.72" style="stroke: #000000; stroke-width: 0.8"/>
      </g>
     </g>
     <g id="text_5">
      <!-- 0.8 -->
      <g transform="translate(606.469408 601.95625) scale(0.24 -0.24)">
       <defs>
        <path id="DejaVuSans-38" d="M 2034 2216 
Q 1584 2216 1326 1975 
Q 1069 1734 1069 1313 
Q 1069 891 1326 650 
Q 1584 409 2034 409 
Q 2484 409 2743 651 
Q 3003 894 3003 1313 
Q 3003 1734 2745 1975 
Q 2488 2216 2034 2216 
z
M 1403 2484 
Q 997 2584 770 2862 
Q 544 3141 544 3541 
Q 544 4100 942 4425 
Q 1341 4750 2034 4750 
Q 2731 4750 3128 4425 
Q 3525 4100 3525 3541 
Q 3525 3141 3298 2862 
Q 3072 2584 2669 2484 
Q 3125 2378 3379 2068 
Q 3634 1759 3634 1313 
Q 3634 634 3220 271 
Q 2806 -91 2034 -91 
Q 1263 -91 848 271 
Q 434 634 434 1313 
Q 434 1759 690 2068 
Q 947 2378 1403 2484 
z
M 1172 3481 
Q 1172 3119 1398 2916 
Q 1625 2713 2034 2713 
Q 2441 2713 2670 2916 
Q 2900 3119 2900 3481 
Q 2900 3844 2670 4047 
Q 2441 4250 2034 4250 
Q 1625 4250 1398 4047 
Q 1172 3844 1172 3481 
z
" transform="scale(0.015625)"/>
       </defs>
       <use xlink:href="#DejaVuSans-30"/>
       <use xlink:href="#DejaVuSans-2e" transform="translate(63.623047 0)"/>
       <use xlink:href="#DejaVuSans-38" transform="translate(95.410156 0)"/>
      </g>
     </g>
    </g>
    <g id="xtick_6">
     <g id="line2d_11">
      <path d="M 747.339517 576.72 
L 747.339517 77.76 
" clip-path="url(#pd5415decad)" style="fill: none; stroke: #b0b0b0; stroke-width: 0.8; stroke-linecap: square"/>
     </g>
     <g id="line2d_12">
      <g>
       <use xlink:href="#m5e0381df94" x="747.339517" y="576.72" style="stroke: #000000; stroke-width: 0.8"/>
      </g>
     </g>
     <g id="text_6">
      <!-- 1.0 -->
      <g transform="translate(728.255767 601.95625) scale(0.24 -0.24)">
       <defs>
        <path id="DejaVuSans-31" d="M 794 531 
L 1825 531 
L 1825 4091 
L 703 3866 
L 703 4441 
L 1819 4666 
L 2450 4666 
L 2450 531 
L 3481 531 
L 3481 0 
L 794 0 
L 794 531 
z
" transform="scale(0.015625)"/>
       </defs>
       <use xlink:href="#DejaVuSans-31"/>
       <use xlink:href="#DejaVuSans-2e" transform="translate(63.623047 0)"/>
       <use xlink:href="#DejaVuSans-30" transform="translate(95.410156 0)"/>
      </g>
     </g>
    </g>
    <g id="text_7">
     <!-- Scores -->
     <g transform="translate(389.6575 635.2625) scale(0.32 -0.32)">
      <defs>
       <path id="DejaVuSans-53" d="M 3425 4513 
L 3425 3897 
Q 3066 4069 2747 4153 
Q 2428 4238 2131 4238 
Q 1616 4238 1336 4038 
Q 1056 3838 1056 3469 
Q 1056 3159 1242 3001 
Q 1428 2844 1947 2747 
L 2328 2669 
Q 3034 2534 3370 2195 
Q 3706 1856 3706 1288 
Q 3706 609 3251 259 
Q 2797 -91 1919 -91 
Q 1588 -91 1214 -16 
Q 841 59 441 206 
L 441 856 
Q 825 641 1194 531 
Q 1563 422 1919 422 
Q 2459 422 2753 634 
Q 3047 847 3047 1241 
Q 3047 1584 2836 1778 
Q 2625 1972 2144 2069 
L 1759 2144 
Q 1053 2284 737 2584 
Q 422 2884 422 3419 
Q 422 4038 858 4394 
Q 1294 4750 2059 4750 
Q 2388 4750 2728 4690 
Q 3069 4631 3425 4513 
z
" transform="scale(0.015625)"/>
       <path id="DejaVuSans-63" d="M 3122 3366 
L 3122 2828 
Q 2878 2963 2633 3030 
Q 2388 3097 2138 3097 
Q 1578 3097 1268 2742 
Q 959 2388 959 1747 
Q 959 1106 1268 751 
Q 1578 397 2138 397 
Q 2388 397 2633 464 
Q 2878 531 3122 666 
L 3122 134 
Q 2881 22 2623 -34 
Q 2366 -91 2075 -91 
Q 1284 -91 818 406 
Q 353 903 353 1747 
Q 353 2603 823 3093 
Q 1294 3584 2113 3584 
Q 2378 3584 2631 3529 
Q 2884 3475 3122 3366 
z
" transform="scale(0.015625)"/>
       <path id="DejaVuSans-6f" d="M 1959 3097 
Q 1497 3097 1228 2736 
Q 959 2375 959 1747 
Q 959 1119 1226 758 
Q 1494 397 1959 397 
Q 2419 397 2687 759 
Q 2956 1122 2956 1747 
Q 2956 2369 2687 2733 
Q 2419 3097 1959 3097 
z
M 1959 3584 
Q 2709 3584 3137 3096 
Q 3566 2609 3566 1747 
Q 3566 888 3137 398 
Q 2709 -91 1959 -91 
Q 1206 -91 779 398 
Q 353 888 353 1747 
Q 353 2609 779 3096 
Q 1206 3584 1959 3584 
z
" transform="scale(0.015625)"/>
       <path id="DejaVuSans-72" d="M 2631 2963 
Q 2534 3019 2420 3045 
Q 2306 3072 2169 3072 
Q 1681 3072 1420 2755 
Q 1159 2438 1159 1844 
L 1159 0 
L 581 0 
L 581 3500 
L 1159 3500 
L 1159 2956 
Q 1341 3275 1631 3429 
Q 1922 3584 2338 3584 
Q 2397 3584 2469 3576 
Q 2541 3569 2628 3553 
L 2631 2963 
z
" transform="scale(0.015625)"/>
       <path id="DejaVuSans-65" d="M 3597 1894 
L 3597 1613 
L 953 1613 
Q 991 1019 1311 708 
Q 1631 397 2203 397 
Q 2534 397 2845 478 
Q 3156 559 3463 722 
L 3463 178 
Q 3153 47 2828 -22 
Q 2503 -91 2169 -91 
Q 1331 -91 842 396 
Q 353 884 353 1716 
Q 353 2575 817 3079 
Q 1281 3584 2069 3584 
Q 2775 3584 3186 3129 
Q 3597 2675 3597 1894 
z
M 3022 2063 
Q 3016 2534 2758 2815 
Q 2500 3097 2075 3097 
Q 1594 3097 1305 2825 
Q 1016 2553 972 2059 
L 3022 2063 
z
" transform="scale(0.015625)"/>
       <path id="DejaVuSans-73" d="M 2834 3397 
L 2834 2853 
Q 2591 2978 2328 3040 
Q 2066 3103 1784 3103 
Q 1356 3103 1142 2972 
Q 928 2841 928 2578 
Q 928 2378 1081 2264 
Q 1234 2150 1697 2047 
L 1894 2003 
Q 2506 1872 2764 1633 
Q 3022 1394 3022 966 
Q 3022 478 2636 193 
Q 2250 -91 1575 -91 
Q 1294 -91 989 -36 
Q 684 19 347 128 
L 347 722 
Q 666 556 975 473 
Q 1284 391 1588 391 
Q 1994 391 2212 530 
Q 2431 669 2431 922 
Q 2431 1156 2273 1281 
Q 2116 1406 1581 1522 
L 1381 1569 
Q 847 1681 609 1914 
Q 372 2147 372 2553 
Q 372 3047 722 3315 
Q 1072 3584 1716 3584 
Q 2034 3584 2315 3537 
Q 2597 3491 2834 3397 
z
" transform="scale(0.015625)"/>
      </defs>
      <use xlink:href="#DejaVuSans-53"/>
      <use xlink:href="#DejaVuSans-63" transform="translate(63.476562 0)"/>
      <use xlink:href="#DejaVuSans-6f" transform="translate(118.457031 0)"/>
      <use xlink:href="#DejaVuSans-72" transform="translate(179.638672 0)"/>
      <use xlink:href="#DejaVuSans-65" transform="translate(218.501953 0)"/>
      <use xlink:href="#DejaVuSans-73" transform="translate(280.025391 0)"/>
     </g>
    </g>
   </g>
   <g id="matplotlib.axis_2">
    <g id="ytick_1">
     <g id="line2d_13">
      <path d="M 108 576.72 
L 777.6 576.72 
" clip-path="url(#pd5415decad)" style="fill: none; stroke: #b0b0b0; stroke-width: 0.8; stroke-linecap: square"/>
     </g>
     <g id="line2d_14">
      <defs>
       <path id="m35480437b1" d="M 0 0 
L -3.5 0 
" style="stroke: #000000; stroke-width: 0.8"/>
      </defs>
      <g>
       <use xlink:href="#m35480437b1" x="108" y="576.72" style="stroke: #000000; stroke-width: 0.8"/>
      </g>
     </g>
     <g id="text_8">
      <!-- 0 -->
      <g transform="translate(85.73 585.838125) scale(0.24 -0.24)">
       <use xlink:href="#DejaVuSans-30"/>
      </g>
     </g>
    </g>
    <g id="ytick_2">
     <g id="line2d_15">
      <path d="M 108 511.436307 
L 777.6 511.436307 
" clip-path="url(#pd5415decad)" style="fill: none; stroke: #b0b0b0; stroke-width: 0.8; stroke-linecap: square"/>
     </g>
     <g id="line2d_16">
      <g>
       <use xlink:href="#m35480437b1" x="108" y="511.436307" style="stroke: #000000; stroke-width: 0.8"/>
      </g>
     </g>
     <g id="text_9">
      <!-- 10000 -->
      <g transform="translate(24.65 520.554432) scale(0.24 -0.24)">
       <use xlink:href="#DejaVuSans-31"/>
       <use xlink:href="#DejaVuSans-30" transform="translate(63.623047 0)"/>
       <use xlink:href="#DejaVuSans-30" transform="translate(127.246094 0)"/>
       <use xlink:href="#DejaVuSans-30" transform="translate(190.869141 0)"/>
       <use xlink:href="#DejaVuSans-30" transform="translate(254.492188 0)"/>
      </g>
     </g>
    </g>
    <g id="ytick_3">
     <g id="line2d_17">
      <path d="M 108 446.152614 
L 777.6 446.152614 
" clip-path="url(#pd5415decad)" style="fill: none; stroke: #b0b0b0; stroke-width: 0.8; stroke-linecap: square"/>
     </g>
     <g id="line2d_18">
      <g>
       <use xlink:href="#m35480437b1" x="108" y="446.152614" style="stroke: #000000; stroke-width: 0.8"/>
      </g>
     </g>
     <g id="text_10">
      <!-- 20000 -->
      <g transform="translate(24.65 455.270739) scale(0.24 -0.24)">
       <use xlink:href="#DejaVuSans-32"/>
       <use xlink:href="#DejaVuSans-30" transform="translate(63.623047 0)"/>
       <use xlink:href="#DejaVuSans-30" transform="translate(127.246094 0)"/>
       <use xlink:href="#DejaVuSans-30" transform="translate(190.869141 0)"/>
       <use xlink:href="#DejaVuSans-30" transform="translate(254.492188 0)"/>
      </g>
     </g>
    </g>
    <g id="ytick_4">
     <g id="line2d_19">
      <path d="M 108 380.868922 
L 777.6 380.868922 
" clip-path="url(#pd5415decad)" style="fill: none; stroke: #b0b0b0; stroke-width: 0.8; stroke-linecap: square"/>
     </g>
     <g id="line2d_20">
      <g>
       <use xlink:href="#m35480437b1" x="108" y="380.868922" style="stroke: #000000; stroke-width: 0.8"/>
      </g>
     </g>
     <g id="text_11">
      <!-- 30000 -->
      <g transform="translate(24.65 389.987047) scale(0.24 -0.24)">
       <defs>
        <path id="DejaVuSans-33" d="M 2597 2516 
Q 3050 2419 3304 2112 
Q 3559 1806 3559 1356 
Q 3559 666 3084 287 
Q 2609 -91 1734 -91 
Q 1441 -91 1130 -33 
Q 819 25 488 141 
L 488 750 
Q 750 597 1062 519 
Q 1375 441 1716 441 
Q 2309 441 2620 675 
Q 2931 909 2931 1356 
Q 2931 1769 2642 2001 
Q 2353 2234 1838 2234 
L 1294 2234 
L 1294 2753 
L 1863 2753 
Q 2328 2753 2575 2939 
Q 2822 3125 2822 3475 
Q 2822 3834 2567 4026 
Q 2313 4219 1838 4219 
Q 1578 4219 1281 4162 
Q 984 4106 628 3988 
L 628 4550 
Q 988 4650 1302 4700 
Q 1616 4750 1894 4750 
Q 2613 4750 3031 4423 
Q 3450 4097 3450 3541 
Q 3450 3153 3228 2886 
Q 3006 2619 2597 2516 
z
" transform="scale(0.015625)"/>
       </defs>
       <use xlink:href="#DejaVuSans-33"/>
       <use xlink:href="#DejaVuSans-30" transform="translate(63.623047 0)"/>
       <use xlink:href="#DejaVuSans-30" transform="translate(127.246094 0)"/>
       <use xlink:href="#DejaVuSans-30" transform="translate(190.869141 0)"/>
       <use xlink:href="#DejaVuSans-30" transform="translate(254.492188 0)"/>
      </g>
     </g>
    </g>
    <g id="ytick_5">
     <g id="line2d_21">
      <path d="M 108 315.585229 
L 777.6 315.585229 
" clip-path="url(#pd5415decad)" style="fill: none; stroke: #b0b0b0; stroke-width: 0.8; stroke-linecap: square"/>
     </g>
     <g id="line2d_22">
      <g>
       <use xlink:href="#m35480437b1" x="108" y="315.585229" style="stroke: #000000; stroke-width: 0.8"/>
      </g>
     </g>
     <g id="text_12">
      <!-- 40000 -->
      <g transform="translate(24.65 324.703354) scale(0.24 -0.24)">
       <use xlink:href="#DejaVuSans-34"/>
       <use xlink:href="#DejaVuSans-30" transform="translate(63.623047 0)"/>
       <use xlink:href="#DejaVuSans-30" transform="translate(127.246094 0)"/>
       <use xlink:href="#DejaVuSans-30" transform="translate(190.869141 0)"/>
       <use xlink:href="#DejaVuSans-30" transform="translate(254.492188 0)"/>
      </g>
     </g>
    </g>
    <g id="ytick_6">
     <g id="line2d_23">
      <path d="M 108 250.301536 
L 777.6 250.301536 
" clip-path="url(#pd5415decad)" style="fill: none; stroke: #b0b0b0; stroke-width: 0.8; stroke-linecap: square"/>
     </g>
     <g id="line2d_24">
      <g>
       <use xlink:href="#m35480437b1" x="108" y="250.301536" style="stroke: #000000; stroke-width: 0.8"/>
      </g>
     </g>
     <g id="text_13">
      <!-- 50000 -->
      <g transform="translate(24.65 259.419661) scale(0.24 -0.24)">
       <defs>
        <path id="DejaVuSans-35" d="M 691 4666 
L 3169 4666 
L 3169 4134 
L 1269 4134 
L 1269 2991 
Q 1406 3038 1543 3061 
Q 1681 3084 1819 3084 
Q 2600 3084 3056 2656 
Q 3513 2228 3513 1497 
Q 3513 744 3044 326 
Q 2575 -91 1722 -91 
Q 1428 -91 1123 -41 
Q 819 9 494 109 
L 494 744 
Q 775 591 1075 516 
Q 1375 441 1709 441 
Q 2250 441 2565 725 
Q 2881 1009 2881 1497 
Q 2881 1984 2565 2268 
Q 2250 2553 1709 2553 
Q 1456 2553 1204 2497 
Q 953 2441 691 2322 
L 691 4666 
z
" transform="scale(0.015625)"/>
       </defs>
       <use xlink:href="#DejaVuSans-35"/>
       <use xlink:href="#DejaVuSans-30" transform="translate(63.623047 0)"/>
       <use xlink:href="#DejaVuSans-30" transform="translate(127.246094 0)"/>
       <use xlink:href="#DejaVuSans-30" transform="translate(190.869141 0)"/>
       <use xlink:href="#DejaVuSans-30" transform="translate(254.492188 0)"/>
      </g>
     </g>
    </g>
    <g id="ytick_7">
     <g id="line2d_25">
      <path d="M 108 185.017843 
L 777.6 185.017843 
" clip-path="url(#pd5415decad)" style="fill: none; stroke: #b0b0b0; stroke-width: 0.8; stroke-linecap: square"/>
     </g>
     <g id="line2d_26">
      <g>
       <use xlink:href="#m35480437b1" x="108" y="185.017843" style="stroke: #000000; stroke-width: 0.8"/>
      </g>
     </g>
     <g id="text_14">
      <!-- 60000 -->
      <g transform="translate(24.65 194.135968) scale(0.24 -0.24)">
       <use xlink:href="#DejaVuSans-36"/>
       <use xlink:href="#DejaVuSans-30" transform="translate(63.623047 0)"/>
       <use xlink:href="#DejaVuSans-30" transform="translate(127.246094 0)"/>
       <use xlink:href="#DejaVuSans-30" transform="translate(190.869141 0)"/>
       <use xlink:href="#DejaVuSans-30" transform="translate(254.492188 0)"/>
      </g>
     </g>
    </g>
    <g id="ytick_8">
     <g id="line2d_27">
      <path d="M 108 119.73415 
L 777.6 119.73415 
" clip-path="url(#pd5415decad)" style="fill: none; stroke: #b0b0b0; stroke-width: 0.8; stroke-linecap: square"/>
     </g>
     <g id="line2d_28">
      <g>
       <use xlink:href="#m35480437b1" x="108" y="119.73415" style="stroke: #000000; stroke-width: 0.8"/>
      </g>
     </g>
     <g id="text_15">
      <!-- 70000 -->
      <g transform="translate(24.65 128.852275) scale(0.24 -0.24)">
       <defs>
        <path id="DejaVuSans-37" d="M 525 4666 
L 3525 4666 
L 3525 4397 
L 1831 0 
L 1172 0 
L 2766 4134 
L 525 4134 
L 525 4666 
z
" transform="scale(0.015625)"/>
       </defs>
       <use xlink:href="#DejaVuSans-37"/>
       <use xlink:href="#DejaVuSans-30" transform="translate(63.623047 0)"/>
       <use xlink:href="#DejaVuSans-30" transform="translate(127.246094 0)"/>
       <use xlink:href="#DejaVuSans-30" transform="translate(190.869141 0)"/>
       <use xlink:href="#DejaVuSans-30" transform="translate(254.492188 0)"/>
      </g>
     </g>
    </g>
    <g id="text_16">
     <!-- Counts -->
     <g transform="translate(13.995 383.09) rotate(-90) scale(0.32 -0.32)">
      <defs>
       <path id="DejaVuSans-43" d="M 4122 4306 
L 4122 3641 
Q 3803 3938 3442 4084 
Q 3081 4231 2675 4231 
Q 1875 4231 1450 3742 
Q 1025 3253 1025 2328 
Q 1025 1406 1450 917 
Q 1875 428 2675 428 
Q 3081 428 3442 575 
Q 3803 722 4122 1019 
L 4122 359 
Q 3791 134 3420 21 
Q 3050 -91 2638 -91 
Q 1578 -91 968 557 
Q 359 1206 359 2328 
Q 359 3453 968 4101 
Q 1578 4750 2638 4750 
Q 3056 4750 3426 4639 
Q 3797 4528 4122 4306 
z
" transform="scale(0.015625)"/>
       <path id="DejaVuSans-75" d="M 544 1381 
L 544 3500 
L 1119 3500 
L 1119 1403 
Q 1119 906 1312 657 
Q 1506 409 1894 409 
Q 2359 409 2629 706 
Q 2900 1003 2900 1516 
L 2900 3500 
L 3475 3500 
L 3475 0 
L 2900 0 
L 2900 538 
Q 2691 219 2414 64 
Q 2138 -91 1772 -91 
Q 1169 -91 856 284 
Q 544 659 544 1381 
z
M 1991 3584 
L 1991 3584 
z
" transform="scale(0.015625)"/>
       <path id="DejaVuSans-6e" d="M 3513 2113 
L 3513 0 
L 2938 0 
L 2938 2094 
Q 2938 2591 2744 2837 
Q 2550 3084 2163 3084 
Q 1697 3084 1428 2787 
Q 1159 2491 1159 1978 
L 1159 0 
L 581 0 
L 581 3500 
L 1159 3500 
L 1159 2956 
Q 1366 3272 1645 3428 
Q 1925 3584 2291 3584 
Q 2894 3584 3203 3211 
Q 3513 2838 3513 2113 
z
" transform="scale(0.015625)"/>
       <path id="DejaVuSans-74" d="M 1172 4494 
L 1172 3500 
L 2356 3500 
L 2356 3053 
L 1172 3053 
L 1172 1153 
Q 1172 725 1289 603 
Q 1406 481 1766 481 
L 2356 481 
L 2356 0 
L 1766 0 
Q 1100 0 847 248 
Q 594 497 594 1153 
L 594 3053 
L 172 3053 
L 172 3500 
L 594 3500 
L 594 4494 
L 1172 4494 
z
" transform="scale(0.015625)"/>
      </defs>
      <use xlink:href="#DejaVuSans-43"/>
      <use xlink:href="#DejaVuSans-6f" transform="translate(69.824219 0)"/>
      <use xlink:href="#DejaVuSans-75" transform="translate(131.005859 0)"/>
      <use xlink:href="#DejaVuSans-6e" transform="translate(194.384766 0)"/>
      <use xlink:href="#DejaVuSans-74" transform="translate(257.763672 0)"/>
      <use xlink:href="#DejaVuSans-73" transform="translate(296.972656 0)"/>
     </g>
    </g>
   </g>
   <g id="patch_103">
    <path d="M 108 576.72 
L 108 77.76 
" style="fill: none; stroke: #000000; stroke-width: 3; stroke-linejoin: miter; stroke-linecap: square"/>
   </g>
   <g id="patch_104">
    <path d="M 777.6 576.72 
L 777.6 77.76 
" style="fill: none; stroke: #000000; stroke-width: 3; stroke-linejoin: miter; stroke-linecap: square"/>
   </g>
   <g id="patch_105">
    <path d="M 108 576.72 
L 777.6 576.72 
" style="fill: none; stroke: #000000; stroke-width: 3; stroke-linejoin: miter; stroke-linecap: square"/>
   </g>
   <g id="patch_106">
    <path d="M 108 77.76 
L 777.6 77.76 
" style="fill: none; stroke: #000000; stroke-width: 3; stroke-linejoin: miter; stroke-linecap: square"/>
   </g>
   <g id="text_17">
    <!-- predict_proba distribution with X_train -->
    <g transform="translate(136.205 70.215) scale(0.32 -0.32)">
     <defs>
      <path id="DejaVuSans-70" d="M 1159 525 
L 1159 -1331 
L 581 -1331 
L 581 3500 
L 1159 3500 
L 1159 2969 
Q 1341 3281 1617 3432 
Q 1894 3584 2278 3584 
Q 2916 3584 3314 3078 
Q 3713 2572 3713 1747 
Q 3713 922 3314 415 
Q 2916 -91 2278 -91 
Q 1894 -91 1617 61 
Q 1341 213 1159 525 
z
M 3116 1747 
Q 3116 2381 2855 2742 
Q 2594 3103 2138 3103 
Q 1681 3103 1420 2742 
Q 1159 2381 1159 1747 
Q 1159 1113 1420 752 
Q 1681 391 2138 391 
Q 2594 391 2855 752 
Q 3116 1113 3116 1747 
z
" transform="scale(0.015625)"/>
      <path id="DejaVuSans-64" d="M 2906 2969 
L 2906 4863 
L 3481 4863 
L 3481 0 
L 2906 0 
L 2906 525 
Q 2725 213 2448 61 
Q 2172 -91 1784 -91 
Q 1150 -91 751 415 
Q 353 922 353 1747 
Q 353 2572 751 3078 
Q 1150 3584 1784 3584 
Q 2172 3584 2448 3432 
Q 2725 3281 2906 2969 
z
M 947 1747 
Q 947 1113 1208 752 
Q 1469 391 1925 391 
Q 2381 391 2643 752 
Q 2906 1113 2906 1747 
Q 2906 2381 2643 2742 
Q 2381 3103 1925 3103 
Q 1469 3103 1208 2742 
Q 947 2381 947 1747 
z
" transform="scale(0.015625)"/>
      <path id="DejaVuSans-69" d="M 603 3500 
L 1178 3500 
L 1178 0 
L 603 0 
L 603 3500 
z
M 603 4863 
L 1178 4863 
L 1178 4134 
L 603 4134 
L 603 4863 
z
" transform="scale(0.015625)"/>
      <path id="DejaVuSans-5f" d="M 3263 -1063 
L 3263 -1509 
L -63 -1509 
L -63 -1063 
L 3263 -1063 
z
" transform="scale(0.015625)"/>
      <path id="DejaVuSans-62" d="M 3116 1747 
Q 3116 2381 2855 2742 
Q 2594 3103 2138 3103 
Q 1681 3103 1420 2742 
Q 1159 2381 1159 1747 
Q 1159 1113 1420 752 
Q 1681 391 2138 391 
Q 2594 391 2855 752 
Q 3116 1113 3116 1747 
z
M 1159 2969 
Q 1341 3281 1617 3432 
Q 1894 3584 2278 3584 
Q 2916 3584 3314 3078 
Q 3713 2572 3713 1747 
Q 3713 922 3314 415 
Q 2916 -91 2278 -91 
Q 1894 -91 1617 61 
Q 1341 213 1159 525 
L 1159 0 
L 581 0 
L 581 4863 
L 1159 4863 
L 1159 2969 
z
" transform="scale(0.015625)"/>
      <path id="DejaVuSans-61" d="M 2194 1759 
Q 1497 1759 1228 1600 
Q 959 1441 959 1056 
Q 959 750 1161 570 
Q 1363 391 1709 391 
Q 2188 391 2477 730 
Q 2766 1069 2766 1631 
L 2766 1759 
L 2194 1759 
z
M 3341 1997 
L 3341 0 
L 2766 0 
L 2766 531 
Q 2569 213 2275 61 
Q 1981 -91 1556 -91 
Q 1019 -91 701 211 
Q 384 513 384 1019 
Q 384 1609 779 1909 
Q 1175 2209 1959 2209 
L 2766 2209 
L 2766 2266 
Q 2766 2663 2505 2880 
Q 2244 3097 1772 3097 
Q 1472 3097 1187 3025 
Q 903 2953 641 2809 
L 641 3341 
Q 956 3463 1253 3523 
Q 1550 3584 1831 3584 
Q 2591 3584 2966 3190 
Q 3341 2797 3341 1997 
z
" transform="scale(0.015625)"/>
      <path id="DejaVuSans-20" transform="scale(0.015625)"/>
      <path id="DejaVuSans-77" d="M 269 3500 
L 844 3500 
L 1563 769 
L 2278 3500 
L 2956 3500 
L 3675 769 
L 4391 3500 
L 4966 3500 
L 4050 0 
L 3372 0 
L 2619 2869 
L 1863 0 
L 1184 0 
L 269 3500 
z
" transform="scale(0.015625)"/>
      <path id="DejaVuSans-68" d="M 3513 2113 
L 3513 0 
L 2938 0 
L 2938 2094 
Q 2938 2591 2744 2837 
Q 2550 3084 2163 3084 
Q 1697 3084 1428 2787 
Q 1159 2491 1159 1978 
L 1159 0 
L 581 0 
L 581 4863 
L 1159 4863 
L 1159 2956 
Q 1366 3272 1645 3428 
Q 1925 3584 2291 3584 
Q 2894 3584 3203 3211 
Q 3513 2838 3513 2113 
z
" transform="scale(0.015625)"/>
      <path id="DejaVuSans-58" d="M 403 4666 
L 1081 4666 
L 2241 2931 
L 3406 4666 
L 4084 4666 
L 2584 2425 
L 4184 0 
L 3506 0 
L 2194 1984 
L 872 0 
L 191 0 
L 1856 2491 
L 403 4666 
z
" transform="scale(0.015625)"/>
     </defs>
     <use xlink:href="#DejaVuSans-70"/>
     <use xlink:href="#DejaVuSans-72" transform="translate(63.476562 0)"/>
     <use xlink:href="#DejaVuSans-65" transform="translate(102.339844 0)"/>
     <use xlink:href="#DejaVuSans-64" transform="translate(163.863281 0)"/>
     <use xlink:href="#DejaVuSans-69" transform="translate(227.339844 0)"/>
     <use xlink:href="#DejaVuSans-63" transform="translate(255.123047 0)"/>
     <use xlink:href="#DejaVuSans-74" transform="translate(310.103516 0)"/>
     <use xlink:href="#DejaVuSans-5f" transform="translate(349.3125 0)"/>
     <use xlink:href="#DejaVuSans-70" transform="translate(399.3125 0)"/>
     <use xlink:href="#DejaVuSans-72" transform="translate(462.789062 0)"/>
     <use xlink:href="#DejaVuSans-6f" transform="translate(501.652344 0)"/>
     <use xlink:href="#DejaVuSans-62" transform="translate(562.833984 0)"/>
     <use xlink:href="#DejaVuSans-61" transform="translate(626.310547 0)"/>
     <use xlink:href="#DejaVuSans-20" transform="translate(687.589844 0)"/>
     <use xlink:href="#DejaVuSans-64" transform="translate(719.376953 0)"/>
     <use xlink:href="#DejaVuSans-69" transform="translate(782.853516 0)"/>
     <use xlink:href="#DejaVuSans-73" transform="translate(810.636719 0)"/>
     <use xlink:href="#DejaVuSans-74" transform="translate(862.736328 0)"/>
     <use xlink:href="#DejaVuSans-72" transform="translate(901.945312 0)"/>
     <use xlink:href="#DejaVuSans-69" transform="translate(943.058594 0)"/>
     <use xlink:href="#DejaVuSans-62" transform="translate(970.841797 0)"/>
     <use xlink:href="#DejaVuSans-75" transform="translate(1034.318359 0)"/>
     <use xlink:href="#DejaVuSans-74" transform="translate(1097.697266 0)"/>
     <use xlink:href="#DejaVuSans-69" transform="translate(1136.90625 0)"/>
     <use xlink:href="#DejaVuSans-6f" transform="translate(1164.689453 0)"/>
     <use xlink:href="#DejaVuSans-6e" transform="translate(1225.871094 0)"/>
     <use xlink:href="#DejaVuSans-20" transform="translate(1289.25 0)"/>
     <use xlink:href="#DejaVuSans-77" transform="translate(1321.037109 0)"/>
     <use xlink:href="#DejaVuSans-69" transform="translate(1402.824219 0)"/>
     <use xlink:href="#DejaVuSans-74" transform="translate(1430.607422 0)"/>
     <use xlink:href="#DejaVuSans-68" transform="translate(1469.816406 0)"/>
     <use xlink:href="#DejaVuSans-20" transform="translate(1533.195312 0)"/>
     <use xlink:href="#DejaVuSans-58" transform="translate(1564.982422 0)"/>
     <use xlink:href="#DejaVuSans-5f" transform="translate(1633.488281 0)"/>
     <use xlink:href="#DejaVuSans-74" transform="translate(1683.488281 0)"/>
     <use xlink:href="#DejaVuSans-72" transform="translate(1722.697266 0)"/>
     <use xlink:href="#DejaVuSans-61" transform="translate(1763.810547 0)"/>
     <use xlink:href="#DejaVuSans-69" transform="translate(1825.089844 0)"/>
     <use xlink:href="#DejaVuSans-6e" transform="translate(1852.873047 0)"/>
    </g>
   </g>
  </g>
 </g>
 <defs>
  <clipPath id="pd5415decad">
   <rect x="108" y="77.76" width="669.6" height="498.96"/>
  </clipPath>
 </defs>
</svg>
