<?xml version="1.0" encoding="utf-8" standalone="no"?>
<!DOCTYPE svg PUBLIC "-//W3C//DTD SVG 1.1//EN"
  "http://www.w3.org/Graphics/SVG/1.1/DTD/svg11.dtd">
<svg xmlns:xlink="http://www.w3.org/1999/xlink" width="460.8pt" height="345.6pt" viewBox="0 0 460.8 345.6" xmlns="http://www.w3.org/2000/svg" version="1.1">
 <metadata>
  <rdf:RDF xmlns:dc="http://purl.org/dc/elements/1.1/" xmlns:cc="http://creativecommons.org/ns#" xmlns:rdf="http://www.w3.org/1999/02/22-rdf-syntax-ns#">
   <cc:Work>
    <dc:type rdf:resource="http://purl.org/dc/dcmitype/StillImage"/>
    <dc:date>2026-07-05T23:59:34.266634</dc:date>
    <dc:format>image/svg+xml</dc:format>
    <dc:creator>
     <cc:Agent>
      <dc:title>Matplotlib v3.10.0, https://matplotlib.org/</dc:title>
     </cc:Agent>
    </dc:creator>
   </cc:Work>
  </rdf:RDF>
 </metadata>
 <defs>
  <style type="text/css">*{stroke-linejoin: round; stroke-linecap: butt}</style>
 </defs>
 <g id="figure_1">
  <g id="patch_1">
   <path d="M 0 345.6 
L 460.8 345.6 
L 460.8 0 
L 0 0 
z
" style="fill: #ffffff"/>
  </g>
  <g id="axes_1">
   <g id="patch_2">
    <path d="M 103.104 307.584 
L 369.216 307.584 
L 369.216 41.472 
L 103.104 41.472 
z
" style="fill: #ffffff"/>
   </g>
   <g id="matplotlib.axis_1">
    <g id="xtick_1">
     <g id="line2d_1">
      <defs>
       <path id="m2d98b3a00b" d="M 0 0 
L 0 3.5 
" style="stroke: #000000; stroke-width: 0.8"/>
      </defs>
      <g>
       <use xlink:href="#m2d98b3a00b" x="105.712941" y="307.584" style="stroke: #000000; stroke-width: 0.8"/>
      </g>
     </g>
     <g id="text_1">
      <!-- 0.0 -->
      <g transform="translate(96.171066 323.702125) scale(0.12 -0.12)">
       <defs>
        <path id="DejaVuSans-30" d="M 2034 4250 
Q 1547 4250 1301 3770 
Q 1056 3291 1056 2328 
Q 1056 1369 1301 889 
Q 1547 409 2034 409 
Q 2525 409 2770 889 
Q 3016 1369 3016 2328 
Q 3016 3291 2770 3770 
Q 2525 4250 2034 4250 
z
M 2034 4750 
Q 2819 4750 3233 4129 
Q 3647 3509 3647 2328 
Q 3647 1150 3233 529 
Q 2819 -91 2034 -91 
Q 1250 -91 836 529 
Q 422 1150 422 2328 
Q 422 3509 836 4129 
Q 1250 4750 2034 4750 
z
" transform="scale(0.015625)"/>
        <path id="DejaVuSans-2e" d="M 684 794 
L 1344 794 
L 1344 0 
L 684 0 
L 684 794 
z
" transform="scale(0.015625)"/>
       </defs>
       <use xlink:href="#DejaVuSans-30"/>
       <use xlink:href="#DejaVuSans-2e" transform="translate(63.623047 0)"/>
       <use xlink:href="#DejaVuSans-30" transform="translate(95.410156 0)"/>
      </g>
     </g>
    </g>
    <g id="xtick_2">
     <g id="line2d_2">
      <g>
       <use xlink:href="#m2d98b3a00b" x="157.891765" y="307.584" style="stroke: #000000; stroke-width: 0.8"/>
      </g>
     </g>
     <g id="text_2">
      <!-- 0.2 -->
      <g transform="translate(148.34989 323.702125) scale(0.12 -0.12)">
       <defs>
        <path id="DejaVuSans-32" d="M 1228 531 
L 3431 531 
L 3431 0 
L 469 0 
L 469 531 
Q 828 903 1448 1529 
Q 2069 2156 2228 2338 
Q 2531 2678 2651 2914 
Q 2772 3150 2772 3378 
Q 2772 3750 2511 3984 
Q 2250 4219 1831 4219 
Q 1534 4219 1204 4116 
Q 875 4013 500 3803 
L 500 4441 
Q 881 4594 1212 4672 
Q 1544 4750 1819 4750 
Q 2544 4750 2975 4387 
Q 3406 4025 3406 3419 
Q 3406 3131 3298 2873 
Q 3191 2616 2906 2266 
Q 2828 2175 2409 1742 
Q 1991 1309 1228 531 
z
" transform="scale(0.015625)"/>
       </defs>
       <use xlink:href="#DejaVuSans-30"/>
       <use xlink:href="#DejaVuSans-2e" transform="translate(63.623047 0)"/>
       <use xlink:href="#DejaVuSans-32" transform="translate(95.410156 0)"/>
      </g>
     </g>
    </g>
    <g id="xtick_3">
     <g id="line2d_3">
      <g>
       <use xlink:href="#m2d98b3a00b" x="210.070588" y="307.584" style="stroke: #000000; stroke-width: 0.8"/>
      </g>
     </g>
     <g id="text_3">
      <!-- 0.4 -->
      <g transform="translate(200.528713 323.702125) scale(0.12 -0.12)">
       <defs>
        <path id="DejaVuSans-34" d="M 2419 4116 
L 825 1625 
L 2419 1625 
L 2419 4116 
z
M 2253 4666 
L 3047 4666 
L 3047 1625 
L 3713 1625 
L 3713 1100 
L 3047 1100 
L 3047 0 
L 2419 0 
L 2419 1100 
L 313 1100 
L 313 1709 
L 2253 4666 
z
" transform="scale(0.015625)"/>
       </defs>
       <use xlink:href="#DejaVuSans-30"/>
       <use xlink:href="#DejaVuSans-2e" transform="translate(63.623047 0)"/>
       <use xlink:href="#DejaVuSans-34" transform="translate(95.410156 0)"/>
      </g>
     </g>
    </g>
    <g id="xtick_4">
     <g id="line2d_4">
      <g>
       <use xlink:href="#m2d98b3a00b" x="262.249412" y="307.584" style="stroke: #000000; stroke-width: 0.8"/>
      </g>
     </g>
     <g id="text_4">
      <!-- 0.6 -->
      <g transform="translate(252.707537 323.702125) scale(0.12 -0.12)">
       <defs>
        <path id="DejaVuSans-36" d="M 2113 2584 
Q 1688 2584 1439 2293 
Q 1191 2003 1191 1497 
Q 1191 994 1439 701 
Q 1688 409 2113 409 
Q 2538 409 2786 701 
Q 3034 994 3034 1497 
Q 3034 2003 2786 2293 
Q 2538 2584 2113 2584 
z
M 3366 4563 
L 3366 3988 
Q 3128 4100 2886 4159 
Q 2644 4219 2406 4219 
Q 1781 4219 1451 3797 
Q 1122 3375 1075 2522 
Q 1259 2794 1537 2939 
Q 1816 3084 2150 3084 
Q 2853 3084 3261 2657 
Q 3669 2231 3669 1497 
Q 3669 778 3244 343 
Q 2819 -91 2113 -91 
Q 1303 -91 875 529 
Q 447 1150 447 2328 
Q 447 3434 972 4092 
Q 1497 4750 2381 4750 
Q 2619 4750 2861 4703 
Q 3103 4656 3366 4563 
z
" transform="scale(0.015625)"/>
       </defs>
       <use xlink:href="#DejaVuSans-30"/>
       <use xlink:href="#DejaVuSans-2e" transform="translate(63.623047 0)"/>
       <use xlink:href="#DejaVuSans-36" transform="translate(95.410156 0)"/>
      </g>
     </g>
    </g>
    <g id="xtick_5">
     <g id="line2d_5">
      <g>
       <use xlink:href="#m2d98b3a00b" x="314.428235" y="307.584" style="stroke: #000000; stroke-width: 0.8"/>
      </g>
     </g>
     <g id="text_5">
      <!-- 0.8 -->
      <g transform="translate(304.88636 323.702125) scale(0.12 -0.12)">
       <defs>
        <path id="DejaVuSans-38" d="M 2034 2216 
Q 1584 2216 1326 1975 
Q 1069 1734 1069 1313 
Q 1069 891 1326 650 
Q 1584 409 2034 409 
Q 2484 409 2743 651 
Q 3003 894 3003 1313 
Q 3003 1734 2745 1975 
Q 2488 2216 2034 2216 
z
M 1403 2484 
Q 997 2584 770 2862 
Q 544 3141 544 3541 
Q 544 4100 942 4425 
Q 1341 4750 2034 4750 
Q 2731 4750 3128 4425 
Q 3525 4100 3525 3541 
Q 3525 3141 3298 2862 
Q 3072 2584 2669 2484 
Q 3125 2378 3379 2068 
Q 3634 1759 3634 1313 
Q 3634 634 3220 271 
Q 2806 -91 2034 -91 
Q 1263 -91 848 271 
Q 434 634 434 1313 
Q 434 1759 690 2068 
Q 947 2378 1403 2484 
z
M 1172 3481 
Q 1172 3119 1398 2916 
Q 1625 2713 2034 2713 
Q 2441 2713 2670 2916 
Q 2900 3119 2900 3481 
Q 2900 3844 2670 4047 
Q 2441 4250 2034 4250 
Q 1625 4250 1398 4047 
Q 1172 3844 1172 3481 
z
" transform="scale(0.015625)"/>
       </defs>
       <use xlink:href="#DejaVuSans-30"/>
       <use xlink:href="#DejaVuSans-2e" transform="translate(63.623047 0)"/>
       <use xlink:href="#DejaVuSans-38" transform="translate(95.410156 0)"/>
      </g>
     </g>
    </g>
    <g id="xtick_6">
     <g id="line2d_6">
      <g>
       <use xlink:href="#m2d98b3a00b" x="366.607059" y="307.584" style="stroke: #000000; stroke-width: 0.8"/>
      </g>
     </g>
     <g id="text_6">
      <!-- 1.0 -->
      <g transform="translate(357.065184 323.702125) scale(0.12 -0.12)">
       <defs>
        <path id="DejaVuSans-31" d="M 794 531 
L 1825 531 
L 1825 4091 
L 703 3866 
L 703 4441 
L 1819 4666 
L 2450 4666 
L 2450 531 
L 3481 531 
L 3481 0 
L 794 0 
L 794 531 
z
" transform="scale(0.015625)"/>
       </defs>
       <use xlink:href="#DejaVuSans-31"/>
       <use xlink:href="#DejaVuSans-2e" transform="translate(63.623047 0)"/>
       <use xlink:href="#DejaVuSans-30" transform="translate(95.410156 0)"/>
      </g>
     </g>
    </g>
    <g id="text_7">
     <!-- False Positive Rate (Positive label: 1) -->
     <g transform="translate(71.701875 343.874937) scale(0.18 -0.18)">
      <defs>
       <path id="DejaVuSans-46" d="M 628 4666 
L 3309 4666 
L 3309 4134 
L 1259 4134 
L 1259 2759 
L 3109 2759 
L 3109 2228 
L 1259 2228 
L 1259 0 
L 628 0 
L 628 4666 
z
" transform="scale(0.015625)"/>
       <path id="DejaVuSans-61" d="M 2194 1759 
Q 1497 1759 1228 1600 
Q 959 1441 959 1056 
Q 959 750 1161 570 
Q 1363 391 1709 391 
Q 2188 391 2477 730 
Q 2766 1069 2766 1631 
L 2766 1759 
L 2194 1759 
z
M 3341 1997 
L 3341 0 
L 2766 0 
L 2766 531 
Q 2569 213 2275 61 
Q 1981 -91 1556 -91 
Q 1019 -91 701 211 
Q 384 513 384 1019 
Q 384 1609 779 1909 
Q 1175 2209 1959 2209 
L 2766 2209 
L 2766 2266 
Q 2766 2663 2505 2880 
Q 2244 3097 1772 3097 
Q 1472 3097 1187 3025 
Q 903 2953 641 2809 
L 641 3341 
Q 956 3463 1253 3523 
Q 1550 3584 1831 3584 
Q 2591 3584 2966 3190 
Q 3341 2797 3341 1997 
z
" transform="scale(0.015625)"/>
       <path id="DejaVuSans-6c" d="M 603 4863 
L 1178 4863 
L 1178 0 
L 603 0 
L 603 4863 
z
" transform="scale(0.015625)"/>
       <path id="DejaVuSans-73" d="M 2834 3397 
L 2834 2853 
Q 2591 2978 2328 3040 
Q 2066 3103 1784 3103 
Q 1356 3103 1142 2972 
Q 928 2841 928 2578 
Q 928 2378 1081 2264 
Q 1234 2150 1697 2047 
L 1894 2003 
Q 2506 1872 2764 1633 
Q 3022 1394 3022 966 
Q 3022 478 2636 193 
Q 2250 -91 1575 -91 
Q 1294 -91 989 -36 
Q 684 19 347 128 
L 347 722 
Q 666 556 975 473 
Q 1284 391 1588 391 
Q 1994 391 2212 530 
Q 2431 669 2431 922 
Q 2431 1156 2273 1281 
Q 2116 1406 1581 1522 
L 1381 1569 
Q 847 1681 609 1914 
Q 372 2147 372 2553 
Q 372 3047 722 3315 
Q 1072 3584 1716 3584 
Q 2034 3584 2315 3537 
Q 2597 3491 2834 3397 
z
" transform="scale(0.015625)"/>
       <path id="DejaVuSans-65" d="M 3597 1894 
L 3597 1613 
L 953 1613 
Q 991 1019 1311 708 
Q 1631 397 2203 397 
Q 2534 397 2845 478 
Q 3156 559 3463 722 
L 3463 178 
Q 3153 47 2828 -22 
Q 2503 -91 2169 -91 
Q 1331 -91 842 396 
Q 353 884 353 1716 
Q 353 2575 817 3079 
Q 1281 3584 2069 3584 
Q 2775 3584 3186 3129 
Q 3597 2675 3597 1894 
z
M 3022 2063 
Q 3016 2534 2758 2815 
Q 2500 3097 2075 3097 
Q 1594 3097 1305 2825 
Q 1016 2553 972 2059 
L 3022 2063 
z
" transform="scale(0.015625)"/>
       <path id="DejaVuSans-20" transform="scale(0.015625)"/>
       <path id="DejaVuSans-50" d="M 1259 4147 
L 1259 2394 
L 2053 2394 
Q 2494 2394 2734 2622 
Q 2975 2850 2975 3272 
Q 2975 3691 2734 3919 
Q 2494 4147 2053 4147 
L 1259 4147 
z
M 628 4666 
L 2053 4666 
Q 2838 4666 3239 4311 
Q 3641 3956 3641 3272 
Q 3641 2581 3239 2228 
Q 2838 1875 2053 1875 
L 1259 1875 
L 1259 0 
L 628 0 
L 628 4666 
z
" transform="scale(0.015625)"/>
       <path id="DejaVuSans-6f" d="M 1959 3097 
Q 1497 3097 1228 2736 
Q 959 2375 959 1747 
Q 959 1119 1226 758 
Q 1494 397 1959 397 
Q 2419 397 2687 759 
Q 2956 1122 2956 1747 
Q 2956 2369 2687 2733 
Q 2419 3097 1959 3097 
z
M 1959 3584 
Q 2709 3584 3137 3096 
Q 3566 2609 3566 1747 
Q 3566 888 3137 398 
Q 2709 -91 1959 -91 
Q 1206 -91 779 398 
Q 353 888 353 1747 
Q 353 2609 779 3096 
Q 1206 3584 1959 3584 
z
" transform="scale(0.015625)"/>
       <path id="DejaVuSans-69" d="M 603 3500 
L 1178 3500 
L 1178 0 
L 603 0 
L 603 3500 
z
M 603 4863 
L 1178 4863 
L 1178 4134 
L 603 4134 
L 603 4863 
z
" transform="scale(0.015625)"/>
       <path id="DejaVuSans-74" d="M 1172 4494 
L 1172 3500 
L 2356 3500 
L 2356 3053 
L 1172 3053 
L 1172 1153 
Q 1172 725 1289 603 
Q 1406 481 1766 481 
L 2356 481 
L 2356 0 
L 1766 0 
Q 1100 0 847 248 
Q 594 497 594 1153 
L 594 3053 
L 172 3053 
L 172 3500 
L 594 3500 
L 594 4494 
L 1172 4494 
z
" transform="scale(0.015625)"/>
       <path id="DejaVuSans-76" d="M 191 3500 
L 800 3500 
L 1894 563 
L 2988 3500 
L 3597 3500 
L 2284 0 
L 1503 0 
L 191 3500 
z
" transform="scale(0.015625)"/>
       <path id="DejaVuSans-52" d="M 2841 2188 
Q 3044 2119 3236 1894 
Q 3428 1669 3622 1275 
L 4263 0 
L 3584 0 
L 2988 1197 
Q 2756 1666 2539 1819 
Q 2322 1972 1947 1972 
L 1259 1972 
L 1259 0 
L 628 0 
L 628 4666 
L 2053 4666 
Q 2853 4666 3247 4331 
Q 3641 3997 3641 3322 
Q 3641 2881 3436 2590 
Q 3231 2300 2841 2188 
z
M 1259 4147 
L 1259 2491 
L 2053 2491 
Q 2509 2491 2742 2702 
Q 2975 2913 2975 3322 
Q 2975 3731 2742 3939 
Q 2509 4147 2053 4147 
L 1259 4147 
z
" transform="scale(0.015625)"/>
       <path id="DejaVuSans-28" d="M 1984 4856 
Q 1566 4138 1362 3434 
Q 1159 2731 1159 2009 
Q 1159 1288 1364 580 
Q 1569 -128 1984 -844 
L 1484 -844 
Q 1016 -109 783 600 
Q 550 1309 550 2009 
Q 550 2706 781 3412 
Q 1013 4119 1484 4856 
L 1984 4856 
z
" transform="scale(0.015625)"/>
       <path id="DejaVuSans-62" d="M 3116 1747 
Q 3116 2381 2855 2742 
Q 2594 3103 2138 3103 
Q 1681 3103 1420 2742 
Q 1159 2381 1159 1747 
Q 1159 1113 1420 752 
Q 1681 391 2138 391 
Q 2594 391 2855 752 
Q 3116 1113 3116 1747 
z
M 1159 2969 
Q 1341 3281 1617 3432 
Q 1894 3584 2278 3584 
Q 2916 3584 3314 3078 
Q 3713 2572 3713 1747 
Q 3713 922 3314 415 
Q 2916 -91 2278 -91 
Q 1894 -91 1617 61 
Q 1341 213 1159 525 
L 1159 0 
L 581 0 
L 581 4863 
L 1159 4863 
L 1159 2969 
z
" transform="scale(0.015625)"/>
       <path id="DejaVuSans-3a" d="M 750 794 
L 1409 794 
L 1409 0 
L 750 0 
L 750 794 
z
M 750 3309 
L 1409 3309 
L 1409 2516 
L 750 2516 
L 750 3309 
z
" transform="scale(0.015625)"/>
       <path id="DejaVuSans-29" d="M 513 4856 
L 1013 4856 
Q 1481 4119 1714 3412 
Q 1947 2706 1947 2009 
Q 1947 1309 1714 600 
Q 1481 -109 1013 -844 
L 513 -844 
Q 928 -128 1133 580 
Q 1338 1288 1338 2009 
Q 1338 2731 1133 3434 
Q 928 4138 513 4856 
z
" transform="scale(0.015625)"/>
      </defs>
      <use xlink:href="#DejaVuSans-46"/>
      <use xlink:href="#DejaVuSans-61" transform="translate(48.394531 0)"/>
      <use xlink:href="#DejaVuSans-6c" transform="translate(109.673828 0)"/>
      <use xlink:href="#DejaVuSans-73" transform="translate(137.457031 0)"/>
      <use xlink:href="#DejaVuSans-65" transform="translate(189.556641 0)"/>
      <use xlink:href="#DejaVuSans-20" transform="translate(251.080078 0)"/>
      <use xlink:href="#DejaVuSans-50" transform="translate(282.867188 0)"/>
      <use xlink:href="#DejaVuSans-6f" transform="translate(339.544922 0)"/>
      <use xlink:href="#DejaVuSans-73" transform="translate(400.726562 0)"/>
      <use xlink:href="#DejaVuSans-69" transform="translate(452.826172 0)"/>
      <use xlink:href="#DejaVuSans-74" transform="translate(480.609375 0)"/>
      <use xlink:href="#DejaVuSans-69" transform="translate(519.818359 0)"/>
      <use xlink:href="#DejaVuSans-76" transform="translate(547.601562 0)"/>
      <use xlink:href="#DejaVuSans-65" transform="translate(606.78125 0)"/>
      <use xlink:href="#DejaVuSans-20" transform="translate(668.304688 0)"/>
      <use xlink:href="#DejaVuSans-52" transform="translate(700.091797 0)"/>
      <use xlink:href="#DejaVuSans-61" transform="translate(767.324219 0)"/>
      <use xlink:href="#DejaVuSans-74" transform="translate(828.603516 0)"/>
      <use xlink:href="#DejaVuSans-65" transform="translate(867.8125 0)"/>
      <use xlink:href="#DejaVuSans-20" transform="translate(929.335938 0)"/>
      <use xlink:href="#DejaVuSans-28" transform="translate(961.123047 0)"/>
      <use xlink:href="#DejaVuSans-50" transform="translate(1000.136719 0)"/>
      <use xlink:href="#DejaVuSans-6f" transform="translate(1056.814453 0)"/>
      <use xlink:href="#DejaVuSans-73" transform="translate(1117.996094 0)"/>
      <use xlink:href="#DejaVuSans-69" transform="translate(1170.095703 0)"/>
      <use xlink:href="#DejaVuSans-74" transform="translate(1197.878906 0)"/>
      <use xlink:href="#DejaVuSans-69" transform="translate(1237.087891 0)"/>
      <use xlink:href="#DejaVuSans-76" transform="translate(1264.871094 0)"/>
      <use xlink:href="#DejaVuSans-65" transform="translate(1324.050781 0)"/>
      <use xlink:href="#DejaVuSans-20" transform="translate(1385.574219 0)"/>
      <use xlink:href="#DejaVuSans-6c" transform="translate(1417.361328 0)"/>
      <use xlink:href="#DejaVuSans-61" transform="translate(1445.144531 0)"/>
      <use xlink:href="#DejaVuSans-62" transform="translate(1506.423828 0)"/>
      <use xlink:href="#DejaVuSans-65" transform="translate(1569.900391 0)"/>
      <use xlink:href="#DejaVuSans-6c" transform="translate(1631.423828 0)"/>
      <use xlink:href="#DejaVuSans-3a" transform="translate(1659.207031 0)"/>
      <use xlink:href="#DejaVuSans-20" transform="translate(1692.898438 0)"/>
      <use xlink:href="#DejaVuSans-31" transform="translate(1724.685547 0)"/>
      <use xlink:href="#DejaVuSans-29" transform="translate(1788.308594 0)"/>
     </g>
    </g>
   </g>
   <g id="matplotlib.axis_2">
    <g id="ytick_1">
     <g id="line2d_7">
      <defs>
       <path id="mca3704188d" d="M 0 0 
L -3.5 0 
" style="stroke: #000000; stroke-width: 0.8"/>
      </defs>
      <g>
       <use xlink:href="#mca3704188d" x="103.104" y="304.975059" style="stroke: #000000; stroke-width: 0.8"/>
      </g>
     </g>
     <g id="text_8">
      <!-- 0.0 -->
      <g transform="translate(77.02025 309.534121) scale(0.12 -0.12)">
       <use xlink:href="#DejaVuSans-30"/>
       <use xlink:href="#DejaVuSans-2e" transform="translate(63.623047 0)"/>
       <use xlink:href="#DejaVuSans-30" transform="translate(95.410156 0)"/>
      </g>
     </g>
    </g>
    <g id="ytick_2">
     <g id="line2d_8">
      <g>
       <use xlink:href="#mca3704188d" x="103.104" y="252.796235" style="stroke: #000000; stroke-width: 0.8"/>
      </g>
     </g>
     <g id="text_9">
      <!-- 0.2 -->
      <g transform="translate(77.02025 257.355298) scale(0.12 -0.12)">
       <use xlink:href="#DejaVuSans-30"/>
       <use xlink:href="#DejaVuSans-2e" transform="translate(63.623047 0)"/>
       <use xlink:href="#DejaVuSans-32" transform="translate(95.410156 0)"/>
      </g>
     </g>
    </g>
    <g id="ytick_3">
     <g id="line2d_9">
      <g>
       <use xlink:href="#mca3704188d" x="103.104" y="200.617412" style="stroke: #000000; stroke-width: 0.8"/>
      </g>
     </g>
     <g id="text_10">
      <!-- 0.4 -->
      <g transform="translate(77.02025 205.176474) scale(0.12 -0.12)">
       <use xlink:href="#DejaVuSans-30"/>
       <use xlink:href="#DejaVuSans-2e" transform="translate(63.623047 0)"/>
       <use xlink:href="#DejaVuSans-34" transform="translate(95.410156 0)"/>
      </g>
     </g>
    </g>
    <g id="ytick_4">
     <g id="line2d_10">
      <g>
       <use xlink:href="#mca3704188d" x="103.104" y="148.438588" style="stroke: #000000; stroke-width: 0.8"/>
      </g>
     </g>
     <g id="text_11">
      <!-- 0.6 -->
      <g transform="translate(77.02025 152.997651) scale(0.12 -0.12)">
       <use xlink:href="#DejaVuSans-30"/>
       <use xlink:href="#DejaVuSans-2e" transform="translate(63.623047 0)"/>
       <use xlink:href="#DejaVuSans-36" transform="translate(95.410156 0)"/>
      </g>
     </g>
    </g>
    <g id="ytick_5">
     <g id="line2d_11">
      <g>
       <use xlink:href="#mca3704188d" x="103.104" y="96.259765" style="stroke: #000000; stroke-width: 0.8"/>
      </g>
     </g>
     <g id="text_12">
      <!-- 0.8 -->
      <g transform="translate(77.02025 100.818827) scale(0.12 -0.12)">
       <use xlink:href="#DejaVuSans-30"/>
       <use xlink:href="#DejaVuSans-2e" transform="translate(63.623047 0)"/>
       <use xlink:href="#DejaVuSans-38" transform="translate(95.410156 0)"/>
      </g>
     </g>
    </g>
    <g id="ytick_6">
     <g id="line2d_12">
      <g>
       <use xlink:href="#mca3704188d" x="103.104" y="44.080941" style="stroke: #000000; stroke-width: 0.8"/>
      </g>
     </g>
     <g id="text_13">
      <!-- 1.0 -->
      <g transform="translate(77.02025 48.640004) scale(0.12 -0.12)">
       <use xlink:href="#DejaVuSans-31"/>
       <use xlink:href="#DejaVuSans-2e" transform="translate(63.623047 0)"/>
       <use xlink:href="#DejaVuSans-30" transform="translate(95.410156 0)"/>
      </g>
     </g>
    </g>
    <g id="text_14">
     <!-- True Positive Rate (Positive label: 1) -->
     <g transform="translate(69.276813 335.500031) rotate(-90) scale(0.18 -0.18)">
      <defs>
       <path id="DejaVuSans-54" d="M -19 4666 
L 3928 4666 
L 3928 4134 
L 2272 4134 
L 2272 0 
L 1638 0 
L 1638 4134 
L -19 4134 
L -19 4666 
z
" transform="scale(0.015625)"/>
       <path id="DejaVuSans-72" d="M 2631 2963 
Q 2534 3019 2420 3045 
Q 2306 3072 2169 3072 
Q 1681 3072 1420 2755 
Q 1159 2438 1159 1844 
L 1159 0 
L 581 0 
L 581 3500 
L 1159 3500 
L 1159 2956 
Q 1341 3275 1631 3429 
Q 1922 3584 2338 3584 
Q 2397 3584 2469 3576 
Q 2541 3569 2628 3553 
L 2631 2963 
z
" transform="scale(0.015625)"/>
       <path id="DejaVuSans-75" d="M 544 1381 
L 544 3500 
L 1119 3500 
L 1119 1403 
Q 1119 906 1312 657 
Q 1506 409 1894 409 
Q 2359 409 2629 706 
Q 2900 1003 2900 1516 
L 2900 3500 
L 3475 3500 
L 3475 0 
L 2900 0 
L 2900 538 
Q 2691 219 2414 64 
Q 2138 -91 1772 -91 
Q 1169 -91 856 284 
Q 544 659 544 1381 
z
M 1991 3584 
L 1991 3584 
z
" transform="scale(0.015625)"/>
      </defs>
      <use xlink:href="#DejaVuSans-54"/>
      <use xlink:href="#DejaVuSans-72" transform="translate(46.333984 0)"/>
      <use xlink:href="#DejaVuSans-75" transform="translate(87.447266 0)"/>
      <use xlink:href="#DejaVuSans-65" transform="translate(150.826172 0)"/>
      <use xlink:href="#DejaVuSans-20" transform="translate(212.349609 0)"/>
      <use xlink:href="#DejaVuSans-50" transform="translate(244.136719 0)"/>
      <use xlink:href="#DejaVuSans-6f" transform="translate(300.814453 0)"/>
      <use xlink:href="#DejaVuSans-73" transform="translate(361.996094 0)"/>
      <use xlink:href="#DejaVuSans-69" transform="translate(414.095703 0)"/>
      <use xlink:href="#DejaVuSans-74" transform="translate(441.878906 0)"/>
      <use xlink:href="#DejaVuSans-69" transform="translate(481.087891 0)"/>
      <use xlink:href="#DejaVuSans-76" transform="translate(508.871094 0)"/>
      <use xlink:href="#DejaVuSans-65" transform="translate(568.050781 0)"/>
      <use xlink:href="#DejaVuSans-20" transform="translate(629.574219 0)"/>
      <use xlink:href="#DejaVuSans-52" transform="translate(661.361328 0)"/>
      <use xlink:href="#DejaVuSans-61" transform="translate(728.59375 0)"/>
      <use xlink:href="#DejaVuSans-74" transform="translate(789.873047 0)"/>
      <use xlink:href="#DejaVuSans-65" transform="translate(829.082031 0)"/>
      <use xlink:href="#DejaVuSans-20" transform="translate(890.605469 0)"/>
      <use xlink:href="#DejaVuSans-28" transform="translate(922.392578 0)"/>
      <use xlink:href="#DejaVuSans-50" transform="translate(961.40625 0)"/>
      <use xlink:href="#DejaVuSans-6f" transform="translate(1018.083984 0)"/>
      <use xlink:href="#DejaVuSans-73" transform="translate(1079.265625 0)"/>
      <use xlink:href="#DejaVuSans-69" transform="translate(1131.365234 0)"/>
      <use xlink:href="#DejaVuSans-74" transform="translate(1159.148438 0)"/>
      <use xlink:href="#DejaVuSans-69" transform="translate(1198.357422 0)"/>
      <use xlink:href="#DejaVuSans-76" transform="translate(1226.140625 0)"/>
      <use xlink:href="#DejaVuSans-65" transform="translate(1285.320312 0)"/>
      <use xlink:href="#DejaVuSans-20" transform="translate(1346.84375 0)"/>
      <use xlink:href="#DejaVuSans-6c" transform="translate(1378.630859 0)"/>
      <use xlink:href="#DejaVuSans-61" transform="translate(1406.414062 0)"/>
      <use xlink:href="#DejaVuSans-62" transform="translate(1467.693359 0)"/>
      <use xlink:href="#DejaVuSans-65" transform="translate(1531.169922 0)"/>
      <use xlink:href="#DejaVuSans-6c" transform="translate(1592.693359 0)"/>
      <use xlink:href="#DejaVuSans-3a" transform="translate(1620.476562 0)"/>
      <use xlink:href="#DejaVuSans-20" transform="translate(1654.167969 0)"/>
      <use xlink:href="#DejaVuSans-31" transform="translate(1685.955078 0)"/>
      <use xlink:href="#DejaVuSans-29" transform="translate(1749.578125 0)"/>
     </g>
    </g>
   </g>
   <g id="line2d_13">
    <path d="M 105.712941 304.975059 
L 105.823206 242.502062 
L 105.824876 242.502062 
L 105.935141 231.386234 
L 105.941824 231.302856 
L 106.052088 225.345106 
L 106.0571 225.273098 
L 106.167364 221.123138 
L 106.172377 221.05492 
L 106.282641 217.446919 
L 106.287653 217.344591 
L 106.397918 215.044111 
L 106.399588 215.044111 
L 106.508182 212.482127 
L 106.516535 212.376009 
L 106.6268 210.431782 
L 106.648519 210.333244 
L 106.758783 208.188151 
L 106.765466 208.078243 
L 106.87573 206.554696 
L 106.879072 206.501637 
L 106.989336 205.156217 
L 106.994348 205.095578 
L 107.104613 203.681939 
L 107.128002 203.579611 
L 107.238267 202.24935 
L 107.249961 202.147022 
L 107.360226 200.718224 
L 107.366908 200.608316 
L 107.477173 199.50166 
L 107.488868 199.391753 
L 107.597461 198.455643 
L 107.612497 198.345735 
L 107.722762 197.261819 
L 107.747822 197.159491 
L 107.858087 196.234751 
L 107.869781 196.136214 
L 107.980046 195.36686 
L 107.995082 195.256953 
L 108.105346 194.157877 
L 108.117041 194.051759 
L 108.227305 193.278616 
L 108.242342 193.172498 
L 108.352606 192.043103 
L 108.372654 191.948355 
L 108.482919 190.826539 
L 108.491272 190.743161 
L 108.601536 189.280253 
L 108.618243 189.177925 
L 108.728508 187.802185 
L 108.73519 187.730177 
L 108.843784 186.043664 
L 108.852138 185.941336 
L 108.962402 184.37231 
L 108.977438 184.269982 
L 109.086032 182.932142 
L 109.094385 182.863923 
L 109.20465 181.416175 
L 109.219686 181.310057 
L 109.32995 180.078334 
L 109.339974 179.972216 
L 109.450239 178.463829 
L 109.465275 178.372871 
L 109.575539 177.05777 
L 109.585563 176.959232 
L 109.695828 176.007963 
L 109.709193 175.973853 
L 109.819458 174.814139 
L 109.836165 174.704231 
L 109.946429 173.771911 
L 109.961465 173.662004 
L 110.07173 172.801693 
L 110.091778 172.699365 
L 110.202042 171.626818 
L 110.22209 171.52828 
L 110.330684 170.395095 
L 110.340708 170.285188 
L 110.449302 169.25433 
L 110.467679 169.152002 
L 110.576273 168.32201 
L 110.59298 168.227262 
L 110.703244 167.249464 
L 110.721622 167.158506 
L 110.831886 166.082169 
L 110.850264 165.979842 
L 110.960528 165.271127 
L 110.977235 165.180169 
L 111.087499 164.463875 
L 111.107547 164.361547 
L 111.217812 163.512605 
L 111.23786 163.417857 
L 111.346454 162.519647 
L 111.369843 162.409739 
L 111.480108 161.682075 
L 111.496814 161.591117 
L 111.607079 160.613319 
L 111.622115 160.503411 
L 111.730709 159.699949 
L 111.747416 159.590041 
L 111.85768 158.786578 
L 111.869375 158.676671 
L 111.979639 157.78604 
L 111.999687 157.679923 
L 112.109952 156.967418 
L 112.124988 156.8613 
L 112.235252 156.095737 
L 112.248618 155.98583 
L 112.358882 155.201317 
L 112.372248 155.121728 
L 112.482512 154.428174 
L 112.499219 154.325846 
L 112.607813 153.711879 
L 112.621178 153.605761 
L 112.731443 152.798509 
L 112.751491 152.688602 
L 112.860084 151.900299 
L 112.883474 151.816921 
L 112.993738 151.074097 
L 113.012116 150.971769 
L 113.117368 150.209996 
L 113.140758 150.126617 
L 113.251022 149.281466 
L 113.272741 149.171558 
L 113.383005 148.496953 
L 113.406395 148.390835 
L 113.513318 147.598743 
L 113.538378 147.492625 
L 113.646972 146.836969 
L 113.66702 146.738431 
L 113.777284 146.135834 
L 113.79232 146.052456 
L 113.900914 145.328582 
L 113.924304 145.245204 
L 114.034568 144.324254 
L 114.069652 144.218136 
L 114.179917 143.706497 
L 114.201636 143.59659 
L 114.3119 142.804497 
L 114.33696 142.69459 
L 114.447225 142.016194 
L 114.472285 141.906287 
L 114.580879 141.224102 
L 114.592573 141.121774 
L 114.701167 140.496438 
L 114.734581 140.38653 
L 114.843174 139.806673 
L 114.868235 139.700555 
L 114.976828 138.885723 
L 115.003559 138.775815 
L 115.113824 138.131529 
L 115.12886 138.021622 
L 115.239124 137.320487 
L 115.262514 137.218159 
L 115.369437 136.661041 
L 115.396167 136.551134 
L 115.503091 135.751461 
L 115.528151 135.645343 
L 115.638415 134.989688 
L 115.655122 134.87978 
L 115.763716 134.125587 
L 115.788776 134.015679 
L 115.89904 133.272855 
L 115.940807 133.162948 
L 116.051072 132.378435 
L 116.076132 132.276107 
L 116.186396 131.650771 
L 116.199762 131.544653 
L 116.310026 131.089863 
L 116.335086 130.979955 
L 116.44368 130.502426 
L 116.46707 130.392518 
L 116.575663 129.600425 
L 116.595711 129.494308 
L 116.705976 128.899291 
L 116.724353 128.789383 
L 116.834618 128.129937 
L 116.847983 128.038979 
L 116.958248 127.318895 
L 116.981637 127.208987 
L 117.090231 126.685979 
L 117.11195 126.579861 
L 117.222214 126.037903 
L 117.245604 125.954525 
L 117.355868 125.302659 
L 117.374245 125.196541 
L 117.482839 124.593944 
L 117.519594 124.491617 
L 117.629859 123.934499 
L 117.651577 123.839751 
L 117.761842 123.312952 
L 117.778549 123.206835 
L 117.887142 122.581498 
L 117.917215 122.471591 
L 118.027479 121.929633 
L 118.049198 121.834885 
L 118.159462 121.281557 
L 118.172828 121.171649 
L 118.283092 120.527363 
L 118.306482 120.425035 
L 118.416746 119.977825 
L 118.436794 119.867918 
L 118.547059 119.325959 
L 118.570448 119.223632 
L 118.680713 118.757472 
L 118.704102 118.658934 
L 118.814366 118.177614 
L 118.844439 118.067707 
L 118.954703 117.48406 
L 118.984775 117.374152 
L 119.09504 116.907992 
L 119.103393 116.809454 
L 119.213658 116.373614 
L 119.2454 116.263706 
L 119.353994 115.786177 
L 119.385737 115.676269 
L 119.49266 115.17979 
L 119.529415 115.077462 
L 119.639679 114.562033 
L 119.664739 114.452126 
L 119.775004 113.913958 
L 119.801735 113.80784 
L 119.911999 113.114285 
L 119.935389 113.030907 
L 120.043982 112.519268 
L 120.070713 112.41694 
L 120.180978 111.96594 
L 120.209379 111.867402 
L 120.319644 111.329234 
L 120.33635 111.223116 
L 120.446615 110.711477 
L 120.48337 110.631889 
L 120.593634 110.097511 
L 120.612012 109.991393 
L 120.722276 109.631351 
L 120.742324 109.555553 
L 120.850918 109.013594 
L 120.88099 108.907477 
L 120.989584 108.30488 
L 121.024668 108.206342 
L 121.134933 107.759132 
L 121.166675 107.653014 
L 121.273599 107.179274 
L 121.302 107.084527 
L 121.412264 106.652476 
L 121.435654 106.557728 
L 121.545918 105.890703 
L 121.586015 105.792165 
L 121.696279 105.432123 
L 121.728022 105.333585 
L 121.834945 104.954593 
L 121.865017 104.859845 
L 121.975282 104.431584 
L 122.010366 104.321677 
L 122.12063 103.760769 
L 122.14569 103.662231 
L 122.250943 103.101323 
L 122.279344 102.995206 
L 122.389609 102.604844 
L 122.428034 102.498727 
L 122.534957 102.115945 
L 122.575054 102.006037 
L 122.683647 101.528508 
L 122.730426 101.42997 
L 122.837349 100.9676 
L 122.877446 100.876642 
L 122.986039 100.459751 
L 123.016111 100.349843 
L 123.124705 99.936742 
L 123.154777 99.826835 
L 123.265042 99.356885 
L 123.288431 99.262137 
L 123.398696 98.879356 
L 123.423756 98.773238 
L 123.53235 98.386666 
L 123.572446 98.284339 
L 123.68271 97.928086 
L 123.732831 97.818179 
L 123.843095 97.393708 
L 123.873167 97.29896 
L 123.983432 96.85175 
L 124.006821 96.749422 
L 124.117086 96.233993 
L 124.157182 96.124086 
L 124.265776 95.748884 
L 124.294177 95.650346 
L 124.404442 95.241035 
L 124.442867 95.142497 
L 124.553132 94.748346 
L 124.584874 94.642228 
L 124.693468 94.369354 
L 124.725211 94.274606 
L 124.835475 93.880455 
L 124.875572 93.778127 
L 124.985836 93.455984 
L 125.025932 93.349866 
L 125.131185 93.073202 
L 125.172952 92.963295 
L 125.283216 92.667681 
L 125.3183 92.557773 
L 125.428565 92.247 
L 125.460307 92.137093 
L 125.568901 91.81116 
L 125.605656 91.701252 
L 125.715921 91.428378 
L 125.766041 91.32226 
L 125.876305 91.019067 
L 125.924755 90.916739 
L 126.035019 90.624916 
L 126.08681 90.518798 
L 126.195404 90.245924 
L 126.2355 90.136016 
L 126.345765 89.836613 
L 126.38419 89.726705 
L 126.494455 89.457621 
L 126.537892 89.355293 
L 126.648157 89.06347 
L 126.694936 88.957352 
L 126.8052 88.756486 
L 126.85365 88.650369 
L 126.960573 88.354755 
L 127.007352 88.244848 
L 127.117616 88.025032 
L 127.204491 87.915125 
L 127.314756 87.67636 
L 127.371559 87.574032 
L 127.481823 87.248099 
L 127.535285 87.149561 
L 127.643878 86.842578 
L 127.702352 86.732671 
L 127.812616 86.456007 
L 127.867749 86.346099 
L 127.978013 86.103544 
L 128.04484 85.997427 
L 128.155105 85.735922 
L 128.221932 85.626015 
L 128.332196 85.3683 
L 128.378975 85.262183 
L 128.487569 85.087846 
L 128.554396 84.977939 
L 128.66466 84.689905 
L 128.706427 84.579998 
L 128.815021 84.212376 
L 128.866812 84.110048 
L 128.975406 83.814434 
L 129.003807 83.715896 
L 129.11073 83.329325 
L 129.150826 83.230787 
L 129.25942 82.901064 
L 129.296175 82.798736 
L 129.406439 82.279518 
L 129.45823 82.16961 
L 129.566824 81.832307 
L 129.585202 81.72619 
L 129.695466 81.25245 
L 129.73055 81.146332 
L 129.840815 80.725652 
L 129.872557 80.615744 
L 129.982822 80.248122 
L 130.007882 80.138214 
L 130.114805 79.717534 
L 130.148219 79.607626 
L 130.258483 79.133886 
L 130.295238 79.031559 
L 130.405502 78.656357 
L 130.447269 78.550239 
L 130.557534 78.000701 
L 130.587606 77.917323 
L 130.6962 77.473903 
L 130.717918 77.363995 
L 130.828183 76.950894 
L 130.864938 76.840986 
L 130.975202 76.579482 
L 130.998592 76.473364 
L 131.102173 76.1967 
L 131.163988 76.086793 
L 131.2659 75.7457 
L 131.307666 75.635793 
L 131.41459 75.340179 
L 131.459698 75.234061 
L 131.569962 74.892969 
L 131.618412 74.802011 
L 131.728676 74.434389 
L 131.780467 74.332061 
L 131.880708 74.040238 
L 131.930828 73.949279 
L 132.041092 73.702935 
L 132.089542 73.600607 
L 132.199806 73.278464 
L 132.249926 73.168557 
L 132.360191 72.941161 
L 132.413653 72.846414 
L 132.523917 72.54701 
L 132.559001 72.440892 
L 132.667595 72.217287 
L 132.732751 72.10738 
L 132.843016 71.921674 
L 132.888124 71.819346 
L 132.995047 71.63364 
L 133.061874 71.531312 
L 133.172139 71.273598 
L 133.25066 71.16748 
L 133.360925 70.879446 
L 133.406033 70.769539 
L 133.511285 70.617942 
L 133.583124 70.508035 
L 133.693389 70.326119 
L 133.743509 70.216211 
L 133.848761 70.041875 
L 133.89387 69.939547 
L 134.004134 69.678043 
L 134.087668 69.571925 
L 134.197932 69.397589 
L 134.264759 69.291471 
L 134.373353 69.105765 
L 134.420132 69.003437 
L 134.528726 68.87079 
L 134.600565 68.768463 
L 134.710829 68.556227 
L 134.764291 68.453899 
L 134.874555 68.230294 
L 134.953077 68.120387 
L 135.06 67.94605 
L 135.188642 67.836143 
L 135.298906 67.661807 
L 135.385782 67.551899 
L 135.494375 67.400302 
L 135.607981 67.290395 
L 135.716575 67.119848 
L 135.791755 67.009941 
L 135.897008 66.911403 
L 136.018967 66.801495 
L 136.129231 66.706748 
L 136.237825 66.59684 
L 136.34809 66.483142 
L 136.456684 66.377025 
L 136.561936 66.286067 
L 136.643799 66.176159 
L 136.752393 66.073831 
L 136.882705 65.963924 
L 136.99297 65.861596 
L 137.099893 65.751688 
L 137.205145 65.645571 
L 137.307057 65.543243 
L 137.41565 65.365117 
L 137.487489 65.262789 
L 137.594413 64.959596 
L 137.651215 64.849688 
L 137.76148 64.732201 
L 137.821624 64.622293 
L 137.931889 64.413848 
L 137.993704 64.30394 
L 138.103968 64.087915 
L 138.1591 63.978007 
L 138.267694 63.746822 
L 138.337862 63.636914 
L 138.446456 63.40573 
L 138.499918 63.295822 
L 138.606841 63.068427 
L 138.671997 62.958519 
L 138.782262 62.765234 
L 138.874149 62.655326 
L 138.982743 62.515099 
L 139.151481 62.405191 
L 139.260074 62.268754 
L 139.343608 62.158847 
L 139.453873 62.00725 
L 139.619269 61.904922 
L 139.729534 61.795015 
L 139.813068 61.692687 
L 139.914979 61.582779 
L 140.028584 61.472872 
L 140.138849 61.355384 
L 140.274174 61.245477 
L 140.377755 61.158309 
L 140.504727 61.048401 
L 140.614991 60.991552 
L 140.783729 60.885435 
L 140.88397 60.828586 
L 141.081109 60.718678 
L 141.184691 60.661829 
L 141.38183 60.551922 
L 141.492095 60.464754 
L 141.70427 60.354846 
L 141.812864 60.286628 
L 142.018357 60.17672 
L 142.128622 60.119871 
L 142.436026 60.009964 
L 142.539607 59.972064 
L 142.753454 59.862157 
L 142.863718 59.774989 
L 143.049163 59.665081 
L 143.142721 59.585493 
L 143.400005 59.475585 
L 143.506928 59.399787 
L 143.68569 59.293669 
L 143.789272 59.225451 
L 144.053238 59.115543 
L 144.151808 59.043535 
L 144.407421 58.933627 
L 144.514344 58.872988 
L 144.781652 58.763081 
L 144.880222 58.721392 
L 145.221039 58.611484 
L 145.324621 58.558425 
L 145.655414 58.448518 
L 145.758996 58.418198 
L 146.129886 58.308291 
L 146.218432 58.266602 
L 146.484069 58.156694 
L 146.590992 58.111215 
L 146.854958 58.001307 
L 146.960211 57.940669 
L 147.209141 57.830761 
L 147.312723 57.762543 
L 147.563324 57.652635 
L 147.660223 57.584417 
L 147.860704 57.489669 
L 147.947579 57.40629 
L 148.112976 57.296383 
L 148.22157 57.239534 
L 148.52062 57.129626 
L 148.617519 57.068988 
L 148.881486 56.95908 
L 148.971702 56.906021 
L 149.2624 56.796114 
L 149.365981 56.739265 
L 149.641643 56.629357 
L 149.7352 56.595248 
L 149.984131 56.48913 
L 150.0827 56.413332 
L 150.23139 56.303424 
L 150.341655 56.250366 
L 150.540465 56.140458 
L 150.645718 56.07224 
L 150.936415 55.962332 
L 151.046679 55.932013 
L 151.327353 55.825895 
L 151.430934 55.742517 
L 151.699913 55.632609 
L 151.810177 55.549231 
L 152.052425 55.439323 
L 152.157678 55.390054 
L 152.541933 55.280147 
L 152.648856 55.227088 
L 152.871055 55.11718 
L 152.977978 55.083071 
L 153.185142 54.973164 
L 153.285382 54.935264 
L 153.571068 54.825357 
L 153.677991 54.768508 
L 154.100671 54.6586 
L 154.207594 54.613121 
L 154.499962 54.503214 
L 154.605215 54.446365 
L 154.937679 54.336457 
L 155.027895 54.306138 
L 155.296874 54.19623 
L 155.398785 54.165911 
L 155.625997 54.059793 
L 155.704518 54.033264 
L 156.103809 53.923356 
L 156.214074 53.885457 
L 156.52649 53.77555 
L 156.613365 53.726281 
L 157.099531 53.616373 
L 157.209796 53.586054 
L 157.577344 53.476146 
L 157.6425 53.449617 
L 158.232248 53.339709 
L 158.319123 53.3056 
L 158.912212 53.195692 
L 158.990734 53.150213 
L 159.403391 53.040306 
L 159.490266 52.994827 
L 159.944689 52.884919 
L 160.048271 52.84702 
L 160.524413 52.737112 
L 160.629665 52.710583 
L 161.145903 52.600675 
L 161.247815 52.585516 
L 161.618704 52.475608 
L 161.695555 52.445289 
L 162.40058 52.335381 
L 162.479101 52.308852 
L 162.906794 52.198944 
L 162.998681 52.164835 
L 163.486518 52.054927 
L 163.590099 52.024608 
L 164.331879 51.91849 
L 164.437131 51.891961 
L 164.976759 51.782053 
L 165.087023 51.747944 
L 165.683454 51.638036 
L 165.793718 51.592557 
L 166.304945 51.48265 
L 166.386808 51.444751 
L 166.974885 51.334843 
L 167.083479 51.308313 
L 167.673227 51.198406 
L 167.783491 51.168087 
L 168.416677 51.061969 
L 168.50021 51.050599 
L 169.215259 50.940692 
L 169.313828 50.921742 
L 169.786629 50.815624 
L 169.866822 50.796675 
L 170.637002 50.686767 
L 170.727219 50.667817 
L 171.562556 50.55791 
L 171.666137 50.54275 
L 172.409587 50.432843 
L 172.496462 50.402523 
L 173.077857 50.292616 
L 173.151367 50.273666 
L 173.75448 50.163758 
L 173.839684 50.133439 
L 174.972401 50.023532 
L 175.034216 50.008372 
L 175.637329 49.898464 
L 175.727546 49.879515 
L 176.260491 49.769607 
L 176.370755 49.746868 
L 177.062414 49.63696 
L 177.112535 49.6218 
L 178.049783 49.511893 
L 178.134987 49.489153 
L 178.93524 49.379246 
L 179.025456 49.356506 
L 179.700409 49.246598 
L 179.763894 49.227649 
L 180.330253 49.117741 
L 180.440517 49.091212 
L 181.31595 48.981304 
L 181.366071 48.962355 
L 182.141263 48.852447 
L 182.249857 48.837287 
L 182.886384 48.72738 
L 182.984954 48.70464 
L 183.907166 48.594733 
L 184.012418 48.575783 
L 185.029859 48.465876 
L 185.138452 48.458296 
L 185.850159 48.348388 
L 185.903621 48.340808 
L 186.57022 48.230901 
L 186.667119 48.204371 
L 187.574295 48.094464 
L 187.657829 48.086884 
L 188.551639 47.976976 
L 188.62849 47.954237 
L 189.485546 47.844329 
L 189.59581 47.832959 
L 190.573155 47.723052 
L 190.650006 47.704102 
L 191.512074 47.594195 
L 191.615655 47.579035 
L 192.566269 47.469127 
L 192.673192 47.453968 
L 193.523565 47.34406 
L 193.598745 47.33269 
L 194.292075 47.226573 
L 194.392315 47.211413 
L 195.237676 47.101505 
L 195.297821 47.090136 
L 196.233398 46.980228 
L 196.310249 46.968858 
L 197.369456 46.858951 
L 197.464685 46.836211 
L 198.163027 46.726303 
L 198.258255 46.707354 
L 199.537991 46.597446 
L 199.638232 46.567127 
L 200.892908 46.457219 
L 200.956393 46.449639 
L 202.069062 46.339732 
L 202.109159 46.324572 
L 203.113234 46.214665 
L 203.218486 46.199505 
L 204.529965 46.089597 
L 204.596792 46.070648 
L 205.590843 45.96074 
L 205.679389 45.938001 
L 206.638356 45.828093 
L 206.685135 45.820513 
L 208.053416 45.710606 
L 208.141962 45.691656 
L 209.555352 45.581748 
L 209.665617 45.551429 
L 211.312901 45.441521 
L 211.413142 45.433942 
L 213.083816 45.324034 
L 213.175703 45.312664 
L 214.600788 45.202757 
L 214.694346 45.191387 
L 216.684118 45.081479 
L 216.684118 45.077689 
L 218.648831 44.967782 
L 218.749071 44.945042 
L 220.152437 44.835135 
L 220.152437 44.831345 
L 222.691862 44.721437 
L 222.691862 44.717647 
L 224.773522 44.60774 
L 224.877103 44.58879 
L 227.550182 44.478882 
L 227.611997 44.471303 
L 232.854572 44.361395 
L 232.867937 44.353815 
L 240.827028 44.243908 
L 240.827028 44.240118 
L 256.735185 44.13021 
L 256.803683 44.11884 
L 366.607059 44.080941 
L 366.607059 44.080941 
" clip-path="url(#pd08bda727d)" style="fill: none; stroke: #1f77b4; stroke-width: 3; stroke-linecap: square"/>
   </g>
   <g id="patch_3">
    <path d="M 103.104 307.584 
L 103.104 41.472 
" style="fill: none; stroke: #000000; stroke-width: 3; stroke-linejoin: miter; stroke-linecap: square"/>
   </g>
   <g id="patch_4">
    <path d="M 369.216 307.584 
L 369.216 41.472 
" style="fill: none; stroke: #000000; stroke-width: 3; stroke-linejoin: miter; stroke-linecap: square"/>
   </g>
   <g id="patch_5">
    <path d="M 103.104 307.584 
L 369.216 307.584 
" style="fill: none; stroke: #000000; stroke-width: 3; stroke-linejoin: miter; stroke-linecap: square"/>
   </g>
   <g id="patch_6">
    <path d="M 103.104 41.472 
L 369.216 41.472 
" style="fill: none; stroke: #000000; stroke-width: 3; stroke-linejoin: miter; stroke-linecap: square"/>
   </g>
   <g id="text_15">
    <!-- ROC for X_train -->
    <g transform="translate(166.829063 35.472) scale(0.18 -0.18)">
     <defs>
      <path id="DejaVuSans-4f" d="M 2522 4238 
Q 1834 4238 1429 3725 
Q 1025 3213 1025 2328 
Q 1025 1447 1429 934 
Q 1834 422 2522 422 
Q 3209 422 3611 934 
Q 4013 1447 4013 2328 
Q 4013 3213 3611 3725 
Q 3209 4238 2522 4238 
z
M 2522 4750 
Q 3503 4750 4090 4092 
Q 4678 3434 4678 2328 
Q 4678 1225 4090 567 
Q 3503 -91 2522 -91 
Q 1538 -91 948 565 
Q 359 1222 359 2328 
Q 359 3434 948 4092 
Q 1538 4750 2522 4750 
z
" transform="scale(0.015625)"/>
      <path id="DejaVuSans-43" d="M 4122 4306 
L 4122 3641 
Q 3803 3938 3442 4084 
Q 3081 4231 2675 4231 
Q 1875 4231 1450 3742 
Q 1025 3253 1025 2328 
Q 1025 1406 1450 917 
Q 1875 428 2675 428 
Q 3081 428 3442 575 
Q 3803 722 4122 1019 
L 4122 359 
Q 3791 134 3420 21 
Q 3050 -91 2638 -91 
Q 1578 -91 968 557 
Q 359 1206 359 2328 
Q 359 3453 968 4101 
Q 1578 4750 2638 4750 
Q 3056 4750 3426 4639 
Q 3797 4528 4122 4306 
z
" transform="scale(0.015625)"/>
      <path id="DejaVuSans-66" d="M 2375 4863 
L 2375 4384 
L 1825 4384 
Q 1516 4384 1395 4259 
Q 1275 4134 1275 3809 
L 1275 3500 
L 2222 3500 
L 2222 3053 
L 1275 3053 
L 1275 0 
L 697 0 
L 697 3053 
L 147 3053 
L 147 3500 
L 697 3500 
L 697 3744 
Q 697 4328 969 4595 
Q 1241 4863 1831 4863 
L 2375 4863 
z
" transform="scale(0.015625)"/>
      <path id="DejaVuSans-58" d="M 403 4666 
L 1081 4666 
L 2241 2931 
L 3406 4666 
L 4084 4666 
L 2584 2425 
L 4184 0 
L 3506 0 
L 2194 1984 
L 872 0 
L 191 0 
L 1856 2491 
L 403 4666 
z
" transform="scale(0.015625)"/>
      <path id="DejaVuSans-5f" d="M 3263 -1063 
L 3263 -1509 
L -63 -1509 
L -63 -1063 
L 3263 -1063 
z
" transform="scale(0.015625)"/>
      <path id="DejaVuSans-6e" d="M 3513 2113 
L 3513 0 
L 2938 0 
L 2938 2094 
Q 2938 2591 2744 2837 
Q 2550 3084 2163 3084 
Q 1697 3084 1428 2787 
Q 1159 2491 1159 1978 
L 1159 0 
L 581 0 
L 581 3500 
L 1159 3500 
L 1159 2956 
Q 1366 3272 1645 3428 
Q 1925 3584 2291 3584 
Q 2894 3584 3203 3211 
Q 3513 2838 3513 2113 
z
" transform="scale(0.015625)"/>
     </defs>
     <use xlink:href="#DejaVuSans-52"/>
     <use xlink:href="#DejaVuSans-4f" transform="translate(69.482422 0)"/>
     <use xlink:href="#DejaVuSans-43" transform="translate(148.193359 0)"/>
     <use xlink:href="#DejaVuSans-20" transform="translate(218.017578 0)"/>
     <use xlink:href="#DejaVuSans-66" transform="translate(249.804688 0)"/>
     <use xlink:href="#DejaVuSans-6f" transform="translate(285.009766 0)"/>
     <use xlink:href="#DejaVuSans-72" transform="translate(346.191406 0)"/>
     <use xlink:href="#DejaVuSans-20" transform="translate(387.304688 0)"/>
     <use xlink:href="#DejaVuSans-58" transform="translate(419.091797 0)"/>
     <use xlink:href="#DejaVuSans-5f" transform="translate(487.597656 0)"/>
     <use xlink:href="#DejaVuSans-74" transform="translate(537.597656 0)"/>
     <use xlink:href="#DejaVuSans-72" transform="translate(576.806641 0)"/>
     <use xlink:href="#DejaVuSans-61" transform="translate(617.919922 0)"/>
     <use xlink:href="#DejaVuSans-69" transform="translate(679.199219 0)"/>
     <use xlink:href="#DejaVuSans-6e" transform="translate(706.982422 0)"/>
    </g>
   </g>
   <g id="legend_1">
    <g id="patch_7">
     <path d="M 157.916625 302.584 
L 362.216 302.584 
Q 364.216 302.584 364.216 300.584 
L 364.216 284.97025 
Q 364.216 282.97025 362.216 282.97025 
L 157.916625 282.97025 
Q 155.916625 282.97025 155.916625 284.97025 
L 155.916625 300.584 
Q 155.916625 302.584 157.916625 302.584 
z
" style="fill: #ffffff; opacity: 0.8; stroke: #cccccc; stroke-width: 3; stroke-linejoin: miter"/>
    </g>
    <g id="line2d_14">
     <path d="M 159.916625 292.588375 
L 169.916625 292.588375 
L 179.916625 292.588375 
" style="fill: none; stroke: #1f77b4; stroke-width: 1.5; stroke-linecap: square"/>
    </g>
    <g id="text_16">
     <!-- LGBMClassifier (AUC = 0.96) -->
     <g transform="translate(187.916625 296.088375) scale(0.12 -0.12)">
      <defs>
       <path id="DejaVuSans-4c" d="M 628 4666 
L 1259 4666 
L 1259 531 
L 3531 531 
L 3531 0 
L 628 0 
L 628 4666 
z
" transform="scale(0.015625)"/>
       <path id="DejaVuSans-47" d="M 3809 666 
L 3809 1919 
L 2778 1919 
L 2778 2438 
L 4434 2438 
L 4434 434 
Q 4069 175 3628 42 
Q 3188 -91 2688 -91 
Q 1594 -91 976 548 
Q 359 1188 359 2328 
Q 359 3472 976 4111 
Q 1594 4750 2688 4750 
Q 3144 4750 3555 4637 
Q 3966 4525 4313 4306 
L 4313 3634 
Q 3963 3931 3569 4081 
Q 3175 4231 2741 4231 
Q 1884 4231 1454 3753 
Q 1025 3275 1025 2328 
Q 1025 1384 1454 906 
Q 1884 428 2741 428 
Q 3075 428 3337 486 
Q 3600 544 3809 666 
z
" transform="scale(0.015625)"/>
       <path id="DejaVuSans-42" d="M 1259 2228 
L 1259 519 
L 2272 519 
Q 2781 519 3026 730 
Q 3272 941 3272 1375 
Q 3272 1813 3026 2020 
Q 2781 2228 2272 2228 
L 1259 2228 
z
M 1259 4147 
L 1259 2741 
L 2194 2741 
Q 2656 2741 2882 2914 
Q 3109 3088 3109 3444 
Q 3109 3797 2882 3972 
Q 2656 4147 2194 4147 
L 1259 4147 
z
M 628 4666 
L 2241 4666 
Q 2963 4666 3353 4366 
Q 3744 4066 3744 3513 
Q 3744 3084 3544 2831 
Q 3344 2578 2956 2516 
Q 3422 2416 3680 2098 
Q 3938 1781 3938 1306 
Q 3938 681 3513 340 
Q 3088 0 2303 0 
L 628 0 
L 628 4666 
z
" transform="scale(0.015625)"/>
       <path id="DejaVuSans-4d" d="M 628 4666 
L 1569 4666 
L 2759 1491 
L 3956 4666 
L 4897 4666 
L 4897 0 
L 4281 0 
L 4281 4097 
L 3078 897 
L 2444 897 
L 1241 4097 
L 1241 0 
L 628 0 
L 628 4666 
z
" transform="scale(0.015625)"/>
       <path id="DejaVuSans-41" d="M 2188 4044 
L 1331 1722 
L 3047 1722 
L 2188 4044 
z
M 1831 4666 
L 2547 4666 
L 4325 0 
L 3669 0 
L 3244 1197 
L 1141 1197 
L 716 0 
L 50 0 
L 1831 4666 
z
" transform="scale(0.015625)"/>
       <path id="DejaVuSans-55" d="M 556 4666 
L 1191 4666 
L 1191 1831 
Q 1191 1081 1462 751 
Q 1734 422 2344 422 
Q 2950 422 3222 751 
Q 3494 1081 3494 1831 
L 3494 4666 
L 4128 4666 
L 4128 1753 
Q 4128 841 3676 375 
Q 3225 -91 2344 -91 
Q 1459 -91 1007 375 
Q 556 841 556 1753 
L 556 4666 
z
" transform="scale(0.015625)"/>
       <path id="DejaVuSans-3d" d="M 678 2906 
L 4684 2906 
L 4684 2381 
L 678 2381 
L 678 2906 
z
M 678 1631 
L 4684 1631 
L 4684 1100 
L 678 1100 
L 678 1631 
z
" transform="scale(0.015625)"/>
       <path id="DejaVuSans-39" d="M 703 97 
L 703 672 
Q 941 559 1184 500 
Q 1428 441 1663 441 
Q 2288 441 2617 861 
Q 2947 1281 2994 2138 
Q 2813 1869 2534 1725 
Q 2256 1581 1919 1581 
Q 1219 1581 811 2004 
Q 403 2428 403 3163 
Q 403 3881 828 4315 
Q 1253 4750 1959 4750 
Q 2769 4750 3195 4129 
Q 3622 3509 3622 2328 
Q 3622 1225 3098 567 
Q 2575 -91 1691 -91 
Q 1453 -91 1209 -44 
Q 966 3 703 97 
z
M 1959 2075 
Q 2384 2075 2632 2365 
Q 2881 2656 2881 3163 
Q 2881 3666 2632 3958 
Q 2384 4250 1959 4250 
Q 1534 4250 1286 3958 
Q 1038 3666 1038 3163 
Q 1038 2656 1286 2365 
Q 1534 2075 1959 2075 
z
" transform="scale(0.015625)"/>
      </defs>
      <use xlink:href="#DejaVuSans-4c"/>
      <use xlink:href="#DejaVuSans-47" transform="translate(55.712891 0)"/>
      <use xlink:href="#DejaVuSans-42" transform="translate(133.203125 0)"/>
      <use xlink:href="#DejaVuSans-4d" transform="translate(201.806641 0)"/>
      <use xlink:href="#DejaVuSans-43" transform="translate(288.085938 0)"/>
      <use xlink:href="#DejaVuSans-6c" transform="translate(357.910156 0)"/>
      <use xlink:href="#DejaVuSans-61" transform="translate(385.693359 0)"/>
      <use xlink:href="#DejaVuSans-73" transform="translate(446.972656 0)"/>
      <use xlink:href="#DejaVuSans-73" transform="translate(499.072266 0)"/>
      <use xlink:href="#DejaVuSans-69" transform="translate(551.171875 0)"/>
      <use xlink:href="#DejaVuSans-66" transform="translate(578.955078 0)"/>
      <use xlink:href="#DejaVuSans-69" transform="translate(614.160156 0)"/>
      <use xlink:href="#DejaVuSans-65" transform="translate(641.943359 0)"/>
      <use xlink:href="#DejaVuSans-72" transform="translate(703.466797 0)"/>
      <use xlink:href="#DejaVuSans-20" transform="translate(744.580078 0)"/>
      <use xlink:href="#DejaVuSans-28" transform="translate(776.367188 0)"/>
      <use xlink:href="#DejaVuSans-41" transform="translate(815.380859 0)"/>
      <use xlink:href="#DejaVuSans-55" transform="translate(883.789062 0)"/>
      <use xlink:href="#DejaVuSans-43" transform="translate(956.982422 0)"/>
      <use xlink:href="#DejaVuSans-20" transform="translate(1026.806641 0)"/>
      <use xlink:href="#DejaVuSans-3d" transform="translate(1058.59375 0)"/>
      <use xlink:href="#DejaVuSans-20" transform="translate(1142.382812 0)"/>
      <use xlink:href="#DejaVuSans-30" transform="translate(1174.169922 0)"/>
      <use xlink:href="#DejaVuSans-2e" transform="translate(1237.792969 0)"/>
      <use xlink:href="#DejaVuSans-39" transform="translate(1269.580078 0)"/>
      <use xlink:href="#DejaVuSans-36" transform="translate(1333.203125 0)"/>
      <use xlink:href="#DejaVuSans-29" transform="translate(1396.826172 0)"/>
     </g>
    </g>
   </g>
  </g>
 </g>
 <defs>
  <clipPath id="pd08bda727d">
   <rect x="103.104" y="41.472" width="266.112" height="266.112"/>
  </clipPath>
 </defs>
</svg>
